<?xml version="1.0" encoding="utf-8"?>
<!-- Generator: Adobe Illustrator 22.0.1, SVG Export Plug-In . SVG Version: 6.00 Build 0)  -->
<svg version="1.1" id="Capa_1" xmlns="http://www.w3.org/2000/svg" xmlns:xlink="http://www.w3.org/1999/xlink" x="0px" y="0px"
	 viewBox="0 0 512 512" style="enable-background:new 0 0 512 512;" xml:space="preserve">
<style type="text/css">
	.st0{fill:#F7F2F2;}
</style>
<g>
	<g>
		<path class="st0" d="M404.9,211.8c1.7-30.2-4.5-53.1-18.4-68c-10.3-11-22.2-14.8-29.2-16c-9.8-19.5-25.9-24-36.5-23.5
			c-19-17.2-36.7-17.6-48.4-14.6c-6.8,1.7-12.3,4.6-16.1,7.2c-3.8-2.6-9.3-5.5-16.1-7.2c-11.7-2.9-29.4-2.6-48.4,14.6
			c-10.6-0.5-26.6,3.9-36.5,23.5c-7,1.3-19,5-29.2,16c-13.9,14.9-20.1,37.8-18.4,68c-12.1,20.3-22,61,16,89.9
			c-2.5,18,0.9,47,27.5,62.3c-1,6.9-1.1,17.4,4.5,26.6c4.7,7.8,12.2,13,22.5,15.5c6.1,9.3,23.6,32.4,46.2,32.4c0.2,0,0.3,0,0.5,0
			c11.7-0.2,22.2-6.4,31.5-18.6c9.3,12.2,19.8,18.4,31.5,18.6c0.2,0,0.3,0,0.5,0c22.6,0,40.1-23.2,46.2-32.4
			c10.3-2.5,17.8-7.7,22.5-15.5c5.6-9.3,5.5-19.7,4.5-26.6c26.6-15.3,30.1-44.3,27.5-62.3C426.9,272.7,417,232,404.9,211.8z
			 M374.2,290.5c-3.1,2.1-4.5,5.9-3.7,9.5c0.4,1.5,8.7,37.7-22.8,51.2c-4.2,1.8-6.3,6.5-4.9,10.9c0,0.1,3.6,11.8-1.1,19.6
			c-2.5,4.2-7.2,6.8-14.3,8c-2.6,0.4-4.8,2-6.2,4.2c-4.4,7.6-19,27.1-33.1,27.1c-0.1,0-0.2,0-0.2,0c-8.2-0.1-16.2-7.3-23.9-21.3
			c-1.5-2.8-4.8-4.6-8-4.6c-3.2,0-6.2,1.8-7.8,4.6c-7.6,14-15.7,21.2-23.9,21.3c-0.1,0-0.2,0-0.2,0c-14.1,0-28.6-19.6-33.1-27.1
			c-1.3-2.3-3.6-3.8-6.2-4.3c-7.1-1.2-11.7-3.8-14.3-8c-4-6.6-2.2-16.4-1.1-19.6c1.5-4.4-0.7-9.1-4.9-10.9
			c-31.6-13.5-23.2-49.7-22.8-51.2c0.9-3.6-0.6-7.4-3.7-9.5c-41.4-27.6-17.2-67.1-14.3-71.5c1.1-1.6,1.6-3.6,1.5-5.5
			c-1.9-26,2.7-45.8,13.3-57.4c10-11,22.1-11.3,22.6-11.3c3.6,0,6.9-2.2,8.2-5.5c7.9-19.7,21.7-17.3,23.2-17c3,0.7,6.2-0.1,8.4-2.3
			c26.2-26.2,46.7-7.7,48.9-5.6c1.7,1.7,3.9,2.6,6.2,2.6h0.2c2.3,0,4.6-0.9,6.2-2.5c2.3-2.2,22.8-20.7,49,5.5c2.1,2.1,5.3,3,8.3,2.4
			c1.6-0.3,15.4-2.7,23.3,17c1.3,3.4,4.6,5.5,8.2,5.5c0.1,0,12.3,0.3,22.3,11.1c10.7,11.5,15.4,31.5,13.5,57.7
			c-0.1,1.9,0.4,3.9,1.4,5.5C391.4,223.4,415.7,262.9,374.2,290.5z"/>
	</g>
</g>
<g>
	<g>
		<path class="st0" d="M163.9,127.5c-4.6-1.5-9.6,1-11.2,5.6s1,9.6,5.6,11.2c26.6,8.9,27.4,29.7,27.5,30.8c0,4.8,4,8.8,8.8,8.8
			c4.9,0,8.8-4,8.8-8.8C203.5,173.6,203,140.6,163.9,127.5z"/>
	</g>
</g>
<g>
	<g>
		<path class="st0" d="M192.1,272.8c-4.6-1.7-9.7,0.7-11.3,5.2c-0.1,0.2-6.5,16.7-18.5,20.2c-6.7,2-14.7-0.5-23.7-7.4
			c-3.9-3-9.4-2.2-12.4,1.7c-3,3.9-2.2,9.4,1.7,12.4c10.2,7.8,20.1,11.7,29.7,11.7c3.3,0,6.5-0.5,9.6-1.4c20.7-6,29.8-30,30.2-31
			C199,279.5,196.7,274.5,192.1,272.8z"/>
	</g>
</g>
<g>
	<g>
		<path class="st0" d="M223.2,330.7c-3.4-3.4-9-3.4-12.5,0c-25.6,25.6-19.4,51.9-19.1,53c1,4,4.6,6.6,8.5,6.6c0.7,0,1.4-0.1,2.1-0.2
			c4.7-1.1,7.6-5.9,6.6-10.6c-0.2-0.7-3.8-18.2,14.4-36.4C226.7,339.7,226.7,334.1,223.2,330.7z"/>
	</g>
</g>
<g>
	<g>
		<path class="st0" d="M237.7,206.2c-11-5.5-19.4,1.1-26.9,6.9c-5.9,4.6-13.3,10.4-25,15.1c-21.4,8.5-39.3-13.1-40.1-14.1
			c-3.1-3.8-8.6-4.4-12.4-1.4c-3.8,3-4.4,8.6-1.4,12.4c0.9,1.1,18.6,22.8,43.6,22.8c5.3,0,11-1,16.8-3.3
			c14.1-5.6,22.9-12.5,29.4-17.6c2.7-2.1,6.5-5.1,7.6-5.2c0,0,0.1,0,0.4,0.2c4.4,2.2,9.7,0.4,11.8-3.9
			C243.8,213.7,242,208.4,237.7,206.2z"/>
	</g>
</g>
<g>
	<g>
		<path class="st0" d="M359.3,133.1c-1.5-4.6-6.5-7.1-11.2-5.6c-39.1,13-39.5,46.1-39.5,47.5c0,4.8,3.9,8.7,8.7,8.8c0,0,0.1,0,0.1,0
			c4.8,0,8.7-3.9,8.8-8.7c0-0.9,0.8-21.9,27.5-30.8C358.4,142.8,360.9,137.8,359.3,133.1z"/>
	</g>
</g>
<g>
	<g>
		<path class="st0" d="M385.9,292.5c-3-3.9-8.5-4.6-12.4-1.7c-9,6.8-16.9,9.3-23.6,7.4c-10.1-2.9-16.8-15.6-18.6-20.2
			c-1.7-4.6-6.8-6.9-11.3-5.2c-4.6,1.7-6.9,6.8-5.2,11.3c0.4,1,9.4,25,30.2,31c3.2,0.9,6.4,1.4,9.6,1.4c9.5,0,19.5-3.9,29.7-11.7
			C388.1,301.9,388.9,296.3,385.9,292.5z"/>
	</g>
</g>
<g>
	<g>
		<path class="st0" d="M293.5,306c-3.4-3.4-9-3.4-12.5,0c-3.4,3.4-3.4,9,0,12.5c18.1,18.1,14.6,35.4,14.4,36.4
			c-1.1,4.7,1.7,9.4,6.4,10.6c0.7,0.2,1.4,0.3,2.1,0.3c4,0,7.6-2.7,8.6-6.7C312.8,357.9,319,331.6,293.5,306z"/>
	</g>
</g>
<g>
	<g>
		<path class="st0" d="M378,242.2c-1.7-4.6-6.7-6.9-11.3-5.3c-1.1,0.4-27.7,9.6-41.6-8.8c-7.6-10.1-10.9-18.9-13.6-25.9
			c-3.3-8.8-7.1-18.9-19.4-19.9c-4.9-0.4-9.1,3.2-9.5,8.1s3.2,9.1,8.1,9.5c0.2,0,0.4,0.1,0.4,0.1h0c1,0.8,2.7,5.2,3.9,8.4
			c2.9,7.6,6.8,18.1,16,30.3c11.1,14.8,26.5,18.5,39.2,18.5c12.2,0,21.8-3.4,22.6-3.7C377.3,251.8,379.6,246.8,378,242.2z"/>
	</g>
</g>
<g>
	<g>
		<path class="st0" d="M256.1,99.2c-4.9,0-8.8,4-8.8,8.8v295.9c0,4.9,4,8.8,8.8,8.8c4.9,0,8.8-4,8.8-8.8V108
			C264.9,103.1,260.9,99.2,256.1,99.2z"/>
	</g>
</g>
<g>
	<g>
		<path class="st0" d="M210.7,296.1c-26.5-17.7-8.9-54.1-8.2-55.7c2.2-4.4,0.4-9.6-4-11.8c-4.4-2.2-9.7-0.4-11.8,3.9
			c-8.9,17.9-17.5,57.2,14.2,78.3c1.5,1,3.2,1.5,4.9,1.5c2.9,0,5.7-1.4,7.4-3.9C215.9,304.2,214.8,298.8,210.7,296.1z"/>
	</g>
</g>
<g>
	<g>
		<path class="st0" d="M256,0c-4.9,0-8.8,4-8.8,8.8V53c0,4.9,4,8.8,8.8,8.8c4.9,0,8.8-4,8.8-8.8V8.8C264.8,4,260.9,0,256,0z"/>
	</g>
</g>
<g>
	<g>
		<path class="st0" d="M256,450.2c-4.9,0-8.8,4-8.8,8.8v44.1c0,4.9,4,8.8,8.8,8.8c4.9,0,8.8-4,8.8-8.8V459
			C264.8,454.2,260.9,450.2,256,450.2z"/>
	</g>
</g>
<g>
	<g>
		<path class="st0" d="M53,247.2H8.8c-4.9,0-8.8,4-8.8,8.8c0,4.9,4,8.8,8.8,8.8H53c4.9,0,8.8-4,8.8-8.8S57.8,247.2,53,247.2z"/>
	</g>
</g>
<g>
	<g>
		<path class="st0" d="M503.2,247.2H459c-4.9,0-8.8,4-8.8,8.8c0,4.9,4,8.8,8.8,8.8h44.1c4.9,0,8.8-4,8.8-8.8S508,247.2,503.2,247.2z
			"/>
	</g>
</g>
<g>
	<g>
		<path class="st0" d="M118.7,106.2L87.5,75c-3.4-3.4-9-3.4-12.5,0c-3.4,3.4-3.4,9,0,12.5l31.2,31.2c1.7,1.7,4,2.6,6.2,2.6
			s4.5-0.9,6.2-2.6C122.1,115.2,122.1,109.6,118.7,106.2z"/>
	</g>
</g>
<g>
	<g>
		<path class="st0" d="M437,424.5l-31.2-31.2c-3.4-3.4-9-3.4-12.5,0s-3.4,9,0,12.5l31.2,31.2c1.7,1.7,4,2.6,6.2,2.6
			c2.3,0,4.5-0.9,6.2-2.6C440.5,433.6,440.5,428,437,424.5z"/>
	</g>
</g>
<g>
	<g>
		<path class="st0" d="M437,75c-3.4-3.4-9-3.4-12.5,0l-31.2,31.2c-3.4,3.5-3.4,9,0,12.5c1.7,1.7,4,2.6,6.2,2.6s4.5-0.9,6.2-2.6
			L437,87.5C440.5,84,440.5,78.4,437,75z"/>
	</g>
</g>
<g>
	<g>
		<path class="st0" d="M118.7,393.3c-3.5-3.4-9-3.4-12.5,0L75,424.5c-3.4,3.4-3.4,9,0,12.5c1.7,1.7,4,2.6,6.2,2.6
			c2.3,0,4.5-0.9,6.2-2.6l31.2-31.2C122.1,402.4,122.1,396.8,118.7,393.3z"/>
	</g>
</g>
</svg>
