<?xml version="1.0" encoding="utf-8"?>
<!-- Generator: Adobe Illustrator 22.0.1, SVG Export Plug-In . SVG Version: 6.00 Build 0)  -->
<svg version="1.1" id="Layer_1" xmlns="http://www.w3.org/2000/svg" xmlns:xlink="http://www.w3.org/1999/xlink" x="0px" y="0px"
	 viewBox="0 0 128 128" style="enable-background:new 0 0 128 128;" xml:space="preserve">
<style type="text/css">
	.st0{fill:#FFFFFF;}
	.st1{fill:none;stroke:#31352E;stroke-width:6;stroke-linecap:round;stroke-linejoin:round;stroke-miterlimit:10;}
	.st2{fill:#EDEBDF;}
	.st3{fill:#DEDBCA;}
	.st4{fill:none;stroke:#31352E;stroke-width:6;stroke-linejoin:round;stroke-miterlimit:10;}
	.st5{fill:#78D3EF;}
</style>
<path class="st0" d="M80.1,36l-34.7,9.1L58.6,23L80.1,36z"/>
<path class="st1" d="M51.2,35.3l-11,18.1"/>
<path class="st0" d="M106.2,51.9L95.7,64.6l-5.5-22.5L106.2,51.9z"/>
<path class="st2" d="M95.7,64.6L78.6,84.8L78.4,85l-0.2-0.1L72.9,81l-3.1,6l-0.1,0.1h-0.2l-7.2-2.9l-16.2-6.5L38,47l43.3-11.4
	l6.2-1.5l5.3,18.5L95.7,64.6z"/>
<path class="st3" d="M95.7,64.6L78.6,84.8l-0.3,0.1L72.9,81l-3.1,6h-0.2l-7.2-2.9c15.9-16.8,18.9-45.9,19-48.6v-0.2l6.1-1.4
	l5.2,18.5C92.7,52.4,95.7,64.6,95.7,64.6z"/>
<path class="st0" d="M98.9,61.1L79,84.9L72.8,81L69,87.3L41.5,75.8l-11.7-5.2l12.3,50.2c0.5,2.1,2.7,3.7,5.1,3.1l68.3-16.7
	c2.1-0.5,3.7-2.9,3.2-5.1l-12.3-50.2C106.4,51.9,98.9,61.1,98.9,61.1z"/>
<path class="st0" d="M79.3,84.5l4.4-5.3l34.4,25.8L79.3,84.5z"/>
<path class="st0" d="M68.6,87.1l-6.4-2.6l-18.5,38.8L68.6,87.1z"/>
<path class="st0" d="M38.2,53.4l5.9,24.3l-16.4-7L38.2,53.4z"/>
<path class="st4" d="M79,84.9l27.2-33l12.3,50.2c0.3,1.4-0.1,2.9-1,3.9c-0.6,0.6-1.3,1.1-2.1,1.3L47.1,124c-1.3,0.3-2.6,0-3.5-0.7
	c-0.8-0.6-1.3-1.4-1.6-2.4L29.7,70.7L69,87.3"/>
<path class="st4" d="M40.1,53.6L29.7,70.7"/>
<path class="st4" d="M106.2,51.9l-16-9.8"/>
<path class="st4" d="M46.1,77.7L38,47l49.5-12.9L96,64.6"/>
<path class="st4" d="M118.1,105L72.8,81l-29.1,42.3"/>
<path class="st1" d="M51.8,54.4l7.4-2"/>
<path class="st1" d="M54.3,64.8l27.2-6.7"/>
<g>
	<ellipse transform="matrix(0.1867 -0.9824 0.9824 0.1867 66.0881 122.6127)" class="st4" cx="107.1" cy="21.4" rx="8.8" ry="6.6"/>
	<path class="st1" d="M113.9,36c-2.8,1.2-5.9,1.6-9.1,1c-8.5-1.6-14.2-9.9-12.5-18.4C93.9,10,102.5,3.4,111,5s13.6,10.5,12,19
		c-1.7,8.7-10.8,6.3-9-3c0.7-3.3,1-5,1-5"/>
</g>
<g>
	<path class="st3" d="M26.9,12.6c-11.2,8-19.3,20.2-21.8,34.9c-1.5,8.8,4.4,17.2,13.1,18.8c1.1,0.2,2.3,0.3,3.4,0.2
		c1.2,0,2.4-0.2,3.6-0.5l7.6-26.6c-1.6-1.7-3.5-3.1-5.8-4c2.5-3.6,5.8-6.9,9.3-9.5c3.6-2.4,7.8-4.4,12.1-5.4
		c0.1,2.4,0.7,4.7,1.8,6.8l27.5,2c0.7-1,1.3-2,1.7-3.2c0.4-1,0.7-2.1,0.9-3.3C81.8,14,75.9,5.6,67.2,4C52.5,1.5,38.3,4.9,26.9,12.6z
		"/>
	<path class="st5" d="M50.1,26.6c-0.1,0-0.2,0-0.2,0.1l0.3,0.6C50.1,27.1,50.1,26.9,50.1,26.6z"/>
	<path class="st2" d="M6.8,53.6C9.3,39,17.5,26.8,28.7,18.8C40,11,54.3,7.6,68.9,10.2c5.2,0.9,9.3,4.3,11.6,8.6
		c-0.6-7.2-5.9-13.4-13.3-14.7C52.6,1.4,38.3,4.9,27,12.6c-11.2,8-19.3,20.2-21.8,34.9c-0.6,3.6,0,7.1,1.6,10.2
		C6.5,56.3,6.6,55,6.8,53.6z"/>
	<path class="st1" d="M26.9,12.6c-11.2,8-19.3,20.2-21.8,34.9c-1.5,8.8,4.4,17.2,13.1,18.8c1.1,0.2,2.3,0.3,3.4,0.2
		c1.2,0,2.4-0.2,3.6-0.5l7.6-26.6c-1.6-1.7-3.5-3.1-5.8-4c2.5-3.6,5.8-6.9,9.3-9.5c3.6-2.4,7.8-4.4,12.1-5.4
		c0.1,2.4,0.7,4.7,1.8,6.8l27.5,2c0.7-1,1.3-2,1.7-3.2c0.4-1,0.7-2.1,0.9-3.3C81.8,14,75.9,5.6,67.2,4C52.5,1.5,38.3,4.9,26.9,12.6z
		"/>
</g>
<path class="st1" d="M20.4,80.2L5,84"/>
<path class="st1" d="M23.3,91.8L15,94"/>
</svg>
