<?xml version="1.0" encoding="UTF-8"?><svg xmlns="http://www.w3.org/2000/svg" xmlns:xlink="http://www.w3.org/1999/xlink" version="1.1" id="Layer_1" x="0px" y="0px" viewBox="0 0 128 128" xml:space="preserve"><style type="text/css">.st0{fill:#F2CEA5;} .st1{fill:#8CD717;} .st2{fill:#8C8C8C;} .st3{fill:#F6F3E0;} .st4{fill:#34B6F7;} .st5{fill:#4DCDFF;} .st6{fill:#FFCE00;} .st7{fill:#EAAC81;} .st8{fill:#CD8338;} .st9{fill:#E5E5E5;} .st10{fill:#FFFFFF;} .st11{fill:none;stroke:#31352E;stroke-width:6;stroke-linecap:round;stroke-linejoin:round;stroke-miterlimit:10;} .st12{fill:none;stroke:#31352E;stroke-width:6;stroke-linejoin:round;stroke-miterlimit:10;} .st13{fill:#D39C16;} .st14{fill:#EFEFE7;} .st15{fill:#E2E2E2;} .st16{fill:#C1C1C1;} .st17{fill:#72D2FC;} .st18{fill:#0CA8FD;} .st19{fill:#EFEFEF;} .st20{fill:#E0E0E0;} .st21{fill:none;stroke:#30342D;stroke-width:6;stroke-linecap:round;stroke-linejoin:round;stroke-miterlimit:10;} .st22{fill:#F0D054;} .st23{fill:#0099CC;} .st24{fill:none;stroke:#31352E;stroke-width:6;stroke-linecap:round;stroke-miterlimit:10;} .st25{fill:#1B8DD2;} .st26{fill:#FFEF2C;} .st27{fill:#F2F2F2;} .st28{fill:#26C0F9;} .st29{fill:#FFDF85;} .st30{fill:#FFCA28;} .st31{fill:#47D618;} .st32{fill:#37BA13;} .st33{fill:#EAEAEA;} .st34{fill:#29A5D1;} .st35{fill:#37B1D4;} .st36{fill:#0B172D;} .st37{fill:#F1F0F0;} .st38{fill:#8BCF1B;} .st39{fill:#6D7577;} .st40{fill:#7C8587;} .st41{fill:#5B5B5B;} .st42{fill:#DFDCCB;} .st43{fill:#30342D;} .st44{fill:#1CA5F9;} .st45{fill:#A5F40B;} .st46{fill:#BEF623;} .st47{fill:#E8E3D1;} .st48{fill:#DEDBCA;} .st49{fill:#31352E;} .st50{fill:#292B27;} .st51{fill:#A1ABAF;} .st52{fill:#CAD0D2;} .st53{fill:#88989D;} .st54{fill:#FFBD5D;} .st55{fill:#96DB00;} .st56{fill:#FFBC00;} .st57{fill:#D80909;} .st58{fill:#F2CC2F;} .st59{fill:#D8984C;} .st60{fill:#EDEBDF;} .st61{fill:#53B8E0;} .st62{fill:#78D3EF;} .st63{fill:#D3D3D3;} .st64{fill:#F7F7F8;} .st65{fill:#EDEDED;} .st66{fill:#ECECEC;} .st67{fill:#F4F4F4;} .st68{fill:#C7EEFF;} .st69{fill:#B8E5F4;} .st70{fill:none;stroke:#FFFFFF;stroke-width:6;stroke-linecap:round;stroke-miterlimit:10;} .st71{fill:#FFBE91;} .st72{fill:#FFCFAE;} .st73{fill:none;stroke:#536A6B;stroke-width:6;stroke-miterlimit:10;} .st74{fill:none;stroke:#30342D;stroke-width:6;stroke-miterlimit:10;} .st75{fill:#E0A958;} .st76{fill:#F2B85C;} .st77{fill:#E1A453;} .st78{fill:#CE9549;} .st79{fill:#A06E4B;} .st80{fill:#CFCED4;} .st81{fill:#D5D6D4;} .st82{fill:#D7EDF2;} .st83{fill:#FC6565;} .st84{fill:#E5B6B9;} .st85{fill:#ED1D1D;} .st86{fill:#FDB1B1;} .st87{fill:#E74C3C;} .st88{fill:#FED535;} .st89{fill:#FFB904;} .st90{fill:none;stroke:#31352E;stroke-width:6;stroke-miterlimit:10;} .st91{fill:none;stroke:#31352E;stroke-width:3;stroke-linecap:round;stroke-linejoin:round;stroke-miterlimit:10;} .st92{fill:#5CCBFB;} .st93{fill:#BDF887;} .st94{fill:#5BBEE8;} .st95{fill:#ABE38E;} .st96{fill:#B1D7E0;} .st97{fill:#81E0FD;} .st98{fill:#80D8F3;} .st99{fill:#BEEEC2;} .st100{fill:#FFE49F;} .st101{fill:#FF7A0B;} .st102{fill:#FEAF2C;} .st103{fill:#F7C64B;} .st104{fill:#F04B4D;} .st105{fill:#494949;} .st106{fill:#9FDAF4;} .st107{fill:#88CDE5;} .st108{fill:#36C63F;} .st109{fill:#47E24A;} .st110{fill:#FEC159;} .st111{fill:#FFFDD2;} .st112{fill:none;stroke:#37BA13;stroke-width:3;stroke-linecap:round;stroke-linejoin:round;stroke-miterlimit:10;} .st113{fill:none;stroke:#D5D6D4;stroke-width:6;stroke-linecap:round;stroke-miterlimit:10;} .st114{fill:#C11F36;} .st115{fill:#EA3636;} .st116{fill:#FF8F1F;} .st117{fill:#A0D82A;} .st118{fill:#2C8ACA;} .st119{fill:#36A0D4;} .st120{fill:#FEA42A;} .st121{fill:#ED4140;} .st122{fill:#CC2540;} .st123{fill:#E5A24A;} .st124{fill:#42B6E3;} .st125{fill:#5ACCF9;} .st126{fill:#299FCE;} .st127{fill:#FFDDBB;} .st128{fill:#B0E05C;} .st129{fill:#FF9343;} .st130{fill:none;stroke:#31352E;stroke-width:3;stroke-linecap:round;stroke-miterlimit:10;} .st131{fill:#14A0FF;} .st132{fill:#00AB4D;} .st133{fill:#40C079;} .st134{fill:#7B9196;} .st135{fill:#748C90;} .st136{fill:#F44945;} .st137{fill:#56C7F4;} .st138{fill:#7FD0D5;} .st139{fill:#AAD8AB;} .st140{fill:#D4DC74;} .st141{fill:#FEDF34;} .st142{fill:#2C9415;} .st143{fill:#97C515;} .st144{fill:#3BAF15;} .st145{fill:#62BEC5;} .st146{fill:#3EB4ED;} .st147{fill:#90C892;} .st148{fill:#249615;} .st149{fill:#7AB018;} .st150{fill:#197811;} .st151{fill:#9ADDFA;} .st152{fill:#B3DDA1;} .st153{fill:#8ED4A1;} .st154{fill:#C6EBF7;} .st155{fill:#A7DED2;} .st156{fill:#A5CAD6;} .st157{fill:none;} .st158{fill:#8AA3AA;} .st159{fill:#FF6464;} .st160{fill:#E84646;} .st161{fill:#D3AAB4;} .st162{fill:#D6EDF4;} .st163{fill:#D13F3E;} .st164{fill:#D7D7D0;} .st165{fill:#C2CDDA;} .st166{fill:none;stroke:#F44945;stroke-width:6;stroke-linecap:round;stroke-linejoin:round;stroke-miterlimit:10;}</style><path class="st59" fill="#D8984C" d="M80.1 36l-34.7 9.1L58.6 23z"/><path class="st11" fill="none" stroke="#31352E" stroke-linecap="round" stroke-linejoin="round" stroke-miterlimit="10" stroke-width="6" d="M51.2 35.3l-11 18.1"/><path class="st59" fill="#D8984C" d="M106.2 51.9L95.7 64.6l-5.5-22.5z"/><path class="st60" fill="#EDEBDF" d="M95.7 64.6L78.6 84.8l-.2.2-.2-.1-5.3-3.9-3.1 6-.1.1h-.2l-7.2-2.9-16.2-6.5L38 47l43.3-11.4 6.2-1.5 5.3 18.5z"/><path class="st48" d="M95.7 64.6L78.6 84.8l-.3.1-5.4-3.9-3.1 6h-.2l-7.2-2.9c15.9-16.8 18.9-45.9 19-48.6v-.2l6.1-1.4 5.2 18.5 3 12.2z" fill="#DEDBCA"/><path class="st54" d="M98.9 61.1L79 84.9 72.8 81 69 87.3 41.5 75.8l-11.7-5.2 12.3 50.2c.5 2.1 2.7 3.7 5.1 3.1l68.3-16.7c2.1-.5 3.7-2.9 3.2-5.1l-12.3-50.2-7.5 9.2z" fill="#FFBD5D"/><path class="st59" fill="#D8984C" d="M79.3 84.5l4.4-5.3 34.4 25.8z"/><path class="st59" fill="#D8984C" d="M68.6 87.1l-6.4-2.6-18.5 38.8z"/><path class="st59" fill="#D8984C" d="M40.2 53.4l5.9 24.3-16.4-7z"/><path class="st12" d="M79 84.9l27.2-33 12.3 50.2c.3 1.4-.1 2.9-1 3.9-.6.6-1.3 1.1-2.1 1.3L47.1 124c-1.3.3-2.6 0-3.5-.7-.8-.6-1.3-1.4-1.6-2.4L29.7 70.7 69 87.3" fill="none" stroke="#31352E" stroke-linejoin="round" stroke-miterlimit="10" stroke-width="6"/><path class="st12" fill="none" stroke="#31352E" stroke-linejoin="round" stroke-miterlimit="10" stroke-width="6" d="M40.1 53.6L29.7 70.7"/><path class="st12" fill="none" stroke="#31352E" stroke-linejoin="round" stroke-miterlimit="10" stroke-width="6" d="M106.2 51.9l-16-9.8"/><path class="st12" fill="none" stroke="#31352E" stroke-linejoin="round" stroke-miterlimit="10" stroke-width="6" d="M46.1 77.7L38 47l49.5-12.9L96 64.6"/><path class="st12" fill="none" stroke="#31352E" stroke-linejoin="round" stroke-miterlimit="10" stroke-width="6" d="M118.1 105L72.8 81l-29.1 42.3"/><path class="st11" fill="none" stroke="#31352E" stroke-linecap="round" stroke-linejoin="round" stroke-miterlimit="10" stroke-width="6" d="M51.8 54.4l7.4-2"/><path class="st11" fill="none" stroke="#31352E" stroke-linecap="round" stroke-linejoin="round" stroke-miterlimit="10" stroke-width="6" d="M54.3 64.8l27.2-6.7"/><g><ellipse transform="matrix(0.9824 0.1867 -0.1867 0.9824 5.879 -19.6279)" class="st12" cx="107.1" cy="21.4" rx="6.6" ry="8.8" fill="none" stroke="#31352E" stroke-linejoin="round" stroke-miterlimit="10" stroke-width="6"/><path class="st11" d="M113.9 36c-2.8 1.2-5.9 1.6-9.1 1-8.5-1.6-14.2-9.9-12.5-18.4C93.9 10 102.5 3.4 111 5s13.6 10.5 12 19c-1.7 8.7-10.8 6.3-9-3 .7-3.3 1-5 1-5" fill="none" stroke="#31352E" stroke-linecap="round" stroke-linejoin="round" stroke-miterlimit="10" stroke-width="6"/></g><g><path class="st61" d="M26.9 12.6c-11.2 8-19.3 20.2-21.8 34.9-1.5 8.8 4.4 17.2 13.1 18.8 1.1.2 2.3.3 3.4.2 1.2 0 2.4-.2 3.6-.5l7.6-26.6c-1.6-1.7-3.5-3.1-5.8-4 2.5-3.6 5.8-6.9 9.3-9.5 3.6-2.4 7.8-4.4 12.1-5.4.1 2.4.7 4.7 1.8 6.8l27.5 2c.7-1 1.3-2 1.7-3.2.4-1 .7-2.1.9-3.3C81.8 14 75.9 5.6 67.2 4c-14.7-2.5-28.9.9-40.3 8.6z" fill="#53B8E0"/><path class="st62" d="M50.1 26.6c-.1 0-.2 0-.2.1l.3.6c-.1-.2-.1-.4-.1-.7z" fill="#78D3EF"/><path class="st62" d="M6.8 53.6C9.3 39 17.5 26.8 28.7 18.8 40 11 54.3 7.6 68.9 10.2c5.2.9 9.3 4.3 11.6 8.6-.6-7.2-5.9-13.4-13.3-14.7-14.6-2.7-28.9.8-40.2 8.5-11.2 8-19.3 20.2-21.8 34.9-.6 3.6 0 7.1 1.6 10.2-.3-1.4-.2-2.7 0-4.1z" fill="#78D3EF"/><path class="st11" d="M26.9 12.6c-11.2 8-19.3 20.2-21.8 34.9-1.5 8.8 4.4 17.2 13.1 18.8 1.1.2 2.3.3 3.4.2 1.2 0 2.4-.2 3.6-.5l7.6-26.6c-1.6-1.7-3.5-3.1-5.8-4 2.5-3.6 5.8-6.9 9.3-9.5 3.6-2.4 7.8-4.4 12.1-5.4.1 2.4.7 4.7 1.8 6.8l27.5 2c.7-1 1.3-2 1.7-3.2.4-1 .7-2.1.9-3.3C81.8 14 75.9 5.6 67.2 4c-14.7-2.5-28.9.9-40.3 8.6z" fill="none" stroke="#31352E" stroke-linecap="round" stroke-linejoin="round" stroke-miterlimit="10" stroke-width="6"/></g><path class="st11" fill="none" stroke="#31352E" stroke-linecap="round" stroke-linejoin="round" stroke-miterlimit="10" stroke-width="6" d="M20.4 80.2L5 84"/><path class="st11" fill="none" stroke="#31352E" stroke-linecap="round" stroke-linejoin="round" stroke-miterlimit="10" stroke-width="6" d="M23.3 91.8L15 94"/><metadata><rdf:RDF xmlns:rdf="http://www.w3.org/1999/02/22-rdf-syntax-ns#" xmlns:rdfs="http://www.w3.org/2000/01/rdf-schema#" xmlns:dc="http://purl.org/dc/elements/1.1/"><rdf:Description about="https://iconscout.com/legal#licenses" dc:title="contact,info,us,email" dc:description="contact,info,us,email" dc:publisher="Iconscout" dc:date="2017-08-28" dc:format="image/svg+xml" dc:language="en"><dc:creator><rdf:Bag><rdf:li>Josy Dom Alexis</rdf:li></rdf:Bag></dc:creator></rdf:Description></rdf:RDF></metadata></svg>