<?xml version="1.0" encoding="UTF-8" standalone="no"?>
<svg xmlns:dc="http://purl.org/dc/elements/1.1/" xmlns:cc="http://creativecommons.org/ns#" xmlns:rdf="http://www.w3.org/1999/02/22-rdf-syntax-ns#" xmlns:svg="http://www.w3.org/2000/svg" xmlns="http://www.w3.org/2000/svg" xmlns:sodipodi="http://sodipodi.sourceforge.net/DTD/sodipodi-0.dtd" xmlns:inkscape="http://www.inkscape.org/namespaces/inkscape" width="32px" height="32px" viewBox="0 0 32 32.000001" id="svg2" version="1.1" inkscape:version="0.91 r13725" sodipodi:docname="Social Media advertising digital Marketing branding announcement.svg">
  <defs id="defs4">
    <pattern y="0" x="0" height="6" width="6" patternUnits="userSpaceOnUse" id="EMFhbasepattern"/>
  </defs>
  <sodipodi:namedview id="base" pagecolor="#ffffff" bordercolor="#666666" borderopacity="1.0" inkscape:pageopacity="0.0" inkscape:pageshadow="2" inkscape:zoom="7.9195959" inkscape:cx="-28.42324" inkscape:cy="5.6376905" inkscape:document-units="px" inkscape:current-layer="text4123" showgrid="true" units="px" inkscape:snap-bbox="true" inkscape:bbox-paths="true" inkscape:bbox-nodes="true" inkscape:snap-bbox-edge-midpoints="true" inkscape:snap-bbox-midpoints="true" inkscape:snap-global="true" inkscape:window-width="1366" inkscape:window-height="715" inkscape:window-x="-8" inkscape:window-y="-8" inkscape:window-maximized="1">
    <inkscape:grid type="xygrid" id="grid3336"/>
  </sodipodi:namedview>
  
  <g inkscape:label="Layer 1" inkscape:groupmode="layer" id="layer1" transform="translate(0,-1020.3622)">
    <g style="font-style:normal;font-variant:normal;font-weight:bold;font-stretch:normal;font-size:7.16690445px;line-height:125%;font-family:'Bebas Neue Bold';-inkscape-font-specification:'Bebas Neue Bold';letter-spacing:0px;word-spacing:0px;fill:#373449;fill-opacity:1;stroke:none" id="text3973"/>
    <g style="font-style:normal;font-variant:normal;font-weight:bold;font-stretch:normal;font-size:7.16690445px;line-height:125%;font-family:'Bebas Neue Bold';-inkscape-font-specification:'Bebas Neue Bold';letter-spacing:0px;word-spacing:0px;fill:#373449;fill-opacity:1;stroke:none" id="text4123">
      <g transform="matrix(0.98518839,0,0,0.98508333,208.15982,-52.756571)" id="g5121">
        <path style="fill:none;fill-opacity:1;stroke:#373449;stroke-width:1.01508844;stroke-linecap:round;stroke-linejoin:round;stroke-opacity:1" d="m -210.77775,1116.4871 30,0 c 0,0.9493 -0.15042,1.5155 -1,2 l -28,0 c -1.08938,-0.4707 -0.99892,-1.1534 -1,-2 z" id="path3969" inkscape:connector-curvature="0" sodipodi:nodetypes="ccccc"/>
        <path id="path3995" style="fill:none;fill-opacity:1;stroke:#373449;stroke-width:1.01508844;stroke-opacity:1" d="m -185.46597,1098.2996 0.8125,0 c 0.554,0 1,0.446 1,1 l 0,16 c 0,0.554 -0.446,1 -1,1 l -22,0 c -0.554,0 -1,-0.446 -1,-1 l 0,-16 c 0,-0.554 0.446,-1 1,-1 l 1.375,0 1.375,0 1.375,0 1.375,0 1.375,0 2.47547,0" inkscape:connector-curvature="0" sodipodi:nodetypes="csssssssscccccc"/>
        <path id="path3997" style="fill:#ff5a67;fill-opacity:1;stroke:#373449;stroke-width:1.01508844;stroke-linecap:round;stroke-linejoin:round;stroke-opacity:1" d="m -185.6542,1101.1746 0,0.875 0,0.875 0,0.875 0,0.875 0,0.875 0,0.875 0,0.875 0,0.875 0,0.875 0,0.875 0,0.875 0,0.875 0,0.875 0,0.875 0,0.875 -20,0 0,-14 1.25,0 1.25,0 1.25,0 1.25,0 1.25,0 1.25,0" inkscape:connector-curvature="0" sodipodi:nodetypes="cccccccccccccccccccccccc"/>
        <g style="fill:#2bbda8;fill-opacity:1;stroke:#373449;stroke-width:1.01508844;stroke-opacity:1" transform="translate(1.0019999,0)" id="g3891">
          <rect style="fill:#2bbda8;fill-opacity:1;stroke:#373449;stroke-width:1.0150882;stroke-opacity:1" id="rect3125-2" width="1.8119649" height="11.96478" x="-188.47351" y="1093.1187" rx="0.90598243" ry="0.9059357"/>
          <path style="fill:#2bbda8;fill-opacity:1;stroke:#373449;stroke-width:1.0150882px;stroke-linecap:round;stroke-linejoin:round;stroke-opacity:1" d="m -188.46842,1094.2404 c -1.44199,1.445 -3.17188,1.6844 -5.42274,1.7829 -0.40455,0 -0.60239,0 -0.97948,0 l -2.23882,0 c -0.82687,0 -1.49254,0.3798 -1.49254,1.2084 l 0,3.739 c 0,0.8285 0.66567,1.1374 1.49254,1.1374 l 2.23882,0 c 0.35855,0 0.48758,0 0.93285,0 1.53973,0.026 4.03202,0.4135 5.46937,1.8538 z" id="path3127-4" inkscape:connector-curvature="0" sodipodi:nodetypes="ccssssssccc"/>
          <path sodipodi:type="arc" style="fill:#2bbda8;fill-opacity:1;stroke:#373449;stroke-width:1.35882211;stroke-linecap:round;stroke-linejoin:round;stroke-opacity:1" id="path3129-5" sodipodi:cx="25" sodipodi:cy="19" sodipodi:rx="3" sodipodi:ry="3" d="m 25,16 a 3,3 0 0 1 3,3 3,3 0 0 1 -3,3 l 0,-3 z" transform="matrix(0.74627322,0,0,0.74779861,-205.3237,1084.893)" sodipodi:start="4.712389" sodipodi:end="1.5707963"/>
          <path style="fill:#2bbda8;fill-opacity:1;stroke:#373449;stroke-width:1.0150882px;stroke-linecap:round;stroke-linejoin:round;stroke-opacity:1" d="m -183.82312,1096.8579 2.23882,-1.4957" id="path3131-5" inkscape:connector-curvature="0" sodipodi:nodetypes="cc"/>
          <path style="fill:#2bbda8;fill-opacity:1;stroke:#373449;stroke-width:1.0150882px;stroke-linecap:round;stroke-linejoin:round;stroke-opacity:1" d="m -183.07685,1099.1013 2.75188,0" id="path3133-1" inkscape:connector-curvature="0" sodipodi:nodetypes="cc"/>
          <path style="fill:#2bbda8;fill-opacity:1;stroke:#373449;stroke-width:1.0150882px;stroke-linecap:round;stroke-linejoin:round;stroke-opacity:1" d="m -183.37599,1101.6433 1.79169,1.1969" id="path3135-7" inkscape:connector-curvature="0" sodipodi:nodetypes="cc"/>
          <path style="fill:#2bbda8;fill-opacity:1;stroke:#373449;stroke-width:1.0150882;stroke-linecap:round;stroke-linejoin:round;stroke-opacity:1" d="m -196.9344,1102.1139 1.79079,0 0.0131,4.7483 -1.7846,0 z" id="path3137-1" inkscape:connector-curvature="0" sodipodi:nodetypes="ccccc"/>
          <path style="fill:#2bbda8;fill-opacity:1;stroke:#373449;stroke-width:1.0150882px;stroke-linecap:round;stroke-linejoin:round;stroke-opacity:1" d="m -194.12436,1096.0635 0,5.888" id="path3139-1" inkscape:connector-curvature="0" sodipodi:nodetypes="cc"/>
        </g>
      </g>
    </g>
  </g>

	
	
	<metadata>
		<rdf:RDF xmlns:rdf="http://www.w3.org/1999/02/22-rdf-syntax-ns#" xmlns:rdfs="http://www.w3.org/2000/01/rdf-schema#" xmlns:dc="http://purl.org/dc/elements/1.1/">
			<rdf:Description about="https://iconscout.com/legal#licenses" dc:title="Social, Media, Advertising, Digital, Marketing, Branding, Announcement" dc:description="Social, Media, Advertising, Digital, Marketing, Branding, Announcement" dc:publisher="Iconscout" dc:date="2016-12-14" dc:format="image/svg+xml" dc:language="en">
				<dc:creator>
					<rdf:Bag>
						<rdf:li>Chamestudio</rdf:li>
					</rdf:Bag>
				</dc:creator>
			</rdf:Description>
		</rdf:RDF>
    </metadata></svg>
