<?xml version="1.0" encoding="utf-8"?>
<!-- Generator: Adobe Illustrator 22.0.1, SVG Export Plug-In . SVG Version: 6.00 Build 0)  -->
<svg version="1.1"
	 id="svg2" inkscape:version="0.91 r13725" sodipodi:docname="Social Media advertising digital Marketing branding announcement.svg" xmlns:cc="http://creativecommons.org/ns#" xmlns:dc="http://purl.org/dc/elements/1.1/" xmlns:inkscape="http://www.inkscape.org/namespaces/inkscape" xmlns:rdf="http://www.w3.org/1999/02/22-rdf-syntax-ns#" xmlns:sodipodi="http://sodipodi.sourceforge.net/DTD/sodipodi-0.dtd" xmlns:svg="http://www.w3.org/2000/svg"
	 xmlns="http://www.w3.org/2000/svg" xmlns:xlink="http://www.w3.org/1999/xlink" x="0px" y="0px" viewBox="0 0 32 32"
	 style="enable-background:new 0 0 32 32;" xml:space="preserve">
<style type="text/css">
	.st0{fill:#FFFFFF;stroke:#373449;stroke-linecap:round;stroke-linejoin:round;}
	.st1{fill:#FFFFFF;stroke:#373449;}
</style>
<sodipodi:namedview  bordercolor="#666666" borderopacity="1.0" id="base" inkscape:bbox-nodes="true" inkscape:bbox-paths="true" inkscape:current-layer="text4123" inkscape:cx="-28.42324" inkscape:cy="5.6376905" inkscape:document-units="px" inkscape:pageopacity="0.0" inkscape:pageshadow="2" inkscape:snap-bbox="true" inkscape:snap-bbox-edge-midpoints="true" inkscape:snap-bbox-midpoints="true" inkscape:snap-global="true" inkscape:window-height="715" inkscape:window-maximized="1" inkscape:window-width="1366" inkscape:window-x="-8" inkscape:window-y="-8" inkscape:zoom="7.9195959" pagecolor="#ffffff" showgrid="true" units="px">
	<inkscape:grid  id="grid3336" type="xygrid"></inkscape:grid>
</sodipodi:namedview>
<g id="layer1" transform="translate(0,-1020.3622)" inkscape:groupmode="layer" inkscape:label="Layer 1">
	<g id="text3973">
	</g>
	<g id="text4123">
		<g id="g5121" transform="matrix(0.98518839,0,0,0.98508333,208.15982,-52.756571)">
			<path id="path3969" inkscape:connector-curvature="0" sodipodi:nodetypes="ccccc" class="st0" d="M-210.8,1116.5h30
				c0,0.9-0.2,1.5-1,2h-28C-210.9,1118-210.8,1117.3-210.8,1116.5z"/>
			<path id="path3995" inkscape:connector-curvature="0" sodipodi:nodetypes="csssssssscccccc" class="st1" d="M-185.5,1098.3h0.8
				c0.6,0,1,0.4,1,1v16c0,0.6-0.4,1-1,1h-22c-0.6,0-1-0.4-1-1v-16c0-0.6,0.4-1,1-1h1.4h1.4h1.4h1.4h1.4h2.5"/>
			<path id="path3997" inkscape:connector-curvature="0" sodipodi:nodetypes="cccccccccccccccccccccccc" class="st0" d="
				M-185.7,1101.2v0.9v0.9v0.9v0.9v0.9v0.9v0.9v0.9v0.9v0.9v0.9v0.9v0.9v0.9v0.9h-20v-14h1.2h1.2h1.2h1.2h1.2h1.2"/>
			<g id="g3891" transform="translate(1.0019999,0)">
				<path id="rect3125-2" class="st1" d="M-187.6,1093.1L-187.6,1093.1c0.5,0,0.9,0.4,0.9,0.9v10.2c0,0.5-0.4,0.9-0.9,0.9h0
					c-0.5,0-0.9-0.4-0.9-0.9V1094C-188.5,1093.5-188.1,1093.1-187.6,1093.1z"/>
				<path id="path3127-4" inkscape:connector-curvature="0" sodipodi:nodetypes="ccssssssccc" class="st0" d="M-188.5,1094.2
					c-1.4,1.4-3.2,1.7-5.4,1.8c-0.4,0-0.6,0-1,0h-2.2c-0.8,0-1.5,0.4-1.5,1.2v3.7c0,0.8,0.7,1.1,1.5,1.1h2.2c0.4,0,0.5,0,0.9,0
					c1.5,0,4,0.4,5.5,1.9V1094.2z"/>
				
					<path id="path3129-5" sodipodi:cx="25" sodipodi:cy="19" sodipodi:end="1.5707963" sodipodi:rx="3" sodipodi:ry="3" sodipodi:start="4.712389" sodipodi:type="arc" class="st0" d="
					M-186.7,1096.9c1.2,0,2.2,1,2.2,2.2c0,1.2-1,2.2-2.2,2.2v-2.2V1096.9z"/>
				<path id="path3131-5" inkscape:connector-curvature="0" sodipodi:nodetypes="cc" class="st0" d="M-183.8,1096.9l2.2-1.5"/>
				<path id="path3133-1" inkscape:connector-curvature="0" sodipodi:nodetypes="cc" class="st0" d="M-183.1,1099.1h2.8"/>
				<path id="path3135-7" inkscape:connector-curvature="0" sodipodi:nodetypes="cc" class="st0" d="M-183.4,1101.6l1.8,1.2"/>
				<path id="path3137-1" inkscape:connector-curvature="0" sodipodi:nodetypes="ccccc" class="st0" d="M-196.9,1102.1h1.8l0,4.7
					h-1.8L-196.9,1102.1z"/>
				<path id="path3139-1" inkscape:connector-curvature="0" sodipodi:nodetypes="cc" class="st0" d="M-194.1,1096.1v5.9"/>
			</g>
		</g>
	</g>
</g>
</svg>
