<?xml version="1.0" encoding="UTF-8" standalone="no"?>
<svg xmlns:sketch="http://www.bohemiancoding.com/sketch/ns" xmlns="http://www.w3.org/2000/svg" height="612px" width="572px" version="1.1" xmlns:xlink="http://www.w3.org/1999/xlink" viewBox="0 0 572 612"><!-- Generator: Sketch 3.3 (11970) - http://www.bohemiancoding.com/sketch -->
 <title>Send newsletters, 10x cheaper</title>
 <desc>Created with Sketch.</desc>
 <g id="Page-1" fill-rule="evenodd" sketch:type="MSPage" fill="none">
  <g id="Send-newsletters,-10x-cheaper" transform="translate(-2 -1)" sketch:type="MSArtboardGroup">
   <g sketch:type="MSLayerGroup" transform="translate(1.8654)">
    <path id="Shape" sketch:type="MSShapeGroup" fill="#fff" d="m292.83 503.96c-1.06 0-1.92-0.86-1.93-1.92 0-1.07 0.86-1.93 1.92-1.94 4.44-0.01 8.94-0.15 13.37-0.4 1.05-0.07 1.97 0.75 2.03 1.81 0.06 1.07-0.75 1.98-1.81 2.04-4.5 0.25-9.06 0.39-13.58 0.41zm-13.48-0.31h-0.09c-4.51-0.22-9.07-0.57-13.54-1.03-1.06-0.11-1.83-1.06-1.72-2.12s1.05-1.82 2.12-1.72c4.4 0.46 8.88 0.8 13.33 1.02 1.06 0.05 1.88 0.96 1.83 2.02-0.05 1.03-0.9 1.83-1.93 1.83zm40.38-1.23c-0.97 0-1.8-0.73-1.91-1.71-0.12-1.06 0.64-2.01 1.7-2.13 4.42-0.49 8.87-1.11 13.24-1.83 1.06-0.18 2.05 0.53 2.22 1.58s-0.53 2.04-1.58 2.22c-4.45 0.74-8.97 1.36-13.45 1.86l-0.22 0.01zm-67.18-1.54l-0.3-0.02c-4.46-0.71-8.95-1.55-13.35-2.49-1.04-0.23-1.71-1.25-1.48-2.29 0.22-1.04 1.24-1.7 2.28-1.48 4.34 0.93 8.76 1.75 13.15 2.45 1.05 0.17 1.77 1.15 1.6 2.2-0.15 0.95-0.97 1.63-1.9 1.63zm93.76-2.88c-0.89 0-1.68-0.61-1.88-1.5-0.23-1.04 0.42-2.07 1.46-2.3 4.34-0.97 8.7-2.07 12.97-3.26 1.03-0.29 2.09 0.31 2.38 1.33 0.28 1.03-0.31 2.09-1.34 2.38-4.33 1.21-8.77 2.33-13.17 3.31l-0.42 0.04zm-120.1-2.77l-0.51-0.07c-4.35-1.18-8.72-2.5-13.01-3.92-1.01-0.34-1.55-1.43-1.22-2.44 0.34-1.01 1.43-1.55 2.44-1.22 4.22 1.4 8.53 2.7 12.8 3.86 1.03 0.28 1.63 1.34 1.35 2.37-0.23 0.85-1.01 1.42-1.85 1.42zm146.04-4.5c-0.8 0-1.55-0.51-1.82-1.31-0.34-1.01 0.2-2.1 1.2-2.44 4.21-1.44 8.43-3 12.54-4.65 0.98-0.4 2.11 0.08 2.51 1.07 0.4 0.98-0.08 2.1-1.07 2.5-4.18 1.68-8.46 3.27-12.73 4.73-0.21 0.07-0.42 0.1-0.63 0.1zm-171.65-3.99c-0.23 0-0.47-0.05-0.71-0.14-4.19-1.65-8.41-3.44-12.52-5.32-0.96-0.44-1.39-1.59-0.95-2.55 0.45-0.97 1.58-1.4 2.56-0.95 4.04 1.85 8.19 3.61 12.33 5.24 0.98 0.39 1.47 1.51 1.08 2.49-0.3 0.76-1.02 1.23-1.79 1.23zm196.63-6.05c-0.72 0-1.42-0.42-1.75-1.12-0.44-0.96-0.03-2.11 0.94-2.56 4.01-1.87 8.03-3.88 11.94-5.97 0.94-0.5 2.11-0.15 2.61 0.79s0.14 2.11-0.79 2.61c-3.98 2.12-8.06 4.16-12.13 6.06-0.27 0.13-0.54 0.19-0.82 0.19zm-221.17-5.19c-0.3 0-0.61-0.07-0.89-0.22-4-2.1-8-4.33-11.87-6.64-0.91-0.55-1.21-1.73-0.67-2.64 0.55-0.92 1.73-1.21 2.64-0.67 3.82 2.27 7.75 4.47 11.69 6.54 0.94 0.5 1.3 1.66 0.8 2.6-0.34 0.66-1.01 1.03-1.7 1.03zm244.91-7.5c-0.65 0-1.29-0.33-1.65-0.93-0.55-0.91-0.26-2.09 0.65-2.64 3.79-2.3 7.57-4.73 11.23-7.23 0.88-0.6 2.08-0.38 2.68 0.5s0.37 2.08-0.5 2.68c-3.72 2.54-7.56 5.01-11.42 7.34-0.31 0.19-0.65 0.28-0.99 0.28zm-268.08-6.31c-0.37 0-0.74-0.11-1.07-0.33-3.74-2.51-7.47-5.17-11.07-7.88-0.85-0.64-1.02-1.85-0.38-2.7s1.84-1.02 2.7-0.38c3.55 2.68 7.22 5.29 10.9 7.76 0.88 0.6 1.11 1.79 0.52 2.68-0.37 0.55-0.98 0.85-1.6 0.85zm290.32-8.86c-0.58 0-1.15-0.26-1.53-0.76-0.65-0.84-0.48-2.05 0.36-2.7 3.52-2.69 7.02-5.52 10.4-8.4 0.81-0.69 2.02-0.6 2.72 0.21 0.69 0.81 0.59 2.03-0.22 2.72-3.43 2.93-6.98 5.8-10.56 8.53-0.35 0.27-0.76 0.4-1.17 0.4zm-311.85-7.37c-0.44 0-0.88-0.15-1.25-0.45-3.45-2.9-6.86-5.94-10.15-9.02-0.78-0.73-0.81-1.95-0.09-2.72 0.73-0.78 1.95-0.82 2.73-0.09 3.23 3.03 6.59 6.02 10 8.88 0.81 0.69 0.92 1.9 0.23 2.72-0.38 0.45-0.93 0.68-1.47 0.68zm332.34-10.12c-0.51 0-1.02-0.2-1.39-0.6-0.74-0.77-0.71-1.99 0.07-2.72 3.21-3.06 6.39-6.25 9.44-9.47 0.73-0.78 1.95-0.81 2.72-0.08 0.78 0.73 0.81 1.95 0.08 2.72-3.1 3.28-6.32 6.52-9.59 9.62-0.37 0.35-0.85 0.53-1.33 0.53zm-352.01-8.31c-0.5 0-1.01-0.2-1.39-0.6-3.13-3.26-6.2-6.65-9.12-10.05-0.7-0.81-0.61-2.03 0.2-2.72 0.8-0.69 2.02-0.6 2.72 0.21 2.88 3.35 5.9 6.68 8.98 9.9 0.74 0.77 0.71 1.99-0.05 2.72-0.38 0.36-0.86 0.54-1.34 0.54zm370.52-11.28c-0.44 0-0.88-0.15-1.24-0.46-0.82-0.69-0.91-1.9-0.23-2.71 2.87-3.38 5.69-6.89 8.38-10.44 0.64-0.84 1.85-1.01 2.7-0.37 0.85 0.65 1.01 1.86 0.37 2.7-2.74 3.61-5.6 7.17-8.51 10.6-0.38 0.45-0.92 0.68-1.47 0.68zm-388.08-9.15c-0.58 0-1.148-0.26-1.527-0.75-2.754-3.58-5.442-7.27-7.994-10.97-0.602-0.88-0.383-2.08 0.495-2.68 0.88-0.61 2.075-0.38 2.678 0.49 2.513 3.65 5.161 7.29 7.872 10.81 0.649 0.84 0.492 2.05-0.351 2.7-0.35 0.27-0.763 0.4-1.173 0.4zm404.38-12.32c-0.37 0-0.75-0.11-1.08-0.33-0.88-0.6-1.11-1.8-0.51-2.68 2.49-3.68 4.92-7.47 7.2-11.28 0.55-0.91 1.74-1.21 2.65-0.66s1.21 1.73 0.66 2.65c-2.33 3.86-4.79 7.71-7.32 11.45-0.37 0.55-0.98 0.85-1.6 0.85zm-419.65-9.87c-0.647 0-1.281-0.32-1.643-0.92-2.35-3.84-4.625-7.8-6.761-11.76-0.504-0.94-0.157-2.11 0.78-2.61 0.936-0.51 2.105-0.16 2.61 0.78 2.104 3.9 4.342 7.8 6.656 11.58 0.556 0.91 0.269 2.1-0.638 2.65-0.315 0.19-0.659 0.28-1.004 0.28zm433.55-13.25c-0.3 0-0.61-0.07-0.9-0.22-0.94-0.5-1.29-1.67-0.8-2.61 2.08-3.92 4.08-7.95 5.95-12 0.45-0.96 1.6-1.38 2.56-0.94 0.96 0.45 1.39 1.6 0.94 2.56-1.9 4.1-3.93 8.2-6.04 12.19-0.35 0.65-1.02 1.02-1.71 1.02zm-446.32-10.43c-0.723 0-1.415-0.41-1.743-1.11-1.917-4.06-3.747-8.24-5.446-12.41-0.401-0.99 0.071-2.11 1.057-2.51 0.976-0.41 2.108 0.07 2.511 1.05 1.672 4.11 3.477 8.23 5.362 12.23 0.452 0.96 0.041 2.11-0.922 2.56-0.265 0.13-0.544 0.19-0.819 0.19zm457.65-14.07c-0.24 0-0.48-0.04-0.71-0.13-0.99-0.39-1.47-1.51-1.08-2.5 1.65-4.16 3.2-8.39 4.61-12.59 0.34-1 1.43-1.55 2.44-1.21s1.55 1.43 1.21 2.44c-1.43 4.26-3 8.56-4.68 12.78-0.3 0.75-1.02 1.21-1.79 1.21zm-467.79-10.87c-0.798 0-1.544-0.5-1.821-1.3-1.47-4.27-2.841-8.63-4.073-12.96-0.291-1.02 0.304-2.09 1.326-2.38 1.027-0.29 2.088 0.3 2.381 1.32 1.212 4.27 2.562 8.56 4.01 12.76 0.346 1.01-0.19 2.11-1.194 2.45-0.207 0.07-0.419 0.11-0.629 0.11zm476.38-14.69l-0.51-0.08c-1.03-0.28-1.63-1.34-1.35-2.36 1.19-4.3 2.27-8.67 3.21-12.99 0.23-1.04 1.26-1.7 2.3-1.47 1.03 0.23 1.69 1.26 1.46 2.3-0.95 4.38-2.05 8.82-3.25 13.18-0.24 0.86-1.01 1.42-1.86 1.42zm-483.76-11.23c-0.88 0-1.676-0.61-1.878-1.5-1-4.41-1.886-8.89-2.639-13.33-0.177-1.04 0.525-2.04 1.576-2.22 1.051-0.17 2.043 0.53 2.222 1.58 0.741 4.36 1.615 8.78 2.599 13.12 0.234 1.04-0.416 2.07-1.455 2.3l-0.425 0.05zm489.52-15.1l-0.32-0.03c-1.04-0.17-1.76-1.16-1.59-2.2 0.71-4.39 1.31-8.85 1.79-13.26 0.11-1.06 1.04-1.84 2.12-1.71 1.05 0.11 1.82 1.06 1.71 2.12-0.48 4.48-1.09 9.01-1.82 13.46-0.15 0.95-0.97 1.62-1.89 1.62zm-494.04-11.46c-0.968 0-1.799-0.73-1.913-1.71-0.515-4.48-0.914-9.03-1.187-13.53-0.063-1.06 0.747-1.97 1.809-2.04 1.02-0.03 1.975 0.75 2.038 1.81 0.267 4.43 0.66 8.91 1.167 13.32 0.122 1.06-0.635 2.01-1.692 2.14l-0.222 0.01zm496.91-15.33l-0.1-0.01c-1.07-0.05-1.88-0.96-1.82-2.02 0.23-4.42 0.35-8.92 0.35-13.37 0-1.27-0.01-2.53-0.03-3.79-0.02-1.06 0.83-1.94 1.9-1.95 1.14 0.01 1.94 0.83 1.95 1.89 0.02 1.28 0.03 2.57 0.03 3.85 0 4.52-0.12 9.09-0.36 13.58-0.05 1.02-0.9 1.82-1.92 1.82zm-498.54-11.57c-1.057 0-1.918-0.85-1.926-1.91l-0.006-1.92c0-3.86 0.091-7.78 0.266-11.66 0.049-1.06 0.988-1.88 2.013-1.84 1.063 0.05 1.885 0.95 1.836 2.02-0.175 3.81-0.262 7.68-0.262 11.48l0.006 1.89c0.006 1.07-0.851 1.93-1.914 1.94h-0.013zm498.3-19.19c-1 0-1.85-0.78-1.92-1.79-0.3-4.43-0.73-8.91-1.27-13.32-0.13-1.05 0.62-2.01 1.68-2.14 1.06-0.14 2.02 0.62 2.14 1.68 0.56 4.47 0.99 9.02 1.29 13.52 0.08 1.06-0.73 1.98-1.79 2.05h-0.13zm-497.07-7.73h-0.191c-1.059-0.11-1.833-1.05-1.727-2.11 0.448-4.49 1.022-9.02 1.711-13.48 0.163-1.05 1.14-1.78 2.197-1.6 1.051 0.16 1.772 1.14 1.609 2.19-0.676 4.39-1.242 8.85-1.682 13.27-0.1 0.99-0.937 1.73-1.917 1.73zm493.79-19.01c-0.91 0-1.72-0.66-1.89-1.59-0.78-4.37-1.69-8.78-2.7-13.1-0.25-1.03 0.4-2.07 1.43-2.31s2.07 0.4 2.32 1.43c1.03 4.39 1.95 8.87 2.74 13.3 0.19 1.05-0.51 2.05-1.56 2.24l-0.34 0.03zm-489.68-7.61l-0.397-0.05c-1.043-0.22-1.708-1.24-1.491-2.28 0.929-4.41 1.992-8.85 3.159-13.21 0.275-1.02 1.332-1.64 2.36-1.36 1.027 0.28 1.638 1.33 1.363 2.36-1.151 4.29-2.198 8.66-3.11 13-0.191 0.91-0.994 1.54-1.884 1.54zm483.52-18.62c-0.83 0-1.6-0.55-1.85-1.39-1.24-4.23-2.62-8.52-4.1-12.73-0.36-1 0.17-2.1 1.17-2.45 1.01-0.35 2.11 0.17 2.46 1.17 1.51 4.28 2.91 8.63 4.17 12.93 0.3 1.02-0.29 2.09-1.31 2.39l-0.54 0.08zm-476.54-7.41c-0.199 0-0.399-0.03-0.598-0.1-1.012-0.33-1.564-1.42-1.234-2.43 1.409-4.3 2.953-8.61 4.586-12.81 0.389-1 1.511-1.48 2.495-1.1 0.991 0.39 1.482 1.5 1.097 2.49-1.611 4.14-3.13 8.39-4.515 12.62-0.266 0.81-1.02 1.33-1.831 1.33zm467.59-17.97c-0.76 0-1.48-0.45-1.78-1.19-1.7-4.09-3.54-8.19-5.46-12.19-0.46-0.95-0.06-2.11 0.9-2.57 0.97-0.46 2.11-0.05 2.57 0.91 1.96 4.06 3.82 8.22 5.54 12.37 0.41 0.98-0.05 2.11-1.04 2.52-0.24 0.1-0.49 0.15-0.73 0.15zm-457.81-7.19c-0.265 0-0.536-0.06-0.794-0.18-0.97-0.44-1.399-1.58-0.959-2.55 1.861-4.1 3.863-8.22 5.948-12.23 0.489-0.94 1.654-1.31 2.597-0.82s1.311 1.65 0.821 2.6c-2.053 3.95-4.025 8-5.857 12.04-0.322 0.71-1.023 1.14-1.756 1.14zm446.15-17.06c-0.68 0-1.34-0.36-1.69-1-2.13-3.89-4.4-7.77-6.74-11.53-0.56-0.91-0.29-2.09 0.62-2.65 0.9-0.57 2.09-0.29 2.65 0.61 2.38 3.83 4.68 7.77 6.85 11.71 0.51 0.94 0.17 2.11-0.76 2.62-0.3 0.16-0.61 0.24-0.93 0.24zm-433.7-6.88c-0.331 0-0.67-0.09-0.979-0.27-0.915-0.54-1.218-1.72-0.678-2.64 2.287-3.87 4.72-7.74 7.234-11.51 0.59-0.89 1.784-1.13 2.671-0.54 0.884 0.59 1.125 1.79 0.534 2.67-2.476 3.72-4.869 7.53-7.122 11.34-0.36 0.61-1.002 0.95-1.66 0.95zm419.48-15.99c-0.6 0-1.2-0.28-1.58-0.82-2.54-3.64-5.21-7.25-7.94-10.74-0.66-0.841-0.51-2.053 0.33-2.709 0.84-0.653 2.05-0.505 2.7 0.33 2.77 3.549 5.49 7.219 8.07 10.919 0.61 0.87 0.4 2.07-0.47 2.68-0.34 0.23-0.72 0.34-1.11 0.34zm-404.51-6.45c-0.401 0-0.807-0.13-1.153-0.39-0.851-0.63-1.026-1.84-0.389-2.69 2.703-3.617 5.536-7.205 8.425-10.665 0.679-0.813 1.891-0.929 2.711-0.244 0.82 0.682 0.93 1.898 0.24 2.714-2.839 3.407-5.631 6.935-8.29 10.495-0.377 0.51-0.96 0.78-1.544 0.78zm387.92-14.759c-0.54 0-1.07-0.222-1.45-0.66-2.93-3.352-5.98-6.662-9.06-9.835-0.75-0.761-0.73-1.983 0.03-2.725 0.76-0.739 1.98-0.722 2.73 0.039 3.13 3.222 6.23 6.582 9.2 9.987 0.7 0.803 0.62 2.019-0.18 2.719-0.37 0.318-0.82 0.475-1.27 0.475zm-370.65-5.939c-0.47 0-0.94-0.171-1.31-0.515-0.78-0.725-0.82-1.943-0.1-2.723 3.06-3.287 6.26-6.547 9.52-9.69 0.76-0.739 1.98-0.719 2.72 0.049 0.74 0.764 0.72 1.984-0.04 2.723-3.21 3.095-6.36 6.305-9.38 9.543-0.38 0.407-0.89 0.613-1.41 0.613zm351.87-13.382c-0.47 0-0.94-0.169-1.31-0.511-3.26-3.012-6.65-5.977-10.07-8.81-0.82-0.68-0.93-1.894-0.25-2.713 0.67-0.815 1.89-0.933 2.71-0.255 3.47 2.878 6.91 5.888 10.22 8.949 0.79 0.721 0.83 1.941 0.11 2.721-0.38 0.411-0.89 0.619-1.41 0.619zm-332.47-5.33c-0.54 0-1.08-0.224-1.46-0.664-0.69-0.804-0.61-2.02 0.2-2.716 3.4-2.949 6.93-5.847 10.49-8.611 0.85-0.651 2.05-0.499 2.71 0.34 0.65 0.839 0.5 2.051-0.34 2.703-3.51 2.723-6.99 5.574-10.34 8.478-0.37 0.316-0.82 0.47-1.26 0.47zm311.71-11.873c-0.4 0-0.81-0.122-1.15-0.378-3.57-2.65-7.26-5.232-10.96-7.68-0.89-0.587-1.13-1.782-0.55-2.668 0.59-0.888 1.79-1.132 2.67-0.546 3.76 2.485 7.51 5.11 11.13 7.8 0.86 0.633 1.04 1.841 0.41 2.694-0.38 0.509-0.97 0.778-1.55 0.778zm-290.44-4.641c-0.61 0-1.21-0.291-1.58-0.829-0.61-0.874-0.39-2.075 0.48-2.682 3.72-2.574 7.54-5.073 11.36-7.429 0.91-0.556 2.09-0.275 2.65 0.631 0.56 0.904 0.27 2.092-0.63 2.65-3.76 2.319-7.52 4.779-11.18 7.315-0.33 0.232-0.72 0.344-1.1 0.344zm267.94-10.232c-0.33 0-0.67-0.083-0.98-0.264-3.83-2.249-7.78-4.422-11.73-6.456-0.94-0.487-1.31-1.648-0.83-2.593 0.49-0.947 1.65-1.319 2.6-0.831 4.01 2.065 8.02 4.271 11.92 6.558 0.91 0.538 1.22 1.717 0.68 2.635-0.36 0.611-1 0.951-1.66 0.951zm-245.02-3.895c-0.68 0-1.35-0.363-1.69-1.004-0.51-0.935-0.17-2.106 0.77-2.613 3.97-2.161 8.03-4.234 12.08-6.159 0.97-0.46 2.11-0.049 2.57 0.912 0.46 0.96 0.05 2.11-0.91 2.567-3.99 1.896-7.99 3.934-11.9 6.062-0.29 0.159-0.61 0.235-0.92 0.235zm221.03-8.466c-0.26 0-0.53-0.053-0.78-0.169-4.06-1.819-8.22-3.55-12.37-5.147-1-0.383-1.49-1.497-1.11-2.49 0.38-0.994 1.49-1.489 2.49-1.106 4.22 1.623 8.45 3.38 12.56 5.227 0.97 0.436 1.41 1.577 0.97 2.546-0.32 0.715-1.02 1.139-1.76 1.139zm-196.74-3.094c-0.76 0-1.48-0.45-1.78-1.195-0.41-0.984 0.06-2.11 1.05-2.515 4.17-1.715 8.44-3.336 12.7-4.819 1-0.352 2.1 0.179 2.45 1.183 0.35 1.006-0.18 2.104-1.19 2.454-4.18 1.461-8.39 3.057-12.5 4.745-0.24 0.1-0.49 0.147-0.73 0.147zm171.55-6.596c-0.2 0-0.4-0.031-0.6-0.094-4.23-1.366-8.54-2.633-12.83-3.766-1.03-0.27-1.64-1.323-1.37-2.352 0.27-1.0302 1.33-1.6392 2.35-1.3724 4.36 1.1504 8.74 2.4354 13.04 3.8244 1.01 0.328 1.56 1.414 1.24 2.426-0.27 0.814-1.02 1.334-1.83 1.334zm-146.11-2.277c-0.83 0-1.6-0.55-1.85-1.393-0.29-1.022 0.3-2.09 1.32-2.385 4.33-1.2504 8.76-2.399 13.15-3.4111 1.04-0.2383 2.06 0.4073 2.31 1.4439 0.24 1.0362-0.41 2.0712-1.45 2.3092-4.32 0.998-8.67 2.128-12.94 3.358l-0.54 0.078zm120.05-4.601l-0.39-0.04c-4.35-0.8985-8.78-1.6887-13.16-2.3486-1.05-0.1588-1.78-1.1404-1.62-2.1933 0.16-1.0509 1.13-1.784 2.19-1.617 4.45 0.67 8.95 1.4744 13.37 2.3868 1.04 0.2138 1.71 1.2341 1.5 2.2748-0.19 0.9104-0.99 1.5373-1.89 1.5373zm-93.79-1.4558c-0.92 0-1.73-0.6599-1.9-1.5946-0.18-1.0489 0.52-2.0468 1.57-2.228 4.44-0.7719 8.96-1.4337 13.44-1.9673 1.04-0.1161 2.01 0.6293 2.14 1.6862 0.12 1.057-0.63 2.0142-1.69 2.1405-4.41 0.5254-8.86 1.1771-13.23 1.9347l-0.33 0.0285zm67.15-2.5579l-0.19-0.0082c-4.41-0.4236-8.89-0.7311-13.34-0.9184-1.06-0.0428-1.89-0.9409-1.84-2.004 0.04-1.0631 0.99-1.9083 2-1.8431 4.51 0.1874 9.07 0.501 13.55 0.9307 1.06 0.1018 1.84 1.0427 1.73 2.1017-0.09 0.9959-0.93 1.7413-1.91 1.7413zm-40.4-0.6212c-1 0-1.85-0.782-1.92-1.8023-0.07-1.0631 0.74-1.9775 1.8-2.0467 4.49-0.2892 9.05-0.4623 13.57-0.5132h0.02c1.06 0 1.92 0.8472 1.93 1.9041 0.01 1.0631-0.84 1.9347-1.91 1.947-4.44 0.0509-8.94 0.2199-13.36 0.5071l-0.13 0.004z"/>
    <g id="Send-Button" sketch:type="MSShapeGroup" transform="translate(217.91 417.49)">
     <path id="Shape" fill="#fff" d="m108.79 155.07c-0.71 0-1.39-0.39-1.73-1.07l-10.799-21.9c-0.47-0.96-0.077-2.11 0.876-2.58 0.947-0.47 2.108-0.08 2.58 0.87l10.803 21.9c0.47 0.96 0.08 2.11-0.88 2.58-0.27 0.14-0.56 0.2-0.85 0.2"/>
     <path id="Shape" fill="#fff" d="m72.566 157.66c-1.065 0-1.924-0.86-1.928-1.92l-0.002-22.68c0-1.06 0.861-1.92 1.926-1.92 1.063 0 1.925 0.86 1.927 1.92l0.004 22.68c0 1.06-0.864 1.92-1.927 1.92"/>
     <path id="Shape" fill="#fff" d="m36.336 155.07c-0.287 0-0.576-0.06-0.849-0.2-0.955-0.47-1.346-1.62-0.878-2.58l10.798-21.9c0.47-0.96 1.631-1.35 2.58-0.88 0.953 0.47 1.346 1.63 0.876 2.58l-10.798 21.91c-0.336 0.68-1.02 1.07-1.729 1.07"/>
     <path id="Shape" fill="#FD611F" d="m144.8 89.96c0 8.69-7.04 15.73-15.73 15.73h-113.01c-8.6897 0-15.732-7.04-15.732-15.73l-0.00012-20.544c0-8.69 7.0424-15.733 15.734-15.733h113.01c8.69 0 15.73 7.043 15.73 15.733v20.544"/>
     <path id="Shape" fill="#C53814" d="m0.32788 78.083v11.877c0 8.69 7.0424 15.73 15.734 15.73h113.01c8.69 0 15.73-7.04 15.73-15.73v-11.877h-144.47"/>
     <path id="Shape" fill="#C53814" d="m117.59 78.201c0 1.422-0.24 2.731-0.73 3.933-0.49 1.199-1.18 2.238-2.07 3.114-0.89 0.875-1.96 1.56-3.22 2.051-1.25 0.488-2.64 0.735-4.17 0.735h-7.632v-19.649h7.632c1.53 0 2.92 0.249 4.17 0.743 1.26 0.495 2.33 1.178 3.22 2.049 0.89 0.872 1.58 1.908 2.07 3.108s0.73 2.507 0.73 3.916zm-4.66 0c0-0.969-0.13-1.845-0.38-2.627s-0.61-1.446-1.09-1.99c-0.46-0.543-1.04-0.961-1.72-1.252-0.69-0.293-1.47-0.44-2.34-0.44h-3.05v12.635h3.05c0.87 0 1.65-0.147 2.34-0.438 0.68-0.293 1.26-0.711 1.72-1.255 0.48-0.543 0.84-1.207 1.09-1.989s0.38-1.662 0.38-2.644z"/>
     <path id="Shape" fill="#C53814" d="m76.888 68.414l0.364 0.101 0.308 0.208 0.34 0.365 9.329 11.797c-0.036-0.376-0.063-0.743-0.083-1.097-0.014-0.357-0.027-0.691-0.027-1.004v-10.399h4.02v19.649h-2.37c-0.354 0-0.652-0.055-0.894-0.163-0.245-0.108-0.477-0.306-0.697-0.593l-9.268-11.704c0.029 0.34 0.053 0.676 0.067 1.004 0.021 0.328 0.029 0.636 0.029 0.925v10.531h-4.02v-19.649h2.401c0.199 0 0.364 0.01 0.501 0.029"/>
     <path id="Shape" fill="#C53814" d="m66.006 68.385v3.507h-8.062v4.584h6.173v3.373h-6.173v4.678h8.062v3.507h-12.649v-19.649h12.649"/>
     <path id="Shape" fill="#C53814" d="m44.299 72.379c-0.137 0.214-0.279 0.377-0.426 0.485-0.15 0.107-0.338 0.16-0.576 0.16-0.208 0-0.428-0.065-0.664-0.195-0.24-0.13-0.509-0.277-0.811-0.438-0.299-0.163-0.643-0.307-1.03-0.438-0.387-0.13-0.829-0.197-1.32-0.197-0.855 0-1.49 0.183-1.912 0.547-0.417 0.365-0.623 0.856-0.623 1.477 0 0.395 0.122 0.723 0.375 0.984 0.252 0.26 0.582 0.484 0.993 0.674 0.406 0.189 0.876 0.362 1.399 0.519 0.528 0.157 1.066 0.334 1.613 0.527 0.548 0.192 1.084 0.42 1.611 0.681 0.528 0.26 0.992 0.592 1.406 0.998 0.405 0.403 0.737 0.896 0.987 1.476 0.253 0.581 0.375 1.279 0.375 2.096 0 0.91-0.153 1.759-0.468 2.549-0.316 0.791-0.772 1.481-1.371 2.07-0.597 0.588-1.334 1.052-2.212 1.388-0.875 0.339-1.869 0.506-2.983 0.506-0.611 0-1.234-0.064-1.87-0.188-0.631-0.126-1.244-0.303-1.839-0.533-0.594-0.228-1.15-0.501-1.67-0.815-0.523-0.316-0.979-0.666-1.362-1.053l1.346-2.13 0.417-0.391c0.182-0.1 0.373-0.149 0.579-0.149 0.273 0 0.544 0.086 0.819 0.257 0.272 0.169 0.582 0.36 0.928 0.566 0.346 0.208 0.746 0.397 1.194 0.566 0.45 0.171 0.981 0.257 1.59 0.257 0.827 0 1.473-0.182 1.931-0.546 0.458-0.365 0.688-0.941 0.688-1.733 0-0.458-0.13-0.831-0.381-1.118-0.252-0.289-0.58-0.528-0.989-0.715-0.41-0.189-0.874-0.356-1.395-0.501-0.524-0.143-1.057-0.303-1.607-0.479-0.546-0.175-1.08-0.389-1.603-0.647-0.523-0.255-0.986-0.591-1.395-1.01-0.409-0.418-0.741-0.939-0.99-1.564-0.252-0.626-0.381-1.395-0.381-2.312 0-0.739 0.151-1.458 0.448-2.159 0.294-0.7 0.729-1.325 1.306-1.873 0.576-0.548 1.283-0.988 2.118-1.316 0.835-0.326 1.794-0.491 2.871-0.491 0.601 0 1.188 0.047 1.762 0.143 0.57 0.092 1.114 0.232 1.625 0.415 0.511 0.186 0.988 0.406 1.436 0.662 0.444 0.257 0.843 0.546 1.193 0.87l-1.132 2.118"/>
     <path id="Shape" fill="#fff" d="m118.56 79.806c0 1.422-0.25 2.731-0.73 3.933-0.5 1.199-1.19 2.238-2.07 3.116-0.9 0.873-1.97 1.558-3.22 2.046-1.26 0.491-2.65 0.735-4.18 0.735h-7.63v-19.646h7.63c1.53 0 2.92 0.248 4.18 0.741 1.25 0.497 2.32 1.179 3.22 2.051 0.88 0.872 1.57 1.908 2.07 3.108 0.48 1.199 0.73 2.507 0.73 3.916zm-4.67 0c0-0.969-0.13-1.847-0.38-2.629-0.25-0.78-0.61-1.444-1.08-1.988s-1.05-0.963-1.73-1.254c-0.69-0.292-1.46-0.438-2.34-0.438h-3.04v12.635h3.04c0.88 0 1.65-0.147 2.34-0.438 0.68-0.294 1.26-0.711 1.73-1.255s0.83-1.207 1.08-1.989c0.25-0.783 0.38-1.662 0.38-2.644z"/>
     <path id="Shape" fill="#fff" d="m77.851 70.018l0.365 0.102 0.309 0.208 0.338 0.365 9.33 11.797c-0.039-0.377-0.066-0.743-0.082-1.097-0.016-0.357-0.026-0.691-0.026-1.004v-10.399h4.018v19.646h-2.373c-0.352 0-0.649-0.052-0.89-0.16-0.244-0.108-0.478-0.306-0.7-0.593l-9.265-11.706c0.029 0.342 0.051 0.676 0.068 1.006 0.016 0.328 0.024 0.635 0.024 0.925v10.528h-4.016v-19.646h2.399c0.2 0 0.365 0.01 0.501 0.028"/>
     <path id="Shape" fill="#fff" d="m66.97 69.99v3.507h-8.063v4.584h6.175v3.371h-6.175v4.68h8.063v3.504h-12.649v-19.646h12.649"/>
     <path id="Shape" fill="#fff" d="m45.262 73.982c-0.136 0.215-0.279 0.378-0.425 0.484-0.151 0.11-0.338 0.163-0.577 0.163-0.205 0-0.427-0.065-0.666-0.195-0.236-0.131-0.507-0.277-0.808-0.438-0.302-0.163-0.644-0.308-1.031-0.438s-0.827-0.198-1.321-0.198c-0.854 0-1.489 0.184-1.911 0.548-0.417 0.365-0.625 0.856-0.625 1.477 0 0.395 0.124 0.723 0.377 0.983 0.252 0.261 0.582 0.485 0.992 0.674 0.407 0.19 0.877 0.363 1.401 0.52 0.525 0.157 1.065 0.332 1.615 0.525 0.544 0.194 1.083 0.422 1.609 0.682 0.527 0.261 0.993 0.593 1.403 0.996 0.405 0.406 0.739 0.898 0.99 1.479 0.252 0.578 0.376 1.279 0.376 2.095 0 0.909-0.154 1.758-0.47 2.55-0.318 0.79-0.772 1.481-1.369 2.069-0.598 0.589-1.338 1.051-2.213 1.389-0.876 0.336-1.87 0.505-2.984 0.505-0.613 0-1.232-0.063-1.869-0.187-0.632-0.126-1.245-0.305-1.839-0.534-0.595-0.23-1.153-0.501-1.672-0.816-0.522-0.314-0.978-0.664-1.363-1.051l1.35-2.13 0.416-0.391c0.181-0.1 0.372-0.149 0.58-0.149 0.271 0 0.54 0.086 0.815 0.257s0.582 0.358 0.928 0.566c0.349 0.207 0.748 0.395 1.194 0.566 0.452 0.171 0.984 0.257 1.59 0.257 0.831 0 1.473-0.184 1.933-0.546 0.458-0.365 0.688-0.943 0.688-1.733 0-0.461-0.128-0.831-0.38-1.118-0.253-0.29-0.579-0.528-0.99-0.715-0.41-0.192-0.872-0.357-1.395-0.501-0.524-0.143-1.057-0.302-1.607-0.479-0.544-0.175-1.079-0.391-1.603-0.647-0.523-0.255-0.985-0.593-1.397-1.011-0.409-0.417-0.741-0.938-0.988-1.564-0.252-0.625-0.378-1.395-0.378-2.311 0-0.737 0.148-1.458 0.446-2.159 0.293-0.7 0.731-1.326 1.305-1.873 0.576-0.55 1.283-0.988 2.118-1.316s1.796-0.491 2.872-0.491c0.6 0 1.187 0.047 1.759 0.141 0.572 0.093 1.114 0.234 1.625 0.417 0.511 0.185 0.992 0.405 1.438 0.66 0.444 0.259 0.841 0.548 1.191 0.872l-1.13 2.116"/>
     <path id="Shape" fill="#fff" d="m97.988 30.057c-0.285 0-0.576-0.065-0.849-0.199-0.955-0.471-1.346-1.625-0.876-2.581l10.797-21.898c0.47-0.9536 1.63-1.3446 2.58-0.8762 0.95 0.4704 1.35 1.6252 0.88 2.5803l-10.801 21.899c-0.336 0.68-1.02 1.075-1.731 1.075"/>
     <path id="Shape" fill="#fff" d="m72.564 28.239c-1.065 0-1.926-0.862-1.926-1.927v-22.673c0-1.0628 0.861-1.9263 1.926-1.9263 1.063 0 1.927 0.8635 1.927 1.9266v22.673c0 1.065-0.864 1.927-1.927 1.927"/>
     <path id="Shape" fill="#fff" d="m47.14 30.061c-0.711 0-1.395-0.395-1.731-1.075l-10.802-21.905c-0.468-0.9551-0.077-2.1098 0.878-2.5802 0.949-0.4705 2.106-0.0795 2.578 0.8757l10.802 21.906c0.47 0.955 0.077 2.109-0.878 2.58-0.271 0.134-0.562 0.199-0.847 0.199"/>
    </g>
    <g id="Cursor" sketch:type="MSShapeGroup" transform="translate(340.1 507.1)">
     <path id="Shape" fill="#B3B3B3" d="m1.8125 16.085h-0.83496l23.349 89.375 15.532-28.393 28.096 28.083 22.264-22.273-28.1-28.072 28.424-15.551-88.73-23.169"/>
     <path id="Shape" fill="#8A270F" d="m0.91645 15.85l0.06109 0.235h0.83496l-0.89605-0.235"/>
     <path id="Shape" fill="#fff" d="m96.302 23.701l-89.624-23.404 23.414 89.612 15.531-28.395 28.092 28.086 22.265-22.276-28.104-28.072 28.426-15.551"/>
     <path id="Shape" fill="#C1E2DE" d="m7.6085 0.53765l-0.9307-0.24031 23.414 89.612 15.531-28.395 28.092 28.086 11.472-11.484-77.578-77.578"/>
    </g>
    <g id="Pie-Chart-Icon" sketch:type="MSShapeGroup" transform="translate(466.37 305.48)">
     <path id="Shape" fill="#103754" d="m103.63 53.72c0 27.858-22.588 50.44-50.45 50.44-27.856 0-50.435-22.582-50.435-50.44 0.0003-27.854 22.579-50.439 50.435-50.439 27.862-0.0001 50.45 22.585 50.45 50.439"/>
     <path id="Shape" fill="#fff" d="m53.18 105.95c-28.798 0-52.229-23.429-52.229-52.23 0.00007-28.801 23.431-52.231 52.229-52.231 28.805-0.0003 52.24 23.43 52.24 52.231s-23.435 52.23-52.24 52.23zm0-100.88c-26.821 0-48.64 21.822-48.64 48.647-0.0005 26.823 21.819 48.65 48.64 48.65 26.828 0 48.65-21.827 48.65-48.65 0-26.825-21.822-48.647-48.65-48.647z"/>
     <path id="Shape" fill="#F3AC1D" d="m51.258 55.647v-31.51c-15.439 1.02-27.661 13.836-27.661 29.534 0 16.364 13.269 29.634 29.634 29.634 15.704 0 28.518-12.219 29.536-27.658h-31.509"/>
     <path id="Shape" fill="#36D3DE" d="m56.359 51.694h24.465c-0.674-9.47-6.138-17.629-13.972-22.083l-10.493 22.083"/>
     <path id="Shape" fill="#FD611F" d="m55.209 26.08v18.828l8.081-17.011c-2.587-1.015-5.295-1.624-8.081-1.817"/>
    </g>
    <g id="Globe-Icon" sketch:type="MSShapeGroup" transform="translate(0 217.91)">
     <path id="Shape" fill="#F3AC1D" d="m101.63 52.27c0 27.858-22.582 50.44-50.439 50.44-27.858 0-50.442-22.582-50.442-50.44 0.00045-27.854 22.584-50.439 50.442-50.439 27.857-0.0001 50.439 22.585 50.439 50.439"/>
     <path id="Shape" fill="#fff" d="m42.822 36.401c0.198 0 0.125-0.269 0.402-0.199 0.366 0.13 0.58 0.421 1.093 0.401 0.338-0.24-0.478-0.444-0.199-0.599l0.397 0.198c0.081-0.345-0.11-0.42-0.198-0.599 0.821-0.043 0.55-1.045 0.403-1.593 0.243-0.079 0.532-0.128 0.89-0.097-0.024-0.44-0.533-0.396-0.792-0.599 0.31 0.047 0.222-0.304 0.595-0.202 0.071-0.301-0.171-0.291-0.1-0.597 0.357 0.055 0.245-0.352 0.599-0.299 0.25-0.081 0.857 0.198 0.796-0.195 0.094-0.365-0.43-0.104-0.497-0.302-0.236-0.03-0.185-0.344-0.499-0.299-0.431-0.059-0.894 0.36-1.095 0.201 0.061-0.503 0.877-0.252 0.993-0.696-0.205-0.291-0.643-0.348-1.195-0.299-0.322-0.117-0.719-0.265-0.896 0l-0.497-0.204c-0.401 0.265-1.379-0.047-1.79 0.204-0.46 0.008-1.012-0.082-1.2 0.199-0.008 0.218 0.273 0.646 0.098 0.695-0.719-0.114-1.124 0.069-1.788-0.1-0.996 0.138-1.464 0.792-2.493 0.898-0.093 0.36 0.448 0.081 0.397 0.399-0.289 0.242-0.822 0.236-1.089 0.499-0.247-0.128-0.57-0.108-0.701 0.297 0.318-0.085 0.308 0.157 0.497 0.198-0.002-0.265 0.499-0.265 0.499 0 0.243-0.059 0.676-0.444 0.697 0.102-0.426 0.04-1.025-0.098-1.298 0.1 0.094 0.372 0.471 0.458 0.801 0.594 0.305 0.076 0.189-0.273 0.497-0.197 0.301 0.195 0.611 0.387 1.197 0.299-0.083 0.442 0.067 0.662 0.198 0.896-0.033 0.232-0.159 0.375-0.098 0.697 0.397 0.193 0.458-0.459 0.696-0.098 0.055 0.356-0.299 0.303-0.598 0.297 0.085 0.446 0.759 0.308 0.896 0.699-0.226 0.171-0.501 0.291-0.699 0.497 0.281 0.13-0.309 0.207-0.197 0.499 0.71 0.48 0.161 1.621 0.694 2.291h0.699c0.291 0.012 0.175 0.425 0.497 0.397 0.101-0.198 0.173-0.426 0.401-0.499-0.12-0.752 0.497-0.762 0.399-1.493 0.257-0.008 0.138-0.389 0.395-0.399 0.381 0.202 0.381-0.236 0.8 0 0.159-0.137 0.312-0.281 0.499-0.395 0.481-0.12 0.693-0.505 1.194-0.599 0.041-0.358 0.88-0.446 0.597-0.796-0.2 0.226-0.62-0.173-0.897-0.202zm0.998-0.397c-0.266-0.177 0-0.658 0.298-0.597-0.049 0.247-0.267 0.33-0.298 0.597zm0.695-4.782c-0.004 0.296-0.224 0.371-0.397 0.497-0.304-0.195-0.754-0.238-1.296-0.199 0.336-0.412 1.271-0.237 1.693-0.298z"/>
     <path id="Shape" fill="#fff" d="m30.473 32.717v0.597c0.301-0.069 0.36 0.102 0.592 0.1 0.047-0.455 0.646-0.878 0.998-0.697 0.153 0.418-0.515 0.014-0.497 0.297 0.302 0.151-0.344 0.18-0.299 0.4 0.261-0.062 0.354 0.04 0.299 0.297-0.234 0.002-0.293-0.173-0.598-0.098 0.016 0.283-0.334 0.196-0.198 0.599 0.595-0.077 1.023-0.139 1.293 0.295-0.79 0.171-1.299-0.393-1.794-0.197-0.079 0.478 0.605 0.193 0.601 0.6 0.751-0.107 1.757 0.442 1.992-0.301 0.258 0.031 0.427-0.037 0.397-0.299 0.073-0.271-0.465 0.073-0.397-0.2h0.696c-0.002-0.529 0.609-0.456 0.499-1.096 0.517-0.014 0.564-0.494 1.202-0.399 0.12-0.24 0.317-0.403 0.692-0.399 0.128-0.246-0.222-0.483 0-0.497 0.416-0.191 1.029 0.1 1.196-0.497l-0.296-0.201c-1.633 0.224-3.857-0.29-5.584 0.399-0.134 0.603 0.428 0.501 0.499 0.898-0.65 0.051-0.452-0.745-1.193-0.599-0.033 0.137-0.147 0.192-0.1 0.401-0.161 0.006-0.346-0.016-0.302 0.198-0.087 0.32 0.259 0.208 0.302 0.399zm2.089 1.79l-0.102 0.102 0.102-0.102z"/>
     <path id="Shape" fill="#fff" d="m54.974 32.515c0.051-0.279 0.524-0.144 0.4-0.596-0.911-0.145-1.782-0.177-2.591-0.2l0.1 0.401c0.627 0.202 1.144 0.516 2.091 0.395"/>
     <path id="Shape" fill="#fff" d="m51.093 33.014c-0.012 0.247-0.188 0.31 0 0.499 0.409-0.02 0.423-0.442 0.894-0.401-0.023 0.444-0.489 0.444-0.497 0.898 0.167 0.135 0.334 0.263 0.701 0.202-0.047 0.312 0.211 0.318 0.496 0.295 0.086-0.372 0.174-0.751 0.3-1.093 0.261 0.264 0.413 0.649 1.095 0.499 0.09-0.76-0.527-0.805-0.798-1.196-0.028 0.234-0.267-0.116-0.401-0.102-0.242 0.017-0.409-0.051-0.491-0.197 0.232-0.265-0.083-0.585-0.503-0.499-0.291 0.161 0.159 0.517-0.1 0.596-0.211-0.472-1.163-0.938-1.197 0 0.047 0.29 0.43 0.237 0.501 0.499"/>
     <path id="Shape" fill="#fff" d="m61.149 32.318c-0.008-0.629-0.926-0.413-0.892 0.1 0.338 0.309 0.524-0.139 0.892-0.1"/>
     <path id="Shape" fill="#fff" d="m66.736 32.917c0.782-0.135 1.604 0.344 1.79-0.302-0.235-0.385-1.147-0.548-1.693-0.297-0.222 0.012-0.045 0.421-0.097 0.599"/>
     <path id="Shape" fill="#fff" d="m86.855 38.894c0.236-0.035 0.187-0.346 0.496-0.299 0.52 0.01 0.449 0.615 1.096 0.494 0.128-0.177-0.087-0.501 0.1-0.792-0.263-0.122-0.65-0.658-0.894-0.201 0.032-0.233-0.018-0.383-0.098-0.499-0.542-0.194-0.831-0.636-1.694-0.497-0.114-0.188-0.385-0.212-0.499-0.399-0.652 0.085-0.79-0.341-1.495-0.2-0.141 0.291 0.273 0.509 0 0.599-0.289-0.045-0.238-0.432-0.497-0.497-0.293 0.307-0.831 0.026-1.403 0.197-0.357-0.232-0.33-0.859-1.088-0.696l-0.203 0.297c-0.416-0.181-0.819-0.375-1.194-0.594l-0.195 0.197c0.124-0.391-0.241-0.297-0.503-0.299 0.248-0.234-0.106-0.224-0.196-0.399-0.478 0.175-0.444-0.057-0.898-0.098l-0.397 0.098c-0.1 0.187 0.297 0.334 0 0.399-0.855-0.135-1.943 0.179-2.692 0-0.253-0.061-0.349-0.367-0.595-0.298-0.462 0.106-0.77-0.103-1.1-0.199h-0.393c-0.252-0.047-0.44-0.318-0.998-0.204 0.039-0.254 0.296-0.299 0.3-0.595-0.143-0.293-0.463-0.401-0.597-0.698-0.301 0.132-0.764 0.104-1.198 0.102-0.248-0.084-0.209-0.452-0.598-0.399-0.232 0.099-0.318 0.342-0.3 0.696-0.492-0.161-0.317 0.35-0.696 0.299-0.192-0.04-0.08-0.386-0.399-0.299-0.259 0.275-0.617 0.448-1.194 0.397-0.175 0.129-0.262 0.338-0.596 0.302-0.141 0.126-0.045 0.486-0.304 0.497-0.206 0.063-0.69-0.161-0.59 0.199 0 0.367 0.578 0.145 0.494 0.599-0.366-0.106-0.464-0.467-0.997-0.399 0 0.262 0.055 0.586-0.202 0.598-0.112-0.118-0.112-0.356-0.1-0.598-0.387-0.084-0.159 0.436-0.595 0.299-0.156-0.177-0.136-0.531-0.598-0.401-0.279 0.419-0.662 0.737-0.998 1.098-0.646 0.048-0.597-0.186-1.293-0.2-0.161 0.491 0.515 0.151 0.399 0.599-0.416-0.098-0.864 0.051-1.497 0-0.448 0.183-0.693 0.568-1.194 0.696v-0.599c-0.248 0.017-0.48 0.019-0.598-0.097 0.026 0.558 0.006 1.065-0.595 0.996 0.031 0.368-0.367 0.297-0.599 0.399-0.248 0.132 0.175 0.299-0.102 0.399-0.582 0.114-0.617-0.723-0.596-0.896 0.462 0.002 0.973-0.045 1.297 0.098 0.265-0.626-0.562-0.947-1.197-0.996-0.155-0.243-0.426-0.373-0.797-0.399-0.136-0.233-0.281-0.446-0.499-0.597h-0.898c-0.271 0.189-0.523 0.405-0.792 0.597h-0.303c-0.355 0.376-0.803 0.657-1.194 1-0.11 0.452-0.311 0.816-0.599 1.091l-0.297-0.098v0.395c-0.633 0.039-0.698 0.632-0.898 1.098 0.2 0.236 0.23 0.638 0.2 1.096 0.095 0.269 0.629 0.106 0.798 0.301-0.218 0.291-0.397 0.401-0.397 0.697 0.209-0.047 0.185 0.14 0.195 0.299-0.354 0.006-0.576 0.155-0.894 0.196-0.091 0.179-0.281 0.256-0.201 0.598-0.567-0.167-0.222 0.575-0.699 0.499l-0.1 0.198c-0.44-0.043-0.525 0.271-0.798 0.401-0.24 0.055-0.507 0.086-0.491 0.399 0.126 0.135 0.432 0.098 0.693 0.098-0.049 0.452 0.46 0.34 0.401 0.798-0.104 0.135-0.1 0.371-0.304 0.399-0.462-0.238-0.875 0.088-1.49 0-0.102 0.328 0.219 1.084-0.204 1.098 0.075 0.291 0.303 0.428 0.204 0.894 0.464-0.1 0.602 0.131 0.898 0.198 0.372-0.192 0.419-0.192 0.794 0 0.226-0.404 0.57-0.695 0.497-1.393 0.438-0.129 0.364-0.766 0.898-0.797 0.421 0.249 0.593-0.071 0.998-0.099-0.281 0.387-0.141 1.008 0 1.492 0.631-0.055 0.238-0.564 0.297-1.097v-0.198 0.198c0.206 0.03 0.198 0.269 0.302 0.401 0.482 0.01 0.784 0.204 0.892 0.599-0.017 0.216-0.249 0.211-0.499 0.195-0.013 0.35 0.352 0.316 0.499 0.501-0.047-0.448 0.268-0.527 0.499-0.696 0.055-0.224-0.188-0.143-0.2-0.302 0.185-0.311 0.338 0.336 0.503 0-0.273-0.527-1.511-0.615-1.195-1.393 0.297 0.456 0.859 0.67 1.195 1.096l0.195 0.401 0.2 0.393v0.599c0.13 0.136 0.434 0.098 0.699 0.1 0.167-0.342-0.18-0.833 0.097-1.196h0.298c-0.11 0.393-0.017 0.371-0.096 0.795 0.224-0.037 0.134 0.289 0.297 0.401 0.363 0.254 1.029 0.177 1.296 0 0.297 0.142-0.259 0.517 0.195 0.499 0.413 0.073 0.022-0.644 0.503-0.499v0.596c-0.291 0.176-0.09 0.844-0.503 0.897-0.723-0.265-1.625-0.359-2.588-0.396-0.29 0.076-0.239 0.491-0.497 0.601-0.459-0.474-1.365-0.501-1.79-1 0.077-0.344-0.114-0.421-0.202-0.598 0.234-0.027 0.23-0.267 0.098-0.398-0.603-0.008-1.082 0.112-1.493 0.298-0.811-0.047-1.511 0.014-1.896 0.401-0.086-0.21-0.289-0.306-0.595-0.301-0.083 0.35-0.442 0.421-0.696 0.598-0.269 0.469-0.169 1.08-0.397 1.495-0.147 0.261-0.683 0.532-0.901 0.796-0.012 0.583-0.244 0.951-0.498 1.296v2.59c0.344 0.387 0.645 0.819 0.8 1.393 0.458 0.273 0.768 0.697 1.393 0.798 0.403-0.097 0.878-0.12 1.395-0.101 0.206-0.161 0.193-0.536 0.601-0.497l0.203 0.397c0.459-0.063 0.634 0.161 0.992 0.201 0.171-0.089 0.253-0.279 0.597-0.201 0.102 0.77-0.212 1.122-0.202 1.796 0.285 0.511 0.77 0.896 0.599 1.593 0.265 0.336 0.283 0.912 0.399 1.395-0.246 0.452-0.189 1.199-0.399 1.692 0.428 0.405 0.735 0.925 0.902 1.595v0.898c0.44 0.515 0.43 1.488 0.892 1.991 0.959-0.069 1.44-0.615 2.291-0.796 0.153-0.548 0.458-0.939 0.894-1.195-0.049-0.385 0.18-0.489 0.098-0.898 0.181-0.09 0.257-0.279 0.601-0.2 0.01-1.149 0.417-1.902 1.197-2.291 0.147-0.813 0.147-1.978 0-2.788 0.212-0.387 0.383-0.811 0.495-1.295 0.238-0.163 0.438-0.359 0.699-0.499 0.472-0.689 0.906-1.422 1.397-2.09 0.075-0.372 0.208-0.882-0.104-1.095-0.426-0.064-0.401 0.323-0.792 0.297h-0.898c-0.047-0.682-0.544-0.919-0.901-1.295 0.09-0.656-0.592-0.538-0.397-1.298-0.169-0.226-0.478-0.317-0.596-0.596 0.093-0.3-0.143-0.774 0-0.797 0.238 0.171 0.505 0.695 0.397 0.896 0.419 0.418 0.694 0.966 1.097 1.395 0.239 0.416 0.2 1.039 0.699 1.398 0.694-0.235 1.183-0.677 1.992-0.801l0.195-0.397c0.432-0.069 0.613-0.385 1-0.501-0.071-0.434 0.291-0.442 0.3-0.794-0.174-0.359-0.687-0.381-0.601-0.996-0.377-0.049-0.634 0.026-0.794 0.195-0.084-0.374-0.451-0.478-0.404-0.993-0.321 0.026-0.285-0.308-0.493-0.398l0.398-0.201c0.551 0.344 0.384 1.405 1.395 1.297 0.042 0.192 0.285 0.183 0.199 0.499 0.481 0.049 0.552-0.309 0.998-0.299 0.1 0.063 0.104 0.226 0.297 0.199 0.693-0.102 0.866 0.328 1.29 0.497l-0.192 0.2c0.102 0.191 0.454 0.136 0.599 0.299-0.053 0.314 0.177 0.35 0.094 0.697 0.301 0.332 0.429 0.833 0.596 1.297 0.212 0.189 0.418 0.379 0.503 0.694v0.601c0.127 0.137 0.432 0.094 0.697 0.098 0.13-0.637 0.487-1.039 0.395-1.894h0.401v-0.399c0.377 0.146 0.192-0.271 0.497-0.198-0.029-0.456 0.365-0.501 0.499-0.798 0.242-0.187 0.525-0.336 0.894-0.397 0.228 0.275 0.23 0.772 0.601 0.898 0.036 0.236-0.181 0.214-0.104 0.495 0.112 0.326 0.792 0.075 1 0.299-0.133 0.21 0.051 0.295-0.1 0.601 0.259 0.104 0.442 0.285 0.497 0.595-0.037 0.189-0.283 0.181-0.2 0.501 0.033 0.299 0.31 0.354 0.2 0.794 0.481 0.417 0.931 0.863 1.495 1.197 0.024-0.657-0.471-0.79-0.497-1.397-0.277-0.189-0.542-0.389-0.699-0.696 0.045-0.322-0.132-0.86 0.198-0.896 0.218 0.281 0.375 0.625 0.804 0.696l0.094 0.397c0.965-0.126 1.204-0.989 1.096-2.189l-0.497-0.2c0.126-0.437-0.479-0.407-0.2-0.698 0.291-0.277 0.259 0.33 0.697 0.2 0.071-0.426 0.576-0.422 1.095-0.4 0.316-0.478 0.742-0.849 0.896-1.494l0.3-0.096c0.165-0.405-0.023-1.151 0.299-1.393-0.21-0.092-0.299-0.295-0.299-0.603-0.169-0.124-0.389-0.206-0.399-0.497-0.043-0.238 0.185-0.218 0.099-0.497 0.206 0.031 0.314-0.02 0.3-0.203 0.285-0.127-0.45-0.595 0.199-0.595 0.114 0.318 0.461 0.401 0.599 0.698-0.096 0.526 0.187 0.677 0.501 0.797 0.599-0.434-0.02-1.53 0.297-2.291 0.21-0.188 0.51-0.286 0.799-0.398 0.228-0.468 0.432-0.959 0.79-1.295 0.138-0.802-0.226-1.631 0-2.193-0.134 0.568 0.232 0.637 0.301 0.996 0.019 0.617 0.049 1.216 0.501 1.393 0.186-0.175-0.081-0.251 0-0.595 0.271-0.01 0.202 0.167 0.395 0 0.021-0.316-0.264-0.336-0.193-0.699-0.363-0.071-0.456-0.407-0.601-0.696-0.039-0.358 0.035-0.833-0.297-0.898-0.206 0.026-0.027 0.444-0.297 0.401-0.167-0.733-0.844 0.458-1.102-0.299 0.071-0.23 0.254-0.342 0.403-0.497 0.112-0.318 0.073-0.786 0.397-0.9 0.228 0.246 0.183-0.147 0.493-0.1 0.47 0.067 0.904 0.263 1.501 0.201l0.193 0.198c0.133-0.136 0.438-0.096 0.701-0.1 0.051-0.315-0.177-0.35-0.1-0.696 0.204-0.029 0.196-0.269 0.399-0.298 0.204 0.029 0.196 0.269 0.399 0.298-0.046-0.218 0.296-0.55 0.394-0.298-0.316 0.638-0.787 1.135-0.895 1.99 0.066 0.269 0.286 0.381 0.402 0.599 0.044 0.383 0.116 0.747 0.395 0.896 0.248-0.251 0.395-0.603 0.698-0.798-0.091-0.493 0.318-0.42 0.104-0.795 0.027-0.201 0.265-0.195 0.295-0.397-0.146-0.12-0.444-0.089-0.399-0.401 0.098-0.874 0.752-0.684 1.497-0.597l0.297-0.596c0.583-0.045 1.021-0.318 1.393-0.302 0-0.425-0.494-0.364-0.496-0.794zm-33.469 1.096c0.187 0.207 0.452 0.34 0.792 0.397v0.996c-0.224-0.039 0.055-0.587-0.397-0.398-0.22 0.345-0.081 1.045-0.395 1.296-0.332 0.032-0.576-0.047-0.802 0-0.275 0.057-0.336 0.289-0.597 0.299 0.03-0.122-0.285-0.344-0.295-0.102-0.233-0.028-0.233-0.269 0-0.299-0.229-0.238-0.383-0.548-0.402-0.996 0.499 0.043 0.308 1.403 1.198 0.996 0.224-0.405 0.377-0.882 0.595-1.295-0.033-0.23-0.121-0.41-0.2-0.599 0.059-0.937 0.77-1.224 1.096-1.892l0.199 0.102c-0.081 0.684-0.884 0.639-0.792 1.495zm1.094 0.694c-0.006-0.299 0.352-0.244 0.596-0.297 0.008 0.309-0.301 0.297-0.596 0.297zm0.798-3.884l0.096-0.099-0.096 0.099zm1.792 14.348l0.098-0.102-0.098 0.102zm0.098-12.356l0.1-0.098-0.1 0.098zm7.37-1.595c-0.187-0.04-0.426-0.032-0.397-0.297-0.297-0.02 0.094-0.413 0 0 0.071 0.159 0.487-0.022 0.397 0.297zm6.175-1.79l0.104-0.101-0.104 0.101zm0.301-0.101l0.1-0.098-0.1 0.098zm0.3-0.2l0.099-0.102-0.099 0.102zm4.484 12.551c0.141-0.187 0.222-0.44 0.601-0.393l0.094 0.393c-0.149 0.3-0.432-0.081-0.695 0z"/>
     <path id="Shape" fill="#fff" d="m40.432 59.414c-0.174-0.185-0.292 0.043-0.497 0.1-0.157-0.34-0.542-0.454-0.894-0.601h-0.699c-0.179-0.289-0.845-0.085-0.896-0.495-0.267 0-0.589 0.055-0.595-0.199 0.285-0.467-0.297-1.737-1.199-1.293-0.314-0.186-0.544-0.453-0.597-0.901-0.519-0.146-0.892-0.435-1.399-0.596l-0.295 0.199c-0.137-0.358-0.622-0.377-0.701-0.794-0.318-0.092-0.206 0.255-0.397 0.297-0.232-0.069-0.265-0.332-0.497-0.397-0.092 0.173-0.183 0.344-0.499 0.3-0.153 0.411-0.552 0.572-0.794 0.896 0.022-0.33-0.122-0.481-0.401-0.501-0.257 0.106-0.371 0.36-0.701 0.399-0.232-0.487 0.104-0.947 0-1.595-0.181-0.348-0.843-0.216-1.193-0.397 0.099-0.434 0.389-0.674 0.299-1.295-0.483 0.061-0.509 0.061-0.994 0-0.183 0.216-0.098 0.7-0.399 0.794-1.334 0.073-0.499-1.707-0.798-2.489 0.352-0.083 0.564-0.299 0.9-0.395 0.542-0.051 0.672 0.318 1.191 0.296l0.1-0.296c0.481 0.023 1.12-0.13 1.195 0.296-0.042 0.576 0.22 0.847 0.697 0.898-0.12-0.513-0.065-0.668 0-0.998-0.114-0.149-0.285-0.245-0.297-0.499 0.167-0.66 0.604-1.053 1.293-1.196 0.089-0.291 0.089-0.303 0-0.596 0.232 0.03 0.383-0.017 0.503-0.1-0.251-0.546 0.324-0.428 0.195-1.096 0.332-0.134 0.648-0.279 0.994-0.399 0.053-0.311-0.301-0.224-0.195-0.595 0.362-0.301 0.916-0.415 1.397-0.6 0.069 0.271-0.202 0.201-0.202 0.399 0.399-0.167 0.823-0.306 1.1-0.597-0.247-0.155-0.746-0.061-0.701-0.497 0.055-0.279 0.381-0.279 0.599-0.399 0.039-0.242-0.183-0.216-0.102-0.499 0.485 0.328 1.047-0.483 1.395-0.299-0.23 0.535-0.704 0.82-0.896 1.393 0.369 0.073 0.428-0.169 0.794-0.098l0.102 0.399c0.098-0.246 0.381 0.137 0.697 0-0.047-0.228-0.194-0.509 0-0.696-0.363-0.037-0.454-0.343-0.599-0.601 0.035-0.617 0.035-0.67 0-1.295-0.189-0.186-0.248-0.009-0.495 0 0.01-0.473-0.46-0.471-0.499-0.894l0.098-0.4c-0.381-0.218-0.242-0.955-0.798-0.998-0.051 0.147 0.12 0.518-0.098 0.501-0.206-0.059-0.656 0.125-0.697-0.101v-0.994c-0.533 0.238-0.438-0.232-0.9-0.3-0.263 0.273-0.214-0.118-0.495-0.097-0.24-0.041-0.214 0.179-0.499 0.097 0.147 0.992-0.27 1.55-0.101 2.292-0.169 0.028-0.495-0.284-0.597 0 0.098 0.285 0.33 0.063 0.401 0.197-0.348 0.218-0.356 0.772-0.499 1.2-0.228-0.308-0.273-0.795-0.397-1.2-0.202-0.197-0.196 0.047-0.397 0.1-0.088-0.287-0.149-0.108-0.401-0.1-0.3-0.299-0.636-0.558-1.094-0.696 0.159-0.495-0.348-0.316-0.305-0.699 0.215 0.049 0.193-0.14 0.203-0.297 0.33-0.169 0.471-0.524 0.796-0.699 0.22-0.348 0.373-0.757 0.901-0.794 0.008-0.179-0.123-0.21-0.1-0.399 0.672-0.135 1.047-0.216 1.489-0.399-0.019-0.385 0-0.736 0.101-0.996l-0.497-0.3c0.396-0.032 0.738-0.004 0.894 0.198 0.188-0.301 0.479 0.116 0.799 0-0.139 0.507 0.456 0.277 0.397 0.703-0.098 0.729-1.181 0.474-1.293 1.193 0.165 0.234 0.58 0.216 0.998 0.195 0.619 0.279 0.863 0.933 1.694 1-0.222-0.517 0.167-0.503 0.102-1.097-0.045-0.259-0.304-0.3-0.306-0.599 0.381 0.022 0.487 0.318 0.801 0.399-0.029-0.261-0.037-0.495 0.299-0.399-0.071-0.304 0.1-0.363 0.096-0.597-0.269 0.069-0.19-0.203-0.297-0.299-0.341-0.055-0.599-0.194-0.899-0.3 0.031-0.203 0.273-0.191 0.306-0.397-0.13-0.238-0.44-0.295-0.405-0.696h-0.894c0.046-0.314-0.267-0.263-0.3-0.501-0.423-0.055-0.658 0.073-0.996 0.102 0.059-0.615-0.788-0.42-0.898-0.102 0.037-0.369-0.077-0.583-0.397-0.599-0.515 0.318-1.112 1.336-0.497 1.896 0.145 0.055 0.511-0.114 0.497 0.098-0.106 0.293-0.316 0.481-0.497 0.703-0.256-0.247 0.208-0.218 0.1-0.601-0.34-0.226-0.664-0.469-0.798-0.898-0.381 0.048-0.318-0.345-0.795-0.198 0.037 0.238-0.187 0.216-0.103 0.497 0.342 0.134 0.215 0.925 0 1.096-0.145-0.086-0.214-0.249-0.196-0.497-0.501-0.072-0.499 0.368-0.902 0.397-0.371-0.159-0.776-0.281-0.992-0.597 0.444-0.077 0.599 0.133 0.992 0.098 0.222-0.206-0.045-0.285 0-0.597 0.554-0.112 0.772-0.556 1.295-0.696-0.183-0.31-0.145-0.546-0.197-0.795h-1.491c-0.22 0.279-0.717 0.279-0.801 0.693l-0.197-0.395c-0.263-0.004-0.621 0.091-0.497-0.298 0.737 0.153 1.617-0.362 2.289-0.6 0 0.46 0.853 0.344 0.998 0.099-0.071-0.228-0.09-0.507-0.198-0.698-0.586 0.077-0.875 0.46-1.496 0.501v-0.599c-0.544-0.183-0.642 0.471-0.298 0.599-0.572 0.069-0.892-0.11-1.395-0.102 0.151 0.517-0.456 0.277-0.497 0.601 0.251 0.126 0.308-0.053 0.397 0.098l-0.397 0.195c-0.159-0.568-0.947-0.511-1.694-0.497-0.053 0.483-0.308 0.758-0.601 0.998-0.014 0.314 0.263 0.336 0.202 0.697 0.492 0.028 0.737-0.188 1.091-0.3-0.201 0.542 0.548 0.12 0.601 0.401 0.071 0.269-0.466-0.073-0.399 0.198-0.002 0.538 1.089-0.024 0.898 0.696 0.373-0.219 0.487-0.156 0.896 0h0.1c-0.033-0.12 0.285-0.342 0.299-0.097l-0.299 0.097c0.026 0.253 0.428 0.567 0 0.699l-0.1-0.299c-0.886-0.078-1.334-0.591-2.391-0.497-0.303-0.094-0.311-0.485-0.696-0.497-0.045 0.281-0.31 0.35-0.599 0.395 0.032-0.23-0.014-0.379-0.098-0.497-0.383 0.022-0.383 0.422-0.796 0.399-0.379 0.076-0.477-0.122-0.798-0.1l-0.2 0.198-0.096-0.198c-0.24 0.033-0.379 0.159-0.702 0.1-0.795-0.495-2.328-0.258-3.183-0.698-0.746 0.325-1.711 0.417-2.194 0.499-0.226 0.387 0.181 0.393 0.295 0.698 0.381-0.047 0.622 0.041 0.703 0.302-0.405-0.141-0.358 0.175-0.501 0.297-0.183-0.088-0.271-0.257-0.497-0.297-0.379 0.382-1.287 0.24-1.594 0.692 0.549-0.016 0.743 0.32 0.798 0.802 0.525-0.191 0.924 0.027 1.393-0.106-0.487 0.878-2.558 0.172-2.395 1.695 0.332 0.24 0.413 0.273 0.301 0.8 0.182 0.012 0.21-0.124 0.397-0.102l0.1 0.4c0.141-0.318 0.047 0.407 0.3 0.297 0.124-0.389 0.57-0.477 0.896-0.198-0.43 0.334-0.587 0.941-1.092 1.194-0.458 0.144-0.615 0.584-1.195 0.598 0.081 0.318-0.159 0.306-0.202 0.499 0.456 0.057 0.621-0.179 1.096-0.099 0.112-0.287 0.423-0.371 0.798-0.4 0.373-0.686 1.024-1.101 1.595-1.594h0.201c0.102-0.094 0.029-0.363 0.293-0.297l0.1-0.098-0.1 0.098c0.045 0.444-0.266 0.527-0.397 0.796 0.819 0.091 1.019-0.44 1.695-0.499 0.045-0.446-0.051-0.748-0.1-1.096 0.458 0.094 0.485-0.248 0.894-0.199 0.277 0.191 0.509 0.423 0.699 0.7 0.633 0.2 1.175 0.487 1.095 1.391 0.483-0.063 0.023-0.55 0.403-0.597 0.021 0.844-0.032 1.754 0.294 2.294-0.3 0.256-0.102 0.368 0 0.696 0 0.196-0.269 0.124-0.194 0.399-0.049 1.094-0.114 1.825 0 2.888 0.265 0.165 0.438 0.422 0.695 0.599 0.273 0.385 0.254 1.067 0.596 1.393l-0.101 0.301c0.417 0.149 0.511 0.615 0.7 0.996 0.306-0.075 0.289 0.173 0.593 0.096 0.014-0.424-0.192-0.332-0.194-0.892v-0.102 0.102c0.21-0.049 0.184 0.142 0.194 0.297 0.313 0.224 0.58 0.487 0.8 0.796-0.073 0.705 0.194 1.072 0.395 1.495 0.823 0.206 1.308 0.715 2.293 0.497 0.114 0.255 0.247 0.485 0.402 0.699 0.374-0.078 0.476 0.12 0.792 0.102 0.096 0.238 0.293 0.37 0.499 0.494v0.3c0.576 0.059 0.692 0.572 1.197 0.696 0.102-0.132 0.096-0.368 0.3-0.395 0.034 0.359 0.203 0.595 0.297 0.892 0 0.2-0.271 0.131-0.198 0.401 0.047 0.512-0.319 0.613-0.399 0.996-0.193 0.695 0.401 1.076 0 1.395 0.175 0.19 0.493 0.237 0.701 0.397l-0.499 0.2c-0.071 0.802 0.366 1.096 0.896 1.297 0.041 0.239-0.185 0.216-0.1 0.497 0.371 0.291 0.503 0.821 1.098 0.898 0.179 0.444 0.497 0.76 0.495 1.393l-0.196 0.497c0.133 0.065 0.184 0.216 0.196 0.399-0.267 0.45 0.12 0.972 0 1.595-0.538 0.322-0.291 1.436-0.495 2.092 0.146 0.277 0.407-0.174 0.495 0.101 0.089 0.487-0.34 0.457-0.495 0.695-0.126 0.324 0.318 0.077 0.195 0.401-0.189 0.24 0.11 0.483-0.101 0.794 0.097 0.678 0.433 1.025 0.205 1.597 0.293 0.232 0.263 0.792 0.597 0.996-0.014 0.177 0.118 0.21 0.098 0.397 0.25 0.051 0.411 0.189 0.596 0.297 0.373-0.061 1.027 0.165 1.094-0.199-0.269-0.059-0.464-0.196-0.595-0.399 0.074-0.336-0.403-0.127-0.301-0.497-0.033-0.436 0.289-0.512 0.301-0.898 0.257-0.013 0.385-0.143 0.4-0.396 0.048-0.354-0.353-0.242-0.3-0.598 0.267-0.308 0.678-1.291 0-1.395 0.668 0.167 0.644-0.349 0.794-0.695 0.538 0.035 0.723-0.281 1.1-0.401 0.065-0.464-0.161-0.639-0.201-0.994h0.796l0.201-0.102c0.055-0.242 0.086-0.513 0.4-0.497-0.035-0.566 0.376-0.686 0.594-0.998v-0.696c0.192-0.175 0.312-0.422 0.497-0.599 0.475-0.14 0.475-0.14 0.898-0.297 0.045-0.64 0.528-1.193 0.198-1.894 0.153-0.084 0.218-0.251 0.201-0.499l0.3-0.098c0.036-0.328 0.293-0.44 0.399-0.694 0.265-0.259-0.014-0.483 0.295-0.599-0.069-0.305 0.1-0.367 0.1-0.601 0.006-0.37-0.1-0.631-0.197-0.896zm-4.583-16.535l-0.099 0.096 0.099-0.096zm-7.671-7.773c0.305 0.098-0.11 0.269-0.102 0.399-0.3-0.096 0.049-0.336 0.102-0.399zm-0.397 0.497c0.315-0.045 0.352 0.185 0.696 0.102 0 0.397-0.389 0.409-0.696 0.497v-0.599zm-3.086 0.204l0.096-0.102-0.096 0.102zm-2.093 14.341h0.097-0.097zm0.097 0.201c0.237 0.033 0.224 0.308 0.399 0.398-0.128 0.25-0.486-0.106-0.399-0.398z"/>
     <path id="Shape" fill="#fff" d="m60.758 36.603c-0.144-0.458-0.613-0.587-0.501-1.297 0.705-0.062 0.968-0.563 1.493-0.799 0.629 0.065 0.947-0.177 1.002-0.694h-0.503l-0.1 0.197c-0.749 0.084-1.305 0.359-1.892 0.599 0.049 0.511-0.48 0.45-0.399 0.994-0.124 0.214-0.373 0.293-0.397 0.599 0.32 0.209 0.629 0.433 0.994 0.598l0.303-0.197"/>
     <path id="Shape" fill="#fff" d="m77.391 34.809c0.238-0.159 0.358-0.44 0.601-0.597-0.379-0.049-0.461-0.458-0.801-0.399l-0.197 0.197h-0.595c-0.134 0.727 0.709 0.481 0.992 0.799"/>
     <path id="Shape" fill="#fff" d="m45.61 39.289c0.013-0.253 0.373-0.157 0.501-0.297 0.104-0.505-0.228-0.571-0.199-0.994-0.432 0.132-0.587-0.065-0.996 0.098-0.271-0.061-0.25-0.416-0.599-0.395 0.12 0.48-0.397 0.331-0.397 0.692 0.279 0.083 0.259-0.139 0.495-0.096-0.053 0.241-0.383 0.212-0.297 0.597 0.499-0.134 0.393 0.342 0.7 0.395 0.082-0.204 0.693-0.102 0.792 0"/>
     <path id="Shape" fill="#fff" d="m31.962 39.289c-0.394-0.106-0.135-0.25-0.396-0.497-0.301 0.071-0.293-0.171-0.598-0.098-0.141 0.192-0.051 0.609-0.495 0.501 0.006 0.349 0.326 0.397 0.694 0.395-0.034-0.78 0.678 0.326 0.795-0.301"/>
     <path id="Shape" fill="#fff" d="m49.504 42.879l-0.407-0.299c0.126-0.591-0.66-0.684-0.295-1.197l-0.401-0.3c0.144-0.085 0.315-0.146 0.299-0.399-0.365-0.03-0.554 0.112-0.794 0.2 0.075 0.541-0.159 0.774-0.1 1.295 0.24 0.142 0.364 0.157 0.495 0.199 0.04 0.353-0.336 0.548-0.495 0.398-0.078 0.448 0.069 0.666 0.197 0.898-0.173 0.091-0.531-0.006-0.501 0.299 0.497-0.071 0.994-0.136 1.595-0.1 0.084-0.427 0.029-0.708 0.407-0.994"/>
     <path id="Shape" fill="#fff" d="m46.804 43.279c0.232-0.108 0.605-0.068 0.8-0.202-0.106-0.417-0.024-0.44 0-0.898h-0.497c-0.006 0.446-0.228 0.126-0.399 0.299 0.012 0.287-0.053 0.652 0.096 0.801"/>
     <path id="Shape" fill="#fff" d="m80.975 46.166c0.194 0.011 0.073 0.326 0.299 0.296 0.222-0.245 0.188-0.742 0.599-0.795-0.523-0.073-0.849-0.346-1.393-0.399 0.073 0.473-0.112 0.687-0.102 1.1 0.273 0.267 0.249-0.259 0.597-0.202"/>
     <path id="Shape" fill="#fff" d="m78.688 49.254c-0.018 0.348 0.234 0.428 0.397 0.595 0.069-0.361 0.312-0.552 0.599-0.697l0.297 0.102c0.316-0.383 0.974-0.42 1.293-0.798-0.016-0.711-0.217-1.243-0.193-1.994h-0.405c0.124 0.468-0.051 0.696 0.102 1.195l-0.102 0.204c-0.355 0.153-0.532 0.269-0.894 0.595-0.353 0.181-0.986 0.077-0.998 0.598-0.045 0.275 0.541-0.075 0.503 0.2h-0.599"/>
     <path id="Shape" fill="#fff" d="m54.38 48.456c0.03 0.279 0.33 0.081 0.594 0.301 0.072-0.373-0.152-0.44-0.494-0.401l-0.1 0.1"/>
     <path id="Shape" fill="#fff" d="m76.592 51.844c0.161 0.141 0.257 0.342 0.3 0.597 0.413-0.022 0.381-0.487 0.401-0.896-0.248-0.22-0.595 0.071-0.701 0.299"/>
     <path id="Shape" fill="#fff" d="m30.473 51.545v0.399h0.397c-0.012-0.252-0.145-0.387-0.397-0.399"/>
     <path id="Shape" fill="#fff" d="m31.566 52.04c0.031-0.228-0.014-0.379-0.099-0.495h-0.3c-0.038 0.34 0.029 0.568 0.399 0.495"/>
     <path id="Shape" fill="#fff" d="m31.664 51.944v0.497c0.21 0.041 0.267-0.067 0.399-0.1-0.012-0.252-0.142-0.387-0.399-0.397"/>
     <path id="Shape" fill="#fff" d="m31.467 53.537c0.358-0.057 0.482 0.116 0.7 0.199 0.008-0.285 0.414-0.181 0.695-0.199-0.145-0.66-0.695-0.571-1.296-0.599 0.074-0.271-0.201-0.2-0.201-0.397-0.218-0.112-0.548-0.116-0.595-0.399h-1.493c-0.044 0.189-0.216 0.25-0.201 0.499 0.407 0.04 0.403-0.326 0.898-0.2 0.419 0.081 0.464 0.534 0.896 0.599 0.236 0.059 0.723-0.129 0.794 0.098-0.364 0.01-0.246 0.146-0.197 0.399"/>
     <path id="Shape" fill="#fff" d="m32.46 52.441l-0.397-0.1c-0.209 0.367 0.507 0.45 0.397 0.1"/>
     <path id="Shape" fill="#fff" d="m76.994 53.537c0.156 0.242 0.356 0.442 0.596 0.596 0.125-0.307 0.463-0.399 0.402-0.896-0.271-0.36-1.011-0.195-0.998 0.3"/>
     <path id="Shape" fill="#fff" d="m74.601 53.836c0.279-0.055 0.279-0.387 0.399-0.599l-0.399-0.099c-0.186 0.389-0.133 0.081 0 0.698"/>
     <path id="Shape" fill="#fff" d="m30.369 53.335v0.401c0.336-0.106 0.342 0.033 0.696-0.1 0.068-0.397-0.376-0.283-0.696-0.301"/>
     <path id="Shape" fill="#fff" d="m33.057 53.736c0.361 0.027 0.691 0.023 0.599-0.401h-0.599v0.401"/>
     <path id="Shape" fill="#fff" d="m43.519 53.736c0 0.196-0.271 0.127-0.196 0.397h0.396c0.028-0.226-0.027-0.374-0.2-0.397"/>
     <path id="Shape" fill="#fff" d="m77.79 55.331c0.208 0.214 0.283-0.051 0.597 0-0.033 0.23-0.212 0.43 0.101 0.497 0.141-0.291 0.42-0.444 0.894-0.399 0.094-0.457-0.317-0.412-0.496-0.595 0.024-0.328-0.117-0.483-0.398-0.501-0.14 0.13-0.099 0.434-0.101 0.701-0.334-0.174-0.432 0.057-0.597 0.297"/>
     <path id="Shape" fill="#fff" d="m67.925 55.628c0.144 0.591-0.379 0.711 0 0.996 0.316 0.049 0.265-0.267 0.501-0.299-0.082-0.314-0.289-0.507-0.501-0.697"/>
     <path id="Shape" fill="#fff" d="m74.501 58.321c0.1 0.399 0.531 0.464 0.499 0.995 0.645-0.15 0.548 0.446 1.195 0.298-0.03-0.23 0.285-0.11 0.298-0.298l-0.196-0.101c0.328-0.141 0.165-0.762 0.501-0.894-0.228-0.324 0.082-0.662-0.104-0.899 0.175-0.089 0.344-0.185 0.3-0.496-0.243-0.19-0.436-0.428-0.899-0.402-0.091 1.041-1.417 0.839-1.594 1.797"/>
     <path id="Shape" fill="#fff" d="m72.607 57.62c-0.151-0.232-0.464-0.391-0.393-0.694-0.275 0.069-0.204-0.202-0.399-0.202 0.012 0.44-0.245-0.01-0.501 0.1 0 1.163 1.399 0.924 1.199 2.291 0.489 0.055 0.627 0.711 1.092 0.499 0.228-0.383-0.208-0.817-0.194-1.293-0.307-0.204-0.662-0.489-0.804-0.701"/>
     <path id="Shape" fill="#fff" d="m78.191 58.418c-0.02-0.442-0.629-0.301-0.8-0.596-0.511 0.409-0.866 1.519-0.098 1.889-0.02-0.287 0.024-0.507 0.2-0.596 0.217 0.191 0.23 0.507 0.596 0.299-0.051-0.415-0.385-0.548-0.399-0.996h0.501"/>
     <path id="Shape" fill="#fff" d="m80.378 58.019c-0.323-0.204-1.12-0.165-1.091 0.302 0.34 0.213 1.067 0.112 1.091-0.302"/>
     <path id="Shape" fill="#fff" d="m81.478 58.418h-0.7c-0.088 0.145-0.147 0.318-0.4 0.3-0.309 0.075-0.187-0.277-0.492-0.202 0.028 0.263-0.394 0.082-0.302 0.397 0.014 0.226 0.249-0.124 0.493 0 0.446 0.359 1.026 0.572 1.401 1v0.597c0.532-0.324 0.693 0.203 1.094 0.297 0.35-0.012 0.24-0.491 0.698-0.397 0.232 0.136 0.495 0.76 0.894 0.397-0.205-0.087-0.303-0.293-0.297-0.597-0.263-0.236-0.627-0.364-0.796-0.696v-0.299c-0.768-0.029-0.978-0.615-1.593-0.797"/>
     <path id="Shape" fill="#fff" d="m76.195 60.709c0.053-0.352-0.35-0.244-0.295-0.598-0.815 0.02-1.393-0.206-1.996-0.4-0.087 0.178-0.279 0.257-0.197 0.599 0.949 0.01 1.403 0.524 2.488 0.399"/>
     <path id="Shape" fill="#fff" d="m83.564 64.595c0.04-0.47-0.174-0.686-0.098-1.197-0.194-0.068-0.226-0.302-0.395-0.397-0.035-0.764-0.713-0.882-0.599-1.793-0.187 0.021-0.218-0.112-0.397-0.101-0.255 0.409 0.108 1.439-0.304 1.694-0.391 0.13-0.199-0.33-0.594-0.2-0.017-0.279-0.473-0.122-0.399-0.497-0.049-0.317 0.492-0.038 0.399-0.397-0.347-0.385-1.369-0.099-1.89-0.299-0.175 0.061 0.004 0.47-0.202 0.495-0.371 0.065-0.702 0.161-0.996 0.301-0.126 0.302-0.036 0.831-0.399 0.898-0.236-0.236-0.491 0.015-0.798 0-0.196 0.068 0.024 0.556-0.198 0.595-0.203-0.055-0.195-0.299-0.397-0.098-0.248 0.251-0.132 0.864-0.499 0.996-0.222 0.143-0.664 0.067-0.798 0.297 0.106 0.444 0.35 0.998 0.102 1.495 0.193 0.07 0.262 0.267 0.297 0.499 0.055 0.452-0.177 0.619-0.102 1.094 0.295-0.025 0.31 0.226 0.603 0.201 0.413-0.181 0.658-0.533 1.393-0.399 0.35-0.444 1.051-0.543 1.894-0.497 0.283 0.208 0.466 0.526 0.595 0.896 0.387-0.185 0.268 0.231 0.698 0-0.004 0.263 0.035 0.567-0.102 0.697 0.638 0.371 1.015 0.391 1.994 0.401 0.253-0.179 0.436-0.43 0.798-0.503-0.048-0.511 0.475-0.45 0.394-0.994 0.348-0.022 0.26-0.474 0.6-0.497-0.112-0.354 0.171-0.566 0.2-0.898 0.053-0.607-0.194-1.23-0.3-1.792-0.248-0.132-0.411 0.293-0.5 0"/>
     <path id="Shape" fill="#fff" d="m60.357 61.408c-0.175 0.291-0.328 0.601-0.401 0.996-0.432 0.1-0.652 0.403-0.892 0.698-0.082 0.345 0.142 0.383 0.098 0.697-0.09 0.208-0.157 0.442-0.302 0.599 0.216 0.448-0.071 0.847 0.302 1.193 0.321 0.018 0.421-0.175 0.794-0.1 0.218-0.444 0.134-0.643 0.401-1.093v-0.499l0.198-0.202c-0.18-0.436 0.183-0.851 0.203-1.593-0.372 0.007 0.01-0.741-0.401-0.696"/>
     <path id="Shape" fill="#fff" d="m89.048 68.181c0.018-0.285 0.012-0.545-0.299-0.496v0.792c-0.08 0.293-0.473 0.26-0.4 0.702 0.67-0.099 0.226 0.296 0.198 0.597 0.631-0.03 0.656-0.68 0.9-1.096 0.149-0.15 0.416-0.179 0.495-0.403-0.24-0.307-0.424-0.057-0.894-0.096"/>
     <path id="Shape" fill="#fff" d="m87.948 69.375c-0.083 0.212-0.299 0.297-0.295 0.599l-0.401 0.099c-0.167 0.198-0.232 0.499-0.495 0.597-0.414 0.155-0.534 0.595-0.701 0.996 0.324-0.161 0.54-0.049 0.894 0 0.096-0.236 0.406-0.265 0.302-0.696h0.401c0.028-0.569 0.784-0.41 0.794-0.996-0.034-0.33-0.295-0.43-0.499-0.599"/>
     <path id="Shape" fill="#fff" d="m81.177 69.672c-0.112 0.153 0.332 0.603 0.401 0.9 0.483-0.046 0.794-0.264 0.694-0.9-0.433 0.08-0.922-0.122-1.095 0"/>
     <path id="Shape" fill="#fff" d="m36.047 72.76h0.399c0.069-0.389-0.415-0.324-0.399 0"/>
    </g>
    <g id="Dollar-Icon" sketch:type="MSShapeGroup" transform="translate(405.27 28.512)">
     <path id="Shape" fill="#FD611F" d="m67.385 0.83091c-37.12 0-67.208 30.074-67.208 67.204 0.00018 16.583 6.0263 31.731 15.993 43.455l-15.663 29.7 28.485-18.05c10.879 7.6 24.103 12.1 38.393 12.1 37.105 0 67.185-30.1 67.185-67.205 0-37.13-30.08-67.204-67.185-67.204"/>
     <path id="Shape" fill="#C53814" d="m67.385 0.83091c-0.226 0-0.45 0.01629-0.678 0.01833v134.37c0.228 0 0.452 0.02 0.678 0.02 37.105 0 67.185-30.1 67.185-67.205 0-37.13-30.08-67.204-67.185-67.204"/>
     <path id="Shape" fill="#fff" d="m61.359 114.44v-10.82c-7.629-0.34-15.019-2.49-19.335-4.88l3.409-13.303c4.766 2.609 11.474 5 18.875 5 6.6 0 11.036-2.615 11.036-7.043 0-4.325-3.641-7.062-12.176-9.903-12.169-4.098-20.466-9.774-20.466-20.804 0-10.125 7.053-17.978 19.207-20.243v-10.808h11.146v10.01c7.515 0.228 12.637 1.933 16.616 3.757l-3.415 12.841c-2.843-1.361-8.175-3.978-16.382-3.978-7.374 0-9.774 3.295-9.774 6.477 0 3.641 3.984 6.144 13.761 9.669 13.531 4.776 18.873 11.036 18.873 21.384 0 10.117-7.042 18.764-20.131 20.924v11.72h-11.244"/>
    </g>
    <g id="@-Icon" sketch:type="MSShapeGroup" transform="translate(126.27)">
     <path id="Shape" fill="#fff" d="m102.18 51.514c0 27.856-22.58 50.436-50.44 50.436-27.853 0-50.437-22.58-50.437-50.436 0.0004-27.857 22.584-50.443 50.437-50.443 27.86 0.0002 50.44 22.586 50.44 50.443"/>
     <path id="Shape" fill="#103754" d="m61.308 37.399h4.417l-3.028 17.101c-0.338 1.977-0.35 3.409-0.035 4.293 0.318 0.884 1.023 1.324 2.116 1.324 1.092 0 2.167-0.251 3.218-0.756 1.051-0.507 1.996-1.283 2.841-2.336 0.839-1.051 1.526-2.376 2.053-3.975 0.523-1.599 0.788-3.491 0.788-5.678 0-3.157-0.529-5.849-1.582-8.077-1.047-2.232-2.491-4.073-4.32-5.523-1.831-1.452-3.987-2.515-6.468-3.187-2.482-0.672-5.154-1.008-8.016-1.008-3.279 0-6.331 0.588-9.148 1.765-2.818 1.178-5.27 2.799-7.356 4.86-2.079 2.063-3.71 4.513-4.886 7.354-1.179 2.836-1.767 5.92-1.767 9.241 0 3.281 0.493 6.226 1.482 8.837 0.99 2.607 2.43 4.825 4.324 6.657 1.892 1.829 4.238 3.237 7.034 4.226 2.798 0.988 6.008 1.483 9.625 1.483 1.218 0 2.607-0.147 4.165-0.442 1.558-0.293 2.965-0.737 4.227-1.322l1.958 6.055c-1.727 0.841-3.485 1.432-5.273 1.766-1.786 0.338-3.837 0.507-6.15 0.507-4.084 0-7.857-0.591-11.33-1.768-3.468-1.179-6.476-2.925-9.022-5.238-2.545-2.316-4.531-5.185-5.963-8.615-1.429-3.425-2.146-7.39-2.146-11.893 0-4.584 0.823-8.729 2.464-12.433 1.638-3.699 3.847-6.855 6.625-9.466 2.774-2.605 5.994-4.615 9.653-6.024 3.66-1.409 7.529-2.114 11.613-2.114 3.869 0 7.466 0.558 10.789 1.672 3.324 1.114 6.206 2.713 8.643 4.796 2.442 2.081 4.356 4.627 5.743 7.635 1.389 3.008 2.084 6.427 2.084 10.256 0 2.69-0.473 5.216-1.418 7.572-0.951 2.354-2.25 4.395-3.914 6.12-1.662 1.725-3.598 3.091-5.808 4.101-2.208 1.013-4.574 1.516-7.095 1.516-1.055 0-2.029-0.117-2.935-0.349-0.906-0.228-1.664-0.619-2.271-1.167-0.613-0.543-1.065-1.262-1.36-2.144-0.292-0.884-0.377-1.978-0.251-3.281h-0.252c-0.63 0.884-1.316 1.743-2.051 2.586-0.737 0.844-1.546 1.589-2.43 2.241-0.882 0.651-1.851 1.167-2.902 1.545-1.053 0.377-2.209 0.569-3.47 0.569-1.01 0-1.978-0.222-2.902-0.662-0.929-0.442-1.727-1.061-2.399-1.864-0.674-0.798-1.212-1.765-1.611-2.902-0.399-1.136-0.597-2.399-0.597-3.786 0-2.609 0.42-5.142 1.263-7.604 0.839-2.462 1.988-4.639 3.436-6.531 1.45-1.892 3.136-3.418 5.048-4.575 1.914-1.158 3.945-1.735 6.091-1.735 1.473 0 2.711 0.22 3.721 0.66 1.012 0.444 1.935 1.023 2.78 1.737l1.955-2.02zm-3.975 7.637c-0.55-0.462-1.116-0.821-1.705-1.071-0.59-0.255-1.326-0.381-2.207-0.381-1.263 0-2.43 0.356-3.503 1.073-1.074 0.717-1.998 1.64-2.776 2.776-0.78 1.137-1.379 2.411-1.8 3.819-0.422 1.409-0.63 2.788-0.63 4.134 0 1.387 0.283 2.523 0.852 3.407 0.566 0.884 1.547 1.324 2.936 1.324 0.585 0 1.216-0.179 1.89-0.536 0.672-0.356 1.326-0.829 1.957-1.419 0.634-0.591 1.241-1.265 1.829-2.019 0.591-0.757 1.114-1.555 1.578-2.401l1.579-8.706z"/>
    </g>
    <g id="Envelope" sketch:type="MSShapeGroup" transform="translate(164.96 107.94)">
     <path id="Shape" fill="#FD611F" d="m127.44 0.1283l126.79 110.07h-253.57l126.78-110.07"/>
     <path id="Shape" fill="#FD611F" d="m226.97 86.085l27.38 24.435v160.95c0 9.13-7.38 16.52-16.5 16.52h-220.81c-9.1178 0-16.504-7.39-16.504-16.52l-0.00039-160.95 27.373-22.156"/>
     <path id="Shape" fill="#fff" d="m29.434 34.163h196.03v177.5h-196.03l0.004-177.5z"/>
     <path id="Shape" fill="#A6DAE9" d="m56.298 169.09h142.28v6.34h-142.28l-0.002-6.34z"/>
     <path id="Shape" fill="#A6DAE9" d="m56.298 144.96h142.28v6.35h-142.28l-0.002-6.35z"/>
     <path id="Shape" fill="#A6DAE9" d="m56.298 120.82h142.28v6.35h-142.28l-0.002-6.35z"/>
     <path id="Shape" fill="#A6DAE9" d="m56.298 96.679h142.28v6.351h-142.28l-0.002-6.351z"/>
     <path id="Shape" fill="#A6DAE9" d="m56.298 72.542h85.112v6.352h-85.112v-6.352z"/>
     <path id="Shape" fill="#36D3DE" d="m97.359 191.95l-95.705 85.36c2.3458 6.23 8.3271 10.68 15.382 10.68h220.81c7.04 0 13.03-4.45 15.38-10.68l-95.71-85.36h-60.161"/>
     <path id="Shape" fill="#2DAEB7" d="m158.01 192.39l95.22 84.92c-0.31 0.83-0.7 1.62-1.12 2.38l0.02 0.03c1.41-2.43 2.22-5.24 2.22-8.25v-160.94l-96.34 81.86"/>
     <path id="Shape" fill="#2DAEB7" d="m1.6537 277.31l95.22-84.92-96.338-81.86-0.00039 160.94c0 3.01 0.81869 5.82 2.2158 8.25l0.0326-0.03c-0.4359-0.76-0.8228-1.55-1.1303-2.38"/>
    </g>
   </g>
  </g>
 </g>
</svg>