<?xml version="1.0" encoding="utf-8"?>
<!-- Generator: Adobe Illustrator 15.0.2, SVG Export Plug-In . SVG Version: 6.00 Build 0)  -->
<!DOCTYPE svg PUBLIC "-//W3C//DTD SVG 1.1//EN" "http://www.w3.org/Graphics/SVG/1.1/DTD/svg11.dtd">
<svg version="1.1" id="Layer_1" xmlns="http://www.w3.org/2000/svg" xmlns:xlink="http://www.w3.org/1999/xlink" x="0px" y="0px"
	 width="750px" height="750px" viewBox="0 0 750 750" enable-background="new 0 0 750 750" xml:space="preserve">
<line fill="none" stroke="#007BB5" stroke-width="2" stroke-linecap="round" stroke-linejoin="round" stroke-miterlimit="10" x1="181.495" y1="383.61" x2="324.116" y2="383.61"/>
<line fill="none" stroke="#007BB5" stroke-width="2" stroke-linecap="round" stroke-linejoin="round" stroke-miterlimit="10" x1="421.894" y1="383.61" x2="591.29" y2="383.61"/>
<path fill="none" stroke="#007BB5" stroke-width="2" stroke-linecap="round" stroke-linejoin="round" stroke-miterlimit="10" d="
	M181.495,353.61h62.5c70.121,0,15-96.457,80.121-96.457"/>
<path fill="none" stroke="#007BB5" stroke-width="2" stroke-linecap="round" stroke-linejoin="round" stroke-miterlimit="10" d="
	M421.894,252.317h47.5c70.125,0,15-55.18,80.125-55.18h42.086"/>
<path fill="none" stroke="#007BB5" stroke-width="2" stroke-linecap="round" stroke-linejoin="round" stroke-miterlimit="10" d="
	M421.894,272.792h47.5c70.125,0,15,38.516,80.125,38.516"/>
<path fill="none" stroke="#007BB5" stroke-width="2" stroke-linecap="round" stroke-linejoin="round" stroke-miterlimit="10" d="
	M421.894,536.729h47.5c70.125,0,15,55.182,80.125,55.182h42.086"/>
<path fill="none" stroke="#007BB5" stroke-width="2" stroke-linecap="round" stroke-linejoin="round" stroke-miterlimit="10" d="
	M421.894,516.255h47.5c70.125,0,15-38.516,80.125-38.516"/>
<path fill="none" stroke="#007BB5" stroke-width="2" stroke-linecap="round" stroke-linejoin="round" stroke-miterlimit="10" d="
	M181.495,411.216h62.5c70.121,0,15,106.457,80.121,106.457"/>
<g>
	<path fill="#5EA9DD" stroke="#007BB5" stroke-width="2" stroke-miterlimit="10" d="M113.536,388.927"/>
	<path fill="#5EA9DD" stroke="#007BB5" stroke-width="2" stroke-miterlimit="10" d="M138.849,320.524
		c-0.721-0.275-1.564,0.008-2.391,0.697c-1.277-13.367-7.586-25.299-22.846-25.299c-3.348,0-9.396,1.615-9.396,5.273
		c-10.02,0-12.883,10.014-13.537,19.957c-0.102-0.08-0.199-0.152-0.301-0.219c-0.697-0.475-1.393-0.643-2.004-0.41
		c-1.051,0.398-1.592,1.875-1.557,3.793c0.01,0.576,0.076,1.191,0.191,1.828s0.287,1.299,0.514,1.963
		c1.209,3.553,2.219,8.457,5.232,5.273c0.096-0.098,0.178-0.219,0.264-0.332c2.664,12.301,12.543,21.461,20.594,21.461
		c9.375,0,18.273-9.117,20.66-21.375c0.006,0.008,0.012,0.018,0.02,0.025c0.059,0.074,0.115,0.154,0.176,0.221
		c3.018,3.184,4.023-1.721,5.234-5.273c0.227-0.664,0.396-1.326,0.514-1.963s0.18-1.252,0.191-1.828
		C140.442,322.399,139.901,320.923,138.849,320.524z"/>
	<path fill="#5EA9DD" stroke="#007BB5" stroke-width="2" stroke-miterlimit="10" d="M96.896,355.854c0,0-0.883-2.152-2.076-1.693
		c-1.373,0.523-2.592,1.596-3.617,2.791c-13.717,3.76-20.832,12.062-20.832,26.744v42.729h17.504v-5.74h52.535v5.74h16.445v-42.729
		c0-15.205-6.34-23.568-21.262-27.129l0,0c-0.908-0.982-2.041-1.742-3.186-2.406c-0.307-0.178-0.994,0.545-1.973,1.939
		l-16.898,23.824L96.896,355.854z"/>
</g>
<g>
	<path fill="#BFBFBF" stroke="#007BB5" stroke-width="2" stroke-miterlimit="10" d="M371.917,256.267"/>
	<path fill="#BFBFBF" stroke="#007BB5" stroke-width="2" stroke-miterlimit="10" d="M390.901,204.964
		c-0.543-0.205-1.176,0.006-1.795,0.523c-0.959-10.025-5.689-18.973-17.135-18.973c-2.512,0-7.047,1.211-7.047,3.953
		c-7.516,0-9.662,7.512-10.152,14.969c-0.076-0.061-0.15-0.115-0.225-0.164c-0.523-0.355-1.047-0.482-1.504-0.309
		c-0.789,0.301-1.193,1.406-1.168,2.846c0.008,0.432,0.057,0.895,0.143,1.371c0.088,0.479,0.215,0.975,0.387,1.473
		c0.906,2.664,1.664,6.342,3.924,3.955c0.072-0.074,0.135-0.164,0.199-0.25c1.996,9.225,9.406,16.096,15.443,16.096
		c7.031,0,13.705-6.838,15.496-16.031c0.004,0.008,0.008,0.014,0.016,0.02c0.043,0.055,0.086,0.115,0.133,0.166
		c2.26,2.387,3.016-1.291,3.926-3.955c0.168-0.498,0.297-0.994,0.385-1.473c0.086-0.477,0.131-0.939,0.143-1.371
		C392.095,206.37,391.687,205.265,390.901,204.964z"/>
	<path fill="#BFBFBF" stroke="#007BB5" stroke-width="2" stroke-miterlimit="10" d="M359.435,231.462c0,0-0.662-1.613-1.557-1.27
		c-1.031,0.393-1.945,1.197-2.715,2.092c-10.285,2.822-15.623,9.049-15.623,20.061v32.045h13.129v-4.307h39.4v4.307h12.332v-32.045
		c0-11.404-4.752-17.678-15.941-20.348l0,0c-0.684-0.736-1.533-1.307-2.393-1.805c-0.229-0.135-0.742,0.41-1.479,1.453
		l-12.672,17.869L359.435,231.462z"/>
</g>
<g>
	<path fill="#5EA9DD" stroke="#007BB5" stroke-width="2" stroke-miterlimit="10" d="M371.917,390.655"/>
	<path fill="#5EA9DD" stroke="#007BB5" stroke-width="2" stroke-miterlimit="10" d="M390.901,339.354
		c-0.543-0.205-1.176,0.006-1.795,0.525c-0.959-10.027-5.689-18.977-17.135-18.977c-2.512,0-7.047,1.211-7.047,3.957
		c-7.516,0-9.662,7.508-10.152,14.967c-0.076-0.061-0.15-0.115-0.225-0.166c-0.523-0.354-1.047-0.48-1.504-0.307
		c-0.789,0.299-1.193,1.406-1.168,2.846c0.008,0.434,0.057,0.895,0.143,1.371c0.088,0.477,0.215,0.973,0.387,1.471
		c0.906,2.666,1.664,6.344,3.924,3.955c0.072-0.072,0.135-0.164,0.199-0.248c1.996,9.225,9.406,16.096,15.443,16.096
		c7.031,0,13.705-6.838,15.496-16.031c0.004,0.006,0.008,0.014,0.016,0.018c0.043,0.057,0.086,0.117,0.133,0.166
		c2.26,2.389,3.016-1.289,3.926-3.955c0.168-0.498,0.297-0.994,0.385-1.471c0.086-0.477,0.131-0.938,0.143-1.371
		C392.095,340.761,391.687,339.653,390.901,339.354z"/>
	<path fill="#5EA9DD" stroke="#007BB5" stroke-width="2" stroke-miterlimit="10" d="M359.435,365.853c0,0-0.662-1.613-1.557-1.27
		c-1.031,0.391-1.945,1.197-2.715,2.094c-10.285,2.818-15.623,9.047-15.623,20.059v32.045h13.129v-4.307h39.4v4.307h12.332v-32.045
		c0-11.404-4.752-17.676-15.941-20.348l0,0c-0.684-0.738-1.533-1.307-2.393-1.805c-0.229-0.133-0.742,0.408-1.479,1.453
		l-12.672,17.869L359.435,365.853z"/>
</g>
<g>
	<path fill="#5EA9DD" stroke="#007BB5" stroke-width="2" stroke-miterlimit="10" d="M631.261,390.61"/>
	<path fill="#5EA9DD" stroke="#007BB5" stroke-width="2" stroke-miterlimit="10" d="M645.499,352.134
		c-0.404-0.154-0.879,0.006-1.342,0.395c-0.717-7.521-4.268-14.23-12.852-14.23c-1.885,0-5.285,0.906-5.285,2.965
		c-5.639,0-7.246,5.633-7.615,11.227c-0.057-0.045-0.113-0.086-0.168-0.123c-0.395-0.268-0.785-0.361-1.129-0.232
		c-0.59,0.227-0.895,1.055-0.875,2.137c0.006,0.322,0.043,0.668,0.105,1.025c0.066,0.359,0.162,0.732,0.291,1.105
		c0.682,2,1.248,4.756,2.943,2.967c0.053-0.057,0.102-0.125,0.15-0.189c1.496,6.92,7.053,12.074,11.582,12.074
		c5.273,0,10.279-5.131,11.621-12.023c0.002,0.004,0.008,0.008,0.01,0.014c0.035,0.041,0.066,0.088,0.1,0.125
		c1.697,1.789,2.264-0.967,2.945-2.967c0.127-0.373,0.221-0.746,0.291-1.105c0.062-0.357,0.1-0.703,0.105-1.025
		C646.397,353.188,646.093,352.36,645.499,352.134z"/>
	<path fill="#5EA9DD" stroke="#007BB5" stroke-width="2" stroke-miterlimit="10" d="M621.901,372.009c0,0-0.496-1.211-1.168-0.951
		c-0.77,0.293-1.457,0.895-2.035,1.568c-7.715,2.115-11.717,6.785-11.717,15.043v24.035h9.846v-3.23h29.551v3.23h9.252v-24.035
		c0-8.551-3.568-13.256-11.961-15.26l0,0c-0.51-0.553-1.146-0.979-1.791-1.352c-0.172-0.102-0.559,0.305-1.109,1.088l-9.508,13.402
		L621.901,372.009z"/>
</g>
<g>
	<path fill="#5EA9DD" stroke="#007BB5" stroke-width="2" stroke-miterlimit="10" d="M631.261,200.452"/>
	<path fill="#5EA9DD" stroke="#007BB5" stroke-width="2" stroke-miterlimit="10" d="M645.499,161.976
		c-0.404-0.154-0.879,0.006-1.342,0.395c-0.717-7.521-4.268-14.23-12.852-14.23c-1.885,0-5.285,0.908-5.285,2.967
		c-5.639,0-7.246,5.631-7.615,11.227c-0.057-0.047-0.113-0.088-0.168-0.125c-0.395-0.266-0.785-0.361-1.129-0.232
		c-0.59,0.227-0.895,1.055-0.875,2.137c0.006,0.324,0.043,0.67,0.105,1.027c0.066,0.357,0.162,0.73,0.291,1.104
		c0.682,2,1.248,4.756,2.943,2.967c0.053-0.057,0.102-0.123,0.15-0.188c1.496,6.92,7.053,12.072,11.582,12.072
		c5.273,0,10.279-5.129,11.621-12.023c0.002,0.004,0.008,0.01,0.01,0.014c0.035,0.041,0.066,0.088,0.1,0.125
		c1.697,1.789,2.264-0.967,2.945-2.967c0.127-0.373,0.221-0.746,0.291-1.104c0.062-0.357,0.1-0.703,0.105-1.027
		C646.397,163.03,646.093,162.202,645.499,161.976z"/>
	<path fill="#5EA9DD" stroke="#007BB5" stroke-width="2" stroke-miterlimit="10" d="M621.901,181.853c0,0-0.496-1.211-1.168-0.953
		c-0.77,0.293-1.457,0.896-2.035,1.568c-7.715,2.115-11.717,6.787-11.717,15.045v24.033h9.846v-3.229h29.551v3.229h9.252v-24.033
		c0-8.555-3.568-13.258-11.961-15.262l0,0c-0.51-0.553-1.146-0.979-1.791-1.352c-0.172-0.102-0.559,0.305-1.109,1.09l-9.508,13.4
		L621.901,181.853z"/>
</g>
<g>
	<path fill="#BFBFBF" stroke="#007BB5" stroke-width="2" stroke-miterlimit="10" d="M587.897,295.53"/>
	<path fill="#BFBFBF" stroke="#007BB5" stroke-width="2" stroke-miterlimit="10" d="M602.136,257.054
		c-0.406-0.154-0.879,0.008-1.344,0.396c-0.719-7.523-4.266-14.23-12.852-14.23c-1.883,0-5.287,0.906-5.287,2.965
		c-5.635,0-7.246,5.633-7.611,11.227c-0.059-0.047-0.113-0.086-0.172-0.125c-0.391-0.266-0.781-0.361-1.129-0.232
		c-0.59,0.229-0.893,1.055-0.873,2.137c0.006,0.324,0.045,0.67,0.107,1.027c0.062,0.359,0.16,0.73,0.289,1.104
		c0.68,2,1.25,4.756,2.943,2.967c0.053-0.057,0.1-0.123,0.148-0.188c1.498,6.92,7.053,12.072,11.584,12.072
		c5.273,0,10.279-5.129,11.621-12.021c0,0.002,0.006,0.008,0.012,0.012c0.033,0.041,0.062,0.088,0.098,0.125
		c1.699,1.789,2.266-0.967,2.943-2.967c0.127-0.373,0.225-0.744,0.291-1.104c0.066-0.357,0.1-0.703,0.107-1.027
		C603.034,258.108,602.726,257.282,602.136,257.054z"/>
	<path fill="#BFBFBF" stroke="#007BB5" stroke-width="2" stroke-miterlimit="10" d="M578.538,276.931c0,0-0.5-1.211-1.168-0.953
		c-0.773,0.293-1.461,0.896-2.035,1.57c-7.715,2.113-11.719,6.785-11.719,15.043v24.033h9.848v-3.229h29.551v3.229h9.248v-24.033
		c0-8.555-3.564-13.256-11.959-15.262l0,0c-0.512-0.551-1.146-0.979-1.791-1.352c-0.17-0.1-0.559,0.305-1.107,1.09l-9.508,13.4
		L578.538,276.931z"/>
</g>
<g>
	<path fill="#5EA9DD" stroke="#007BB5" stroke-width="2" stroke-miterlimit="10" d="M587.983,485.688"/>
	<path fill="#5EA9DD" stroke="#007BB5" stroke-width="2" stroke-miterlimit="10" d="M573.745,447.212
		c0.404-0.152,0.881,0.006,1.344,0.395c0.719-7.52,4.27-14.23,12.852-14.23c1.883,0,5.285,0.906,5.285,2.965
		c5.637,0,7.246,5.633,7.617,11.229c0.053-0.047,0.111-0.088,0.164-0.125c0.396-0.266,0.787-0.361,1.129-0.232
		c0.59,0.227,0.896,1.055,0.879,2.137c-0.01,0.322-0.043,0.67-0.109,1.025c-0.066,0.359-0.162,0.732-0.291,1.107
		c-0.678,1.998-1.244,4.754-2.941,2.965c-0.055-0.055-0.1-0.125-0.15-0.188c-1.498,6.918-7.055,12.072-11.582,12.072
		c-5.273,0-10.279-5.129-11.621-12.023c-0.004,0.006-0.008,0.01-0.012,0.014c-0.031,0.043-0.066,0.09-0.1,0.125
		c-1.697,1.789-2.26-0.967-2.943-2.965c-0.129-0.375-0.223-0.748-0.289-1.107c-0.062-0.355-0.102-0.703-0.107-1.025
		C572.849,448.267,573.151,447.438,573.745,447.212z"/>
	<path fill="#5EA9DD" stroke="#007BB5" stroke-width="2" stroke-miterlimit="10" d="M597.347,467.089c0,0,0.492-1.211,1.166-0.953
		c0.771,0.293,1.455,0.896,2.033,1.568c7.715,2.117,11.717,6.787,11.717,15.043v24.035h-9.844v-3.229h-29.551v3.229h-9.252v-24.035
		c0-8.551,3.568-13.256,11.959-15.258l0,0c0.51-0.555,1.15-0.98,1.793-1.354c0.174-0.102,0.559,0.307,1.111,1.09l9.504,13.4
		L597.347,467.089z"/>
</g>
<g>
	<path fill="#BFBFBF" stroke="#007BB5" stroke-width="2" stroke-miterlimit="10" d="M631.351,580.767"/>
	<path fill="#BFBFBF" stroke="#007BB5" stroke-width="2" stroke-miterlimit="10" d="M617.112,542.29
		c0.404-0.152,0.879,0.006,1.342,0.396c0.717-7.521,4.268-14.232,12.852-14.232c1.885,0,5.285,0.906,5.285,2.969
		c5.639,0,7.246,5.629,7.615,11.225c0.057-0.047,0.113-0.088,0.168-0.125c0.395-0.266,0.785-0.361,1.129-0.232
		c0.59,0.227,0.895,1.055,0.875,2.137c-0.006,0.324-0.043,0.67-0.105,1.027c-0.066,0.357-0.162,0.73-0.291,1.105
		c-0.682,1.998-1.248,4.754-2.943,2.965c-0.053-0.055-0.102-0.125-0.15-0.188c-1.496,6.918-7.053,12.072-11.582,12.072
		c-5.273,0-10.279-5.129-11.621-12.023c-0.002,0.006-0.008,0.01-0.01,0.014c-0.035,0.043-0.066,0.09-0.1,0.125
		c-1.697,1.789-2.264-0.967-2.945-2.965c-0.127-0.375-0.221-0.748-0.291-1.105c-0.062-0.357-0.1-0.703-0.105-1.027
		C616.214,543.345,616.519,542.517,617.112,542.29z"/>
	<path fill="#BFBFBF" stroke="#007BB5" stroke-width="2" stroke-miterlimit="10" d="M640.71,562.167c0,0,0.496-1.211,1.168-0.953
		c0.77,0.293,1.457,0.896,2.035,1.57c7.715,2.115,11.717,6.785,11.717,15.045v24.031h-9.846v-3.229h-29.551v3.229h-9.252v-24.031
		c0-8.555,3.568-13.258,11.961-15.262l0,0c0.51-0.555,1.146-0.98,1.791-1.354c0.172-0.1,0.559,0.307,1.109,1.09l9.508,13.4
		L640.71,562.167z"/>
</g>
<g>
	<path fill="#BFBFBF" stroke="#007BB5" stroke-width="2" stroke-miterlimit="10" d="M371.917,525.044"/>
	<path fill="#BFBFBF" stroke="#007BB5" stroke-width="2" stroke-miterlimit="10" d="M390.901,473.747
		c-0.543-0.209-1.176,0.004-1.795,0.521c-0.959-10.025-5.689-18.975-17.135-18.975c-2.512,0-7.047,1.211-7.047,3.955
		c-7.516,0-9.662,7.51-10.152,14.969c-0.076-0.061-0.15-0.115-0.225-0.164c-0.523-0.357-1.047-0.482-1.504-0.307
		c-0.789,0.297-1.193,1.406-1.168,2.844c0.008,0.432,0.057,0.893,0.143,1.369c0.088,0.479,0.215,0.977,0.387,1.475
		c0.906,2.664,1.664,6.344,3.924,3.955c0.072-0.072,0.135-0.166,0.199-0.248c1.996,9.223,9.406,16.094,15.443,16.094
		c7.031,0,13.705-6.836,15.496-16.031c0.004,0.004,0.008,0.012,0.016,0.02c0.043,0.055,0.086,0.115,0.133,0.166
		c2.26,2.389,3.016-1.291,3.926-3.955c0.168-0.498,0.297-0.996,0.385-1.475c0.086-0.477,0.131-0.938,0.143-1.369
		C392.095,475.153,391.687,474.044,390.901,473.747z"/>
	<path fill="#BFBFBF" stroke="#007BB5" stroke-width="2" stroke-miterlimit="10" d="M359.435,500.243c0,0-0.662-1.613-1.557-1.27
		c-1.031,0.393-1.945,1.195-2.715,2.092c-10.285,2.822-15.623,9.049-15.623,20.059v32.045h13.129v-4.305h39.4v4.305h12.332v-32.045
		c0-11.404-4.752-17.676-15.941-20.346l0,0c-0.684-0.738-1.533-1.307-2.393-1.805c-0.229-0.135-0.742,0.406-1.479,1.453
		l-12.672,17.871L359.435,500.243z"/>
</g>
</svg>
