<?xml version="1.0" encoding="utf-8"?>
<!-- Generator: Adobe Illustrator 22.0.1, SVG Export Plug-In . SVG Version: 6.00 Build 0)  -->
<svg version="1.1" id="Layer_1" xmlns="http://www.w3.org/2000/svg" xmlns:xlink="http://www.w3.org/1999/xlink" x="0px" y="0px"
	 viewBox="0 0 496 496" style="enable-background:new 0 0 496 496;" xml:space="preserve">
<style type="text/css">
	.st0{fill:#F9F9F9;stroke:#231F20;stroke-miterlimit:10;}
</style>
<g>
	<g>
		<g>
			<rect x="131.9" y="409.3" class="st0" width="64.5" height="12.9"/>
			<path class="st0" d="M319.3,254.5c3.2,32.6,30.8,58.1,64.2,58.1c35.6,0,64.5-29,64.5-64.5s-29-64.5-64.5-64.5
				c-33.4,0-61,25.5-64.2,58.1h-13.2V119h13.2c3.2,32.6,30.8,58.1,64.2,58.1c35.6,0,64.5-29,64.5-64.5S419,48,383.5,48
				c-33.4,0-61,25.5-64.2,58.1h-26.1v135.5h-12.9V80.3c0-17.8-14.4-32.3-32.3-32.3H80.3C62.4,48,48,62.4,48,80.3v335.5
				c0,17.8,14.4,32.3,32.3,32.3H248c17.8,0,32.3-14.4,32.3-32.3V254.5h12.9v135.5h26.1c3.2,32.6,30.8,58.1,64.2,58.1
				c35.6,0,64.5-29,64.5-64.5S419,319,383.5,319c-33.4,0-61,25.5-64.2,58.1h-13.2V254.5H319.3z M383.5,196.4
				c28.5,0,51.6,23.1,51.6,51.6s-23.1,51.6-51.6,51.6c-28.5,0-51.6-23.1-51.6-51.6S355,196.4,383.5,196.4z M383.5,60.9
				c28.5,0,51.6,23.1,51.6,51.6s-23.1,51.6-51.6,51.6c-28.5,0-51.6-23.1-51.6-51.6S355,60.9,383.5,60.9z M267.4,415.7
				c0,10.6-8.7,19.4-19.4,19.4H80.3c-10.6,0-19.4-8.7-19.4-19.4v-19.4h206.5V415.7z M267.4,241.5h-13.2c-3.3-46.8-42.3-83.9-90-83.9
				c-49.8,0-90.3,40.5-90.3,90.3s40.5,90.3,90.3,90.3c47.7,0,86.7-37.1,90-83.9h13.2v129H60.9V99.6h206.5V241.5z M204.9,202.4
				c-6-12.2-13.7-21.9-20.6-29c13.9,3.8,26.2,11.3,35.8,21.4C217,196.9,212,199.8,204.9,202.4z M228.3,204.9
				c7.2,10.6,11.8,23.2,12.9,36.7h-25.8c-0.6-9.9-2.7-19-5.6-27.2C218.4,211.1,224.5,207.5,228.3,204.9z M192.2,206.2
				c-6.2,1.5-13.4,2.5-21.6,2.9v-31.2C177.1,184.1,185.5,193.7,192.2,206.2z M197.4,218.2c2.6,7.1,4.4,14.8,5,23.3h-31.9V222
				C180.9,221.5,189.8,220.2,197.4,218.2z M202.5,254.5c-0.6,8.5-2.4,16.2-5,23.3c-7.7-1.9-16.6-3.3-26.9-3.8v-19.5H202.5z
				 M192.2,289.8c-6.6,12.5-15.1,22.1-21.6,28.3v-31.2C178.7,287.3,185.9,288.3,192.2,289.8z M204.9,293.6
				c7.1,2.7,12.1,5.6,15.2,7.7c-9.6,10.2-21.9,17.7-35.8,21.4C191.1,315.5,198.9,305.7,204.9,293.6z M209.9,281.6
				c2.9-8.2,4.9-17.3,5.6-27.2h25.8c-1.1,13.5-5.6,26-12.9,36.7C224.5,288.5,218.4,284.9,209.9,281.6z M118.4,214.4
				c-2.9,8.2-4.9,17.3-5.6,27.2H87c1.1-13.5,5.6-26,12.9-36.7C103.7,207.5,109.9,211.1,118.4,214.4z M108.1,194.8
				c9.6-10.2,21.9-17.7,35.8-21.4c-6.8,7.2-14.5,16.9-20.6,29C116.3,199.8,111.2,196.9,108.1,194.8z M112.8,254.5
				c0.6,9.9,2.7,19,5.6,27.2c-8.5,3.2-14.7,6.9-18.5,9.6C92.8,280.6,88.2,268,87,254.5L112.8,254.5L112.8,254.5z M123.3,293.6
				c6,12.2,13.7,21.9,20.6,29c-13.9-3.8-26.2-11.3-35.8-21.4C111.2,299.1,116.3,296.2,123.3,293.6z M136.1,289.8
				c6.2-1.5,13.4-2.5,21.6-2.9v31.2C151.1,311.9,142.8,302.3,136.1,289.8z M130.8,277.8c-2.6-7.1-4.4-14.8-5-23.3h31.9V274
				C147.4,274.5,138.5,275.8,130.8,277.8z M125.7,241.5c0.6-8.5,2.4-16.2,5-23.3c7.7,1.9,16.6,3.3,26.9,3.8v19.5H125.7z
				 M136.1,206.2c6.6-12.5,15.1-22.1,21.6-28.3v31.2C149.5,208.7,142.4,207.7,136.1,206.2z M267.4,86.7H60.9v-6.5
				c0-10.6,8.7-19.4,19.4-19.4H248c10.6,0,19.4,8.7,19.4,19.4V86.7z M383.5,331.9c28.5,0,51.6,23.1,51.6,51.6
				c0,28.5-23.1,51.6-51.6,51.6c-28.5,0-51.6-23.1-51.6-51.6C331.9,355,355,331.9,383.5,331.9z"/>
			<polygon class="st0" points="377,151.2 389.9,151.2 389.9,119 409.3,119 409.3,106.1 389.9,106.1 389.9,86.7 409.3,86.7 
				409.3,73.8 377,73.8 377,106.1 357.7,106.1 357.7,119 377,119 			"/>
			<polygon class="st0" points="377,422.2 409.3,422.2 409.3,409.3 389.9,409.3 389.9,370.6 402.8,370.6 402.8,357.7 389.9,357.7 
				389.9,344.8 377,344.8 377,357.7 364.1,357.7 364.1,370.6 377,370.6 			"/>
			<rect x="351.2" y="235.1" class="st0" width="12.9" height="45.2"/>
			<rect x="351.2" y="209.3" class="st0" width="12.9" height="12.9"/>
			<path class="st0" d="M389.9,257.7c0-5.3,4.4-9.7,9.7-9.7c5.3,0,9.7,4.4,9.7,9.7v22.6h12.9v-22.6c0-12.4-10.2-22.6-22.6-22.6
				c-3.5,0-6.8,0.8-9.7,2.2v-2.2H377v45.2h12.9V257.7z"/>
		</g>
	</g>
</g>
</svg>
