<?xml version="1.0" encoding="utf-8"?>
<!-- Generator: Adobe Illustrator 22.0.1, SVG Export Plug-In . SVG Version: 6.00 Build 0)  -->
<svg version="1.1" id="Layer_1" xmlns="http://www.w3.org/2000/svg" xmlns:xlink="http://www.w3.org/1999/xlink" x="0px" y="0px"
	 viewBox="0 0 135 135" style="enable-background:new 0 0 135 135;" xml:space="preserve">
<style type="text/css">
	.st0{fill:#FFFFFF;}
	.st1{fill:#E9F3F4;}
	.st2{fill:none;stroke:#33363A;stroke-width:3;stroke-linecap:round;stroke-linejoin:round;stroke-miterlimit:10;}
</style>
<path class="st0" d="M126,48.9c-2.3-0.9-4.8-0.4-6.6,1.3L88.6,81c-2.4,2.4-2.4,6.2,0,8.5l30.8,30.8c1.7,1.7,4.3,2.2,6.6,1.3
	c2.3-0.9,3.7-3.1,3.7-5.6V54.5C129.7,52,128.3,49.9,126,48.9z"/>
<path class="st1" d="M126,63.1c-2.3-0.9-4.8-0.4-6.6,1.3l-28,28l28,28c1.7,1.7,4.3,2.2,6.6,1.3c2.3-0.9,3.7-3.1,3.7-5.6V68.6
	C129.7,66.2,128.3,64,126,63.1z"/>
<path class="st2" d="M126,48.9c-2.3-0.9-4.8-0.4-6.6,1.3L88.6,81c-2.4,2.4-2.4,6.2,0,8.5l30.8,30.8c1.7,1.7,4.3,2.2,6.6,1.3
	c2.3-0.9,3.7-3.1,3.7-5.6V54.5C129.7,52,128.3,49.9,126,48.9z"/>
<path class="st0" d="M98.9,116.4c0,7.1-5.8,12.9-12.9,12.9H18.1c-7.1,0-12.9-5.8-12.9-12.9V54.1c0-7.1,5.8-12.9,12.9-12.9h67.9
	c7.1,0,12.9,5.8,12.9,12.9C98.9,54.1,98.9,116.4,98.9,116.4z"/>
<path class="st1" d="M18.1,41.2c-5.3,0-9.8,3.2-11.8,7.8c2,4.6,6.5,7.8,11.8,7.8h67.9c5.3,0,9.8-3.2,11.8-7.8
	c-2-4.6-6.5-7.8-11.8-7.8H18.1z"/>
<path class="st2" d="M98.9,116.4c0,7.1-5.8,12.9-12.9,12.9H18.1c-7.1,0-12.9-5.8-12.9-12.9V54.1c0-7.1,5.8-12.9,12.9-12.9h67.9
	c7.1,0,12.9,5.8,12.9,12.9C98.9,54.1,98.9,116.4,98.9,116.4z"/>
<path class="st2" d="M112.5,85.3V58.4"/>
<path class="st2" d="M112.5,93.4v-2.2"/>
<path class="st2" d="M112.5,101.1V99"/>
<path class="st2" d="M112.5,112.1V107"/>
<g>
	<path class="st0" d="M48.4,23.5c0,9.8-8,17.8-17.8,17.8c-9.8,0-17.8-8-17.8-17.8c0-9.8,8-17.8,17.8-17.8
		C40.4,5.7,48.4,13.7,48.4,23.5z"/>
	<path class="st1" d="M30.6,5.7c9.8,0,17.8,8,17.8,17.8c0,9.8-8,17.8-17.8,17.8"/>
	<path class="st2" d="M48.4,23.5c0,9.8-8,17.8-17.8,17.8c-9.8,0-17.8-8-17.8-17.8c0-9.8,8-17.8,17.8-17.8
		C40.4,5.7,48.4,13.7,48.4,23.5z"/>
	<g>
		<circle class="st1" cx="30.6" cy="23.5" r="8"/>
		<path class="st0" d="M22.7,23.5c0-4.4,3.6-8,8-8c4.4,0,8,3.6,8,8"/>
		<circle class="st2" cx="30.6" cy="23.5" r="8"/>
	</g>
	<g>
		<path class="st0" d="M91.3,23.5c0,9.8-8,17.8-17.8,17.8c-9.8,0-17.8-8-17.8-17.8c0-9.8,8-17.8,17.8-17.8
			C83.4,5.7,91.3,13.7,91.3,23.5z"/>
		<path class="st1" d="M73.6,5.7c9.8,0,17.8,8,17.8,17.8c0,9.8-8,17.8-17.8,17.8"/>
		<path class="st2" d="M91.3,23.5c0,9.8-8,17.8-17.8,17.8c-9.8,0-17.8-8-17.8-17.8c0-9.8,8-17.8,17.8-17.8
			C83.4,5.7,91.3,13.7,91.3,23.5z"/>
		<g>
			<circle class="st1" cx="73.6" cy="23.5" r="8"/>
			<path class="st0" d="M65.6,23.5c0-4.4,3.6-8,8-8c4.4,0,8,3.6,8,8"/>
			<circle class="st2" cx="73.6" cy="23.5" r="8"/>
		</g>
	</g>
</g>
<g>
	<path class="st0" d="M78.8,80.8h-7.9c-0.3-0.9-0.7-1.8-1.1-2.7l5.6-5.6c2.4-2.5,2.3-6.4-0.2-8.8c-2.4-2.3-6.2-2.3-8.6,0L61,69.3
		c-0.9-0.4-1.8-0.8-2.7-1.1v-7.9c0-3.4-2.8-6.2-6.2-6.2l0,0c-3.4,0-6.2,2.8-6.2,6.2c0,0,0,0,0,0v7.9c-0.9,0.3-1.8,0.7-2.7,1.1
		l-5.6-5.6c-2.4-2.4-6.4-2.4-8.8,0.1c-2.4,2.4-2.4,6.3,0,8.7l5.6,5.6c-0.4,0.9-0.8,1.8-1.1,2.7h-7.9c-3.4,0-6.2,2.8-6.2,6.2
		c0,3.4,2.8,6.2,6.2,6.2h7.9c0.3,0.9,0.7,1.8,1.1,2.7l-5.6,5.6c-2.4,2.4-2.4,6.3,0,8.8c1.2,1.2,2.7,1.8,4.4,1.8
		c1.6,0,3.2-0.7,4.4-1.8l5.6-5.6c0.9,0.4,1.8,0.8,2.7,1.1v7.9c0,3.4,2.8,6.2,6.2,6.2c0,0,0,0,0,0c3.4,0,6.2-2.8,6.2-6.2v-7.9
		c0.9-0.3,1.8-0.7,2.7-1.1l5.6,5.6c1.2,1.2,2.8,1.8,4.4,1.8s3.2-0.6,4.4-1.8c2.4-2.4,2.4-6.3,0-8.8l-5.6-5.6
		c0.4-0.9,0.8-1.8,1.1-2.7h7.9c3.4,0,6.2-2.8,6.2-6.2C85,83.6,82.2,80.8,78.8,80.8C78.8,80.8,78.8,80.8,78.8,80.8z M59.5,87
		c0,4.1-3.3,7.4-7.4,7.4s-7.4-3.3-7.4-7.4s3.3-7.4,7.4-7.4S59.5,82.9,59.5,87z"/>
	<path class="st1" d="M61,104.7l5.6,5.6c1.2,1.2,2.8,1.8,4.4,1.8s3.2-0.6,4.4-1.8c0.4-0.4,0.8-1,1.1-1.5c-0.3-0.6-0.7-1.1-1.1-1.5
		l-5.6-5.6c0.4-0.9,0.8-1.8,1.1-2.7h1.9l-3-3c0.4-0.9,0.8-1.8,1.1-2.7h7.9c2.3,0,4.4-1.3,5.5-3.3c-1.1-2.1-3.2-3.3-5.5-3.3l-7.9,0
		c-0.3-0.9-0.7-1.8-1.1-2.7l3-3h-1.9c-0.3-0.9-0.7-1.8-1.1-2.7l5.6-5.6c0.4-0.4,0.8-1,1.1-1.5c-1.6-3-5.3-4.2-8.4-2.6
		c-0.6,0.3-1.1,0.7-1.5,1.1L61,75c-0.9-0.4-1.8-0.8-2.7-1.1V66c0-3.4-2.8-6.2-6.2-6.2s-6.2,2.8-6.2,6.2v7.9
		c-0.9,0.3-1.8,0.7-2.7,1.1l-5.6-5.6c-2.4-2.4-6.3-2.4-8.8,0c-0.4,0.4-0.8,1-1.1,1.5c0.3,0.6,0.7,1.1,1.1,1.5l5.6,5.6
		c-0.4,0.9-0.8,1.8-1.1,2.7h-1.9l3,3c-0.4,0.9-0.8,1.8-1.1,2.7h-7.9c-2.3,0-4.4,1.3-5.5,3.3c1.1,2.1,3.2,3.3,5.5,3.3h7.9
		c0.3,0.9,0.7,1.8,1.1,2.7l-3,3h1.9c0.3,0.9,0.7,1.8,1.1,2.7l-5.6,5.6c-0.4,0.4-0.8,1-1.1,1.5c1.1,2.1,3.2,3.3,5.5,3.3
		c1.6,0,3.2-0.7,4.4-1.8l5.6-5.6c0.9,0.4,1.8,0.8,2.7,1.1v7.9c0,3.4,2.8,6.2,6.2,6.2c0,0,0,0,0,0c3.4,0,6.2-2.8,6.2-6.2v-7.9
		C59.2,105.5,60.1,105.1,61,104.7z M52.1,100.1c-4.1,0-7.4-3.3-7.4-7.4c0-1,0.2-2,0.6-2.9C44.9,89,44.7,88,44.7,87
		c0-4.1,3.3-7.4,7.4-7.4s7.4,3.3,7.4,7.4c0,1-0.2,2-0.6,2.9c0.4,0.9,0.6,1.8,0.6,2.9C59.5,96.8,56.2,100.1,52.1,100.1z"/>
	<path class="st2" d="M78.8,80.8h-7.9c-0.3-0.9-0.7-1.8-1.1-2.7l5.6-5.6c2.4-2.5,2.3-6.4-0.2-8.8c-2.4-2.3-6.2-2.3-8.6,0L61,69.3
		c-0.9-0.4-1.8-0.8-2.7-1.1v-7.9c0-3.4-2.8-6.2-6.2-6.2l0,0c-3.4,0-6.2,2.8-6.2,6.2c0,0,0,0,0,0v7.9c-0.9,0.3-1.8,0.7-2.7,1.1
		l-5.6-5.6c-2.4-2.4-6.4-2.4-8.8,0.1c-2.4,2.4-2.4,6.3,0,8.7l5.6,5.6c-0.4,0.9-0.8,1.8-1.1,2.7h-7.9c-3.4,0-6.2,2.8-6.2,6.2
		c0,3.4,2.8,6.2,6.2,6.2h7.9c0.3,0.9,0.7,1.8,1.1,2.7l-5.6,5.6c-2.4,2.4-2.4,6.3,0,8.8c1.2,1.2,2.7,1.8,4.4,1.8
		c1.6,0,3.2-0.7,4.4-1.8l5.6-5.6c0.9,0.4,1.8,0.8,2.7,1.1v7.9c0,3.4,2.8,6.2,6.2,6.2c0,0,0,0,0,0c3.4,0,6.2-2.8,6.2-6.2v-7.9
		c0.9-0.3,1.8-0.7,2.7-1.1l5.6,5.6c1.2,1.2,2.8,1.8,4.4,1.8s3.2-0.6,4.4-1.8c2.4-2.4,2.4-6.3,0-8.8l-5.6-5.6
		c0.4-0.9,0.8-1.8,1.1-2.7h7.9c3.4,0,6.2-2.8,6.2-6.2C85,83.6,82.2,80.8,78.8,80.8C78.8,80.8,78.8,80.8,78.8,80.8z M59.5,87
		c0,4.1-3.3,7.4-7.4,7.4s-7.4-3.3-7.4-7.4s3.3-7.4,7.4-7.4S59.5,82.9,59.5,87z"/>
</g>
</svg>
