<?xml version="1.0" encoding="UTF-8"?><!DOCTYPE svg PUBLIC "-//W3C//DTD SVG 1.1//EN" "http://www.w3.org/Graphics/SVG/1.1/DTD/svg11.dtd"><svg xmlns="http://www.w3.org/2000/svg" xmlns:xlink="http://www.w3.org/1999/xlink" version="1.1" id="Layer_1" x="0px" y="0px" width="135px" height="135px" viewBox="0 0 135 135" xml:space="preserve"><path fill="#20D397" d="M126.002 48.917a6.02 6.02 0 0 0-6.565 1.306L88.649 81.009a6.028 6.028 0 0 0 0 8.522l30.788 30.786a6.022 6.022 0 0 0 6.566 1.307 6.028 6.028 0 0 0 3.72-5.568v-61.57a6.03 6.03 0 0 0-3.721-5.569z"/><path fill="#11AAA6" d="M126.002 63.06a6.02 6.02 0 0 0-6.565 1.307L91.459 92.342l27.978 27.976a6.022 6.022 0 0 0 6.566 1.307 6.028 6.028 0 0 0 3.72-5.568V68.628a6.028 6.028 0 0 0-3.721-5.568z"/><path fill="none" stroke="#33363A" stroke-width="3" stroke-linecap="round" stroke-linejoin="round" stroke-miterlimit="10" d="M126.002 48.917a6.02 6.02 0 0 0-6.565 1.306L88.649 81.009a6.028 6.028 0 0 0 0 8.522l30.788 30.786a6.022 6.022 0 0 0 6.566 1.307 6.028 6.028 0 0 0 3.72-5.568v-61.57a6.03 6.03 0 0 0-3.721-5.569z"/><path fill="#5794C1" d="M98.93 116.449c0 7.101-5.757 12.856-12.857 12.856H18.135c-7.102 0-12.857-5.756-12.857-12.856V54.092c0-7.101 5.756-12.856 12.857-12.856h67.938c7.101 0 12.857 5.756 12.857 12.856v62.357z"/><path fill="#77BDE8" d="M18.135 41.235c-5.3 0-9.847 3.207-11.814 7.785 1.968 4.578 6.515 7.785 11.814 7.785h67.938c5.299 0 9.847-3.207 11.814-7.785-1.968-4.578-6.516-7.785-11.814-7.785H18.135z"/><path fill="none" stroke="#33363A" stroke-width="3" stroke-linecap="round" stroke-linejoin="round" stroke-miterlimit="10" d="M98.93 116.449c0 7.101-5.757 12.856-12.857 12.856H18.135c-7.102 0-12.857-5.756-12.857-12.856V54.092c0-7.101 5.756-12.856 12.857-12.856h67.938c7.101 0 12.857 5.756 12.857 12.856v62.357z"/><path fill="none" stroke="#33363A" stroke-width="3" stroke-linecap="round" stroke-linejoin="round" stroke-miterlimit="10" d="M112.477 85.271V58.442"/><path fill="none" stroke="#33363A" stroke-width="3" stroke-linecap="round" stroke-linejoin="round" stroke-miterlimit="10" d="M112.477 93.421v-2.158"/><path fill="none" stroke="#33363A" stroke-width="3" stroke-linecap="round" stroke-linejoin="round" stroke-miterlimit="10" d="M112.477 101.112v-2.16"/><path fill="none" stroke="#33363A" stroke-width="3" stroke-linecap="round" stroke-linejoin="round" stroke-miterlimit="10" d="M112.477 112.098v-5.109"/><g><path fill="#20D397" d="M48.404 23.464c0 9.814-7.955 17.771-17.766 17.771-9.82 0-17.775-7.957-17.775-17.771 0-9.812 7.955-17.77 17.775-17.77 9.811 0 17.766 7.957 17.766 17.77z"/><path fill="#11AAA6" d="M30.638 5.694c9.811 0 17.766 7.957 17.766 17.77 0 9.814-7.955 17.771-17.766 17.771"/><path fill="none" stroke="#33363A" stroke-width="3" stroke-linecap="round" stroke-linejoin="round" stroke-miterlimit="10" d="M48.404 23.464c0 9.814-7.955 17.771-17.766 17.771-9.82 0-17.775-7.957-17.775-17.771 0-9.812 7.955-17.77 17.775-17.77 9.811 0 17.766 7.957 17.766 17.77z"/><g><circle fill="#FFD833" cx="30.632" cy="23.464" r="7.956"/><path fill="#F7A706" d="M22.677 23.463a7.955 7.955 0 0 1 7.955-7.954 7.956 7.956 0 0 1 7.957 7.954"/><circle fill="none" stroke="#33363A" stroke-width="3" stroke-linecap="round" stroke-linejoin="round" stroke-miterlimit="10" cx="30.632" cy="23.464" r="7.956"/></g><g><path fill="#20D397" d="M91.345 23.464c0 9.814-7.955 17.771-17.768 17.771-9.818 0-17.773-7.957-17.773-17.771 0-9.812 7.955-17.77 17.773-17.77 9.813 0 17.768 7.957 17.768 17.77z"/><path fill="#11AAA6" d="M73.578 5.694c9.812 0 17.768 7.957 17.768 17.77 0 9.814-7.955 17.771-17.768 17.771"/><path fill="none" stroke="#33363A" stroke-width="3" stroke-linecap="round" stroke-linejoin="round" stroke-miterlimit="10" d="M91.345 23.464c0 9.814-7.955 17.771-17.768 17.771-9.818 0-17.773-7.957-17.773-17.771 0-9.812 7.955-17.77 17.773-17.77 9.813 0 17.768 7.957 17.768 17.77z"/><g><circle fill="#FFD833" cx="73.574" cy="23.464" r="7.956"/><path fill="#F7A706" d="M65.619 23.463a7.955 7.955 0 0 1 7.955-7.954 7.956 7.956 0 0 1 7.957 7.954"/><circle fill="none" stroke="#33363A" stroke-width="3" stroke-linecap="round" stroke-linejoin="round" stroke-miterlimit="10" cx="73.574" cy="23.464" r="7.956"/></g></g></g><g><path fill="#FFF" d="M78.823 80.801h-7.898a19.636 19.636 0 0 0-1.136-2.715l5.594-5.592a6.203 6.203 0 0 0-8.771-8.77l-5.591 5.592a19.983 19.983 0 0 0-2.717-1.136v-7.897a6.2 6.2 0 0 0-6.2-6.2 6.2 6.2 0 0 0-6.201 6.2v7.897c-.938.312-1.843.694-2.715 1.136l-5.592-5.592a6.202 6.202 0 0 0-8.771 8.77l5.594 5.592a19.732 19.732 0 0 0-1.137 2.715h-7.898a6.201 6.201 0 0 0 .001 12.402h7.897c.311.939.693 1.843 1.136 2.715l-5.593 5.592a6.204 6.204 0 0 0 0 8.771 6.189 6.189 0 0 0 4.386 1.815 6.186 6.186 0 0 0 4.385-1.815l5.592-5.593c.871.441 1.776.824 2.715 1.136v7.897a6.2 6.2 0 0 0 6.201 6.2 6.2 6.2 0 0 0 6.2-6.2v-7.897a19.91 19.91 0 0 0 2.717-1.136l5.592 5.593c1.211 1.211 2.798 1.815 4.385 1.815s3.174-.605 4.385-1.816a6.202 6.202 0 0 0 0-8.77l-5.594-5.592c.442-.871.825-1.775 1.136-2.715h7.899a6.201 6.201 0 0 0-.001-12.402zM59.53 87.002c0 4.095-3.331 7.426-7.426 7.426s-7.426-3.331-7.426-7.426 3.331-7.426 7.426-7.426 7.426 3.331 7.426 7.426z"/><path fill="#E9F3F4" d="M61.021 104.688l5.592 5.593c1.211 1.211 2.798 1.815 4.385 1.815s3.174-.605 4.385-1.816a6.22 6.22 0 0 0 1.119-1.527 6.2 6.2 0 0 0-1.119-1.527l-5.594-5.592c.442-.871.825-1.776 1.136-2.716h1.864l-3-2.999c.442-.871.825-1.775 1.136-2.715h7.899a6.2 6.2 0 0 0 5.499-3.344 6.198 6.198 0 0 0-5.5-3.345l-7.898.001a19.534 19.534 0 0 0-1.136-2.715l3-3h-1.864a19.636 19.636 0 0 0-1.136-2.715l5.594-5.592a6.227 6.227 0 0 0 1.118-1.527 6.202 6.202 0 0 0-9.889-1.528l-5.591 5.592a19.978 19.978 0 0 0-2.717-1.135v-7.899a6.2 6.2 0 0 0-12.401 0v7.899a19.88 19.88 0 0 0-2.715 1.135l-5.592-5.592a6.202 6.202 0 0 0-9.889 1.528 6.208 6.208 0 0 0 1.118 1.527l5.594 5.592a19.732 19.732 0 0 0-1.137 2.715h-1.863l3 2.998a19.862 19.862 0 0 0-1.137 2.717h-7.898a6.194 6.194 0 0 0-5.499 3.344 6.196 6.196 0 0 0 5.5 3.344h7.897c.311.939.693 1.843 1.136 2.715l-3 2.999h1.864c.311.938.693 1.844 1.136 2.716l-5.593 5.592a6.208 6.208 0 0 0-1.118 1.527 6.195 6.195 0 0 0 5.504 3.343 6.186 6.186 0 0 0 4.385-1.815l5.592-5.593c.871.441 1.776.824 2.715 1.136v7.898a6.2 6.2 0 0 0 6.201 6.2 6.2 6.2 0 0 0 6.2-6.2v-7.898c.94-.312 1.844-.695 2.717-1.136zm-8.917-4.546c-4.095 0-7.426-3.33-7.426-7.425 0-1.013.204-1.978.573-2.857a7.374 7.374 0 0 1-.573-2.857c0-4.095 3.331-7.426 7.426-7.426s7.426 3.331 7.426 7.426a7.367 7.367 0 0 1-.574 2.857c.369.88.574 1.845.574 2.857 0 4.095-3.331 7.425-7.426 7.425z"/><path fill="none" stroke="#33363A" stroke-width="3" stroke-linecap="round" stroke-linejoin="round" stroke-miterlimit="10" d="M78.823 80.801h-7.898a19.636 19.636 0 0 0-1.136-2.715l5.594-5.592a6.203 6.203 0 0 0-8.771-8.77l-5.591 5.592a19.983 19.983 0 0 0-2.717-1.136v-7.897a6.2 6.2 0 0 0-6.2-6.2 6.2 6.2 0 0 0-6.201 6.2v7.897c-.938.312-1.843.694-2.715 1.136l-5.592-5.592a6.202 6.202 0 0 0-8.771 8.77l5.594 5.592a19.732 19.732 0 0 0-1.137 2.715h-7.898a6.201 6.201 0 0 0 .001 12.402h7.897c.311.939.693 1.843 1.136 2.715l-5.593 5.592a6.204 6.204 0 0 0 0 8.771 6.189 6.189 0 0 0 4.386 1.815 6.186 6.186 0 0 0 4.385-1.815l5.592-5.593c.871.441 1.776.824 2.715 1.136v7.897a6.2 6.2 0 0 0 6.201 6.2 6.2 6.2 0 0 0 6.2-6.2v-7.897a19.91 19.91 0 0 0 2.717-1.136l5.592 5.593c1.211 1.211 2.798 1.815 4.385 1.815s3.174-.605 4.385-1.816a6.202 6.202 0 0 0 0-8.77l-5.594-5.592c.442-.871.825-1.775 1.136-2.715h7.899a6.201 6.201 0 0 0-.001-12.402zM59.53 87.002c0 4.095-3.331 7.426-7.426 7.426s-7.426-3.331-7.426-7.426 3.331-7.426 7.426-7.426 7.426 3.331 7.426 7.426z"/></g><metadata><rdf:RDF xmlns:rdf="http://www.w3.org/1999/02/22-rdf-syntax-ns#" xmlns:rdfs="http://www.w3.org/2000/01/rdf-schema#" xmlns:dc="http://purl.org/dc/elements/1.1/"><rdf:Description about="https://iconscout.com/legal#licenses" dc:title="production,services" dc:description="production,services" dc:publisher="Iconscout" dc:date="2018-01-26" dc:format="image/svg+xml" dc:language="en"><dc:creator><rdf:Bag><rdf:li>Roundicons.com .</rdf:li></rdf:Bag></dc:creator></rdf:Description></rdf:RDF></metadata></svg>