<?xml version="1.0" encoding="utf-8"?>
<!-- Generator: Adobe Illustrator 22.0.1, SVG Export Plug-In . SVG Version: 6.00 Build 0)  -->
<svg version="1.1" id="Capa_1" xmlns="http://www.w3.org/2000/svg" xmlns:xlink="http://www.w3.org/1999/xlink" x="0px" y="0px"
	 viewBox="0 0 485.2 485.2" style="enable-background:new 0 0 485.2 485.2;" xml:space="preserve">
<style type="text/css">
	.st0{fill:none;stroke:#FFFFFF;stroke-width:10;stroke-miterlimit:10;}
</style>
<g>
	<path class="st0" d="M406.4,193.6c10-7.4,18.2-3.4,18.2,9v201.9c0,12.3-8.2,16.4-18.2,9l-54.6-40.4c-10-7.4-18.2-23.6-18.2-35.9
		v-67.3c0-12.3,8.2-28.5,18.2-35.9L406.4,193.6z M106.1,90.4c-25.1,0-45.5,20.1-45.5,44.9c0,24.8,20.4,44.9,45.5,44.9
		c25.1,0,45.5-20.1,45.5-44.9C151.6,110.5,131.3,90.4,106.1,90.4z M242.6,68c-31.4,0-56.9,25.1-56.9,56.1s25.5,56.1,56.9,56.1
		c31.4,0,56.9-25.1,56.9-56.1S274,68,242.6,68z M151.6,247.5h159.2v134.6c0,12.4-10.2,22.4-22.7,22.4H83.4
		c-12.6,0-22.7-10-22.7-22.4V225c0-12.4,10.2-22.4,22.7-22.4h204.7c12.6,0,22.7,10,22.7,22.4H151.6V247.5z M151.6,337.2
		c0-12.4-10.2-22.4-22.7-22.4c-12.6,0-22.7,10-22.7,22.4c0,12.4,10.2,22.4,22.7,22.4S151.6,349.6,151.6,337.2z"/>
</g>
</svg>
