<?xml version="1.0" encoding="utf-8"?>
<!-- Generator: Adobe Illustrator 22.0.1, SVG Export Plug-In . SVG Version: 6.00 Build 0)  -->
<svg version="1.1" id="Capa_1" xmlns="http://www.w3.org/2000/svg" xmlns:xlink="http://www.w3.org/1999/xlink" x="0px" y="0px"
	 viewBox="0 0 60 60" style="enable-background:new 0 0 60 60;" xml:space="preserve">
<style type="text/css">
	.st0{fill:#FFFFFF;stroke:#000000;stroke-width:0.25;stroke-miterlimit:10;}
</style>
<g>
	<g>
		<path class="st0" d="M14,35.4v-2.2h-2V17.7h-2v16.7c0,0.7,0.4,1.1,1,1.1H14z"/>
		<path class="st0" d="M12,2.1h23v-2.2H11c-0.6,0-1,0.4-1,1.1v3.3h2V2.1z"/>
		<path class="st0" d="M58,42.2l-5.9-8.6c-0.2-0.3-0.5-0.4-0.8-0.4H46v2.2h4.8l7.4,10.7c0.2,0.3,0.5,0.4,0.8,0.4
			c0.1,0,0.2,0,0.3-0.1c0.4-0.1,0.7-0.6,0.7-1V28.8h-2V42.2z"/>
		<path class="st0" d="M7.9,53.7L2,62.2V22.1h5v-2.2H1c-0.6,0-1,0.4-1,1.1v44.4c0,0.4,0.3,0.9,0.7,1c0.1,0.1,0.2,0.1,0.3,0.1
			c0.3,0,0.6-0.1,0.8-0.4l7.4-10.7H14v-2.2H8.7C8.4,53.2,8.1,53.3,7.9,53.7z"/>
		<path class="st0" d="M48,53.2h-2v2.2h3c0.6,0,1-0.4,1-1.1V38.8h-2V53.2z"/>
		<path class="st0" d="M43,33.2H17c-0.6,0-1,0.4-1,1.1v4.4h-5V41h6c0.6,0,1-0.4,1-1.1v-3.4l11.4,8.8c0.2,0.1,0.4,0.2,0.6,0.2
			s0.4-0.1,0.5-0.2L42,36.3v16.9H18v-4.4c0-0.7-0.4-1.1-1-1.1H9v2.2h7v4.4c0,0.7,0.4,1.1,1,1.1h26c0.6,0,1-0.4,1-1.1v-20
			C44,33.7,43.6,33.2,43,33.2z M30,43l-9.9-7.6h19.7L30,43z"/>
		<rect x="5" y="38.8" class="st0" width="4" height="2.2"/>
		<path class="st0" d="M59,11h-2.8c-0.1-0.1-0.1-0.3-0.2-0.4l1.9-2.1c0.2-0.2,0.3-0.4,0.3-0.8s-0.1-0.6-0.3-0.8l-4.2-4.7
			c-0.4-0.4-1-0.4-1.4,0l-1.9,2.1c-0.2,0-0.3-0.1-0.4-0.1V1c0-0.7-0.4-1.1-1-1.1h-6c-0.6,0-1,0.4-1,1.1v3.1
			c-0.1,0.1-0.3,0.1-0.4,0.2l-1.9-2.1c-0.4-0.4-1-0.4-1.4,0l-4.2,4.7c-0.2,0.2-0.3,0.4-0.3,0.8s0.1,0.6,0.3,0.8l1.9,2.1
			c0,0.2-0.1,0.3-0.1,0.3H33c-0.6,0-1,0.4-1,1.1v6.7c0,0.7,0.4,1.1,1,1.1h2.8c0.1,0.1,0.1,0.3,0.2,0.4l-1.9,2.1
			c-0.2,0.2-0.3,0.4-0.3,0.8c0,0.3,0.1,0.6,0.3,0.8l4.2,4.7c0.4,0.4,1,0.4,1.4,0l1.9-2.1c0.2,0.1,0.3,0.1,0.4,0.2v3.2
			c0,0.7,0.4,1.1,1,1.1h6c0.6,0,1-0.4,1-1.1v-3.1c0.1-0.1,0.3-0.1,0.4-0.2l1.9,2.1c0.4,0.4,1,0.4,1.4,0l4.2-4.7
			c0.2-0.2,0.3-0.4,0.3-0.8c0-0.3-0.1-0.6-0.3-0.8L56,20.3c0.1-0.1,0.1-0.3,0.2-0.4H59c0.6,0,1-0.4,1-1.1v-6.7
			C60,11.4,59.6,11,59,11z M58,17.7h-2.5c-0.5,0-0.9,0.4-1,0.9c0,0.2-0.4,1.1-0.5,1.3c-0.1,0.2-0.2,0.4-0.2,0.7
			c0,0.3,0.1,0.6,0.3,0.8l1.7,1.9L53,26.3l-1.7-1.9c-0.2-0.2-0.4-0.3-0.7-0.3c-0.2,0-0.4,0.1-0.6,0.2c-0.2,0.1-1,0.4-1.2,0.6
			C48.3,25,48,25.4,48,26v2.8h-4V26c0-0.3-0.1-0.6-0.3-0.8c-0.2-0.3-1.9-1.1-2.3-1.1c-0.3,0-0.5,0.1-0.7,0.3L39,26.3l-2.8-3.1
			l1.7-1.9c0.2-0.2,0.3-0.4,0.3-0.8c0-0.2-0.1-0.4-0.2-0.7s-0.4-1.1-0.5-1.3c-0.1-0.6-0.5-0.9-1-0.9H34v-4.4h2.5
			c0.3,0,0.5-0.1,0.7-0.3c0.3-0.2,1-2.1,1-2.6c0-0.3-0.1-0.6-0.3-0.8l-1.7-1.9L39,4.6l1.7,1.9c0.2,0.2,0.4,0.3,0.7,0.3
			c0.2,0,0.4-0.1,0.6-0.2s1-0.4,1.2-0.6C43.7,5.9,44,5.5,44,4.9V2.1h4v2.8c0,0.3,0.1,0.6,0.3,0.8c0.2,0.3,1.9,1.1,2.3,1.1
			c0.3,0,0.5-0.1,0.7-0.3L53,4.6l2.8,3.1l-1.7,1.9c-0.2,0.2-0.3,0.4-0.3,0.8c0,0.2,0.1,0.4,0.2,0.7c0.1,0.2,0.4,1.1,0.5,1.3
			c0.1,0.6,0.5,0.9,1,0.9H58V17.7z"/>
		<path class="st0" d="M46,11c-2.2,0-4,2-4,4.4s1.8,4.4,4,4.4s4-2,4-4.4S48.2,11,46,11z M46,17.7c-1.1,0-2-1-2-2.2s0.9-2.2,2-2.2
			s2,1,2,2.2S47.1,17.7,46,17.7z"/>
		<rect x="5" y="47.7" class="st0" width="2" height="2.2"/>
		<rect x="7" y="43.2" class="st0" width="11" height="2.2"/>
		<path class="st0" d="M14.3,10.2l1.4,1.6l3-3.3c0.4-0.4,0.4-1.1,0-1.6l-3-3.3l-1.4,1.6l1.3,1.4H0v2.2h15.6L14.3,10.2z"/>
		<path class="st0" d="M3.3,18.4l1.4-1.6l-1.3-1.4H19v-2.2H3.4l1.3-1.4l-1.4-1.6l-3,3.3c-0.4,0.4-0.4,1.1,0,1.6L3.3,18.4z"/>
		<rect x="20" y="26.6" class="st0" width="11" height="2.2"/>
		<rect x="15" y="26.6" class="st0" width="3" height="2.2"/>
		<rect x="15" y="22.1" class="st0" width="16" height="2.2"/>
		<rect x="15" y="17.7" class="st0" width="16" height="2.2"/>
		<rect x="25" y="13.2" class="st0" width="6" height="2.2"/>
		<rect x="25" y="8.8" class="st0" width="6" height="2.2"/>
		<rect x="25" y="4.3" class="st0" width="6" height="2.2"/>
	</g>
</g>
</svg>
